<?xml version="1.0" encoding="utf-8"?>
<!-- Generator: Adobe Illustrator 27.5.0, SVG Export Plug-In . SVG Version: 6.00 Build 0)  -->
<svg version="1.1" id="Layer_1" xmlns="http://www.w3.org/2000/svg" xmlns:xlink="http://www.w3.org/1999/xlink" x="0px" y="0px"
	 viewBox="0 0 349.023 85.559" style="enable-background:new 0 0 349.023 85.559;" xml:space="preserve">
<g>
	<g>
		<g>
			<polygon style="fill:#4C4E50;" points="71.653,68.589 73.081,74.238 77.545,74.414 80.045,68.766 			"/>
			<path style="fill:#3B3D3E;" d="M77.545,74.592c-0.002,0-0.005,0-0.007,0l-4.464-0.176c-0.079-0.003-0.148-0.058-0.167-0.135
				l-1.428-5.648c-0.014-0.054-0.001-0.111,0.034-0.154c0.035-0.043,0.089-0.07,0.144-0.067l8.392,0.176
				c0.06,0.001,0.115,0.032,0.148,0.082c0.032,0.05,0.037,0.113,0.013,0.167l-2.5,5.648C77.681,74.55,77.616,74.592,77.545,74.592z
				 M73.223,74.065l4.207,0.166l2.343-5.294l-7.888-0.166L73.223,74.065z"/>
		</g>
		<g>
			<polygon style="fill:#4C4E50;" points="103.926,70.134 105.355,75.782 109.818,75.958 112.318,70.31 			"/>
			<path style="fill:#3B3D3E;" d="M109.819,76.136c-0.002,0-0.005,0-0.007,0l-4.464-0.176c-0.08-0.003-0.148-0.058-0.167-0.135
				l-1.428-5.648c-0.014-0.054-0.001-0.111,0.034-0.154c0.035-0.043,0.085-0.073,0.144-0.067l8.392,0.176
				c0.06,0.001,0.115,0.032,0.148,0.082c0.032,0.05,0.037,0.113,0.013,0.167l-2.5,5.648
				C109.955,76.094,109.89,76.136,109.819,76.136z M105.497,75.61l4.207,0.166l2.342-5.294l-7.888-0.166L105.497,75.61z"/>
		</g>
		<g>
			<polygon style="fill:#4C4E50;" points="133.656,70.796 135.084,76.444 139.548,76.62 142.048,70.972 			"/>
			<path style="fill:#3B3D3E;" d="M139.548,76.798c-0.002,0-0.005,0-0.007,0l-4.464-0.177c-0.08-0.003-0.148-0.058-0.167-0.135
				l-1.428-5.648c-0.014-0.054-0.001-0.111,0.034-0.154c0.035-0.043,0.084-0.074,0.144-0.067l8.392,0.177
				c0.06,0.001,0.115,0.032,0.148,0.082c0.032,0.05,0.037,0.113,0.013,0.167l-2.5,5.648
				C139.684,76.757,139.619,76.798,139.548,76.798z M135.226,76.272l4.206,0.167l2.343-5.294l-7.888-0.166L135.226,76.272z"/>
		</g>
	</g>
	<g>
		<g>
			<path style="fill:#4C4E50;" d="M78.099,73.162l1.946-4.396l-8.392-0.177l1.003,3.968C74.46,72.842,76.276,73.031,78.099,73.162z"
				/>
			<path style="fill:#3B3D3E;" d="M78.099,73.34c-0.004,0-0.009,0-0.013-0.001c-2.003-0.144-3.788-0.343-5.458-0.608
				c-0.071-0.011-0.129-0.063-0.146-0.132l-1.003-3.967c-0.014-0.054-0.001-0.111,0.034-0.154c0.035-0.043,0.089-0.07,0.144-0.067
				l8.392,0.177c0.06,0.001,0.116,0.032,0.148,0.082c0.032,0.05,0.037,0.113,0.013,0.167l-1.946,4.396
				C78.235,73.298,78.17,73.34,78.099,73.34z M72.801,72.4c1.591,0.248,3.289,0.437,5.184,0.576l1.787-4.038l-7.888-0.166
				L72.801,72.4z"/>
		</g>
		<g>
			<path style="fill:#4C4E50;" d="M110.618,74.153l1.701-3.843l-8.392-0.176l1.021,4.039
				C106.838,74.166,108.728,74.151,110.618,74.153z"/>
			<path style="fill:#3B3D3E;" d="M104.948,74.35c-0.082,0-0.155-0.056-0.174-0.135l-1.021-4.038
				c-0.014-0.054-0.001-0.111,0.034-0.154c0.035-0.043,0.085-0.073,0.144-0.067l8.392,0.176c0.06,0.001,0.115,0.032,0.148,0.082
				c0.032,0.05,0.037,0.113,0.013,0.167l-1.701,3.843c-0.029,0.065-0.093,0.106-0.165,0.106h0c-1.238,0.001-2.477,0.005-3.716,0.011
				L104.948,74.35C104.948,74.35,104.948,74.35,104.948,74.35z M104.158,70.316l0.93,3.678l1.811-0.008
				c1.2-0.006,2.4-0.016,3.601-0.011l1.546-3.493L104.158,70.316z"/>
		</g>
		<g>
			<path style="fill:#4C4E50;" d="M140.122,75.323l1.926-4.351l-8.392-0.177l1.135,4.487
				C136.567,75.338,138.344,75.357,140.122,75.323z"/>
			<path style="fill:#3B3D3E;" d="M138.326,75.518c-1.133,0-2.304-0.02-3.542-0.058c-0.08-0.003-0.149-0.058-0.169-0.135
				l-1.135-4.487c-0.014-0.054-0.001-0.111,0.034-0.154c0.035-0.043,0.085-0.074,0.144-0.067l8.392,0.177
				c0.06,0.001,0.115,0.032,0.148,0.082c0.032,0.05,0.037,0.113,0.013,0.167l-1.926,4.351c-0.028,0.063-0.091,0.105-0.161,0.106
				C139.534,75.512,138.935,75.518,138.326,75.518z M140.122,75.323h0.005H140.122z M134.931,75.108
				c1.8,0.054,3.463,0.066,5.072,0.039l1.772-4.003l-7.888-0.166L134.931,75.108z"/>
		</g>
	</g>
	<g>
		<path style="fill:#797A7D;" d="M70.046,40.392c0,0-45.71,7.943-63.387,15.621c0,0-2.143,1.059-0.803,1.853
			c1.339,0.794,29.461,10.326,67.226,13.503c37.764,3.177,69.368,1.589,73.118,3.442c3.75,1.853,5.892,8.737,10.445,9.267
			c4.553,0.53,153.199-9.531,158.824-10.326l8.035-3.707l1.339-10.061c0,0-35.086-7.678-58.119-11.12
			c-23.033-3.442-111.15-13.503-111.15-13.503L70.046,40.392z"/>
		<path style="fill:#3B3D3E;" d="M157.284,84.276c-0.315,0-0.537-0.007-0.661-0.021c-2.678-0.311-4.527-2.734-6.316-5.077
			c-1.347-1.765-2.619-3.431-4.189-4.207c-1.676-0.828-9.134-0.956-20.424-1.148c-13.549-0.231-32.106-0.548-52.629-2.275
			C35.091,68.351,6.962,58.73,5.763,58.019c-0.361-0.214-0.539-0.475-0.527-0.773c0.028-0.722,1.208-1.325,1.343-1.392
			c17.502-7.602,62.979-15.557,63.436-15.636c0.007-0.001,0.014-0.002,0.02-0.002l85.527-5.031
			c0.912,0.101,88.414,10.101,111.188,13.504c22.776,3.404,57.78,11.046,58.131,11.122c0.091,0.02,0.151,0.105,0.139,0.197
			l-1.339,10.061c-0.008,0.06-0.046,0.113-0.102,0.138l-8.035,3.707c-0.016,0.007-0.033,0.012-0.051,0.015
			c-2.937,0.415-43.647,3.262-79.827,5.661C218.616,80.719,164.407,84.276,157.284,84.276z M70.067,40.569
			C69.171,40.726,24.1,48.632,6.731,56.176c-0.426,0.211-1.121,0.697-1.136,1.083c-0.006,0.159,0.113,0.312,0.353,0.455
			c1.194,0.708,29.235,10.288,67.148,13.478c20.511,1.725,39.061,2.042,52.605,2.274c11.339,0.193,18.829,0.322,20.578,1.186
			c1.645,0.813,2.942,2.512,4.315,4.311c1.743,2.283,3.546,4.645,6.071,4.938c2.296,0.261,42.304-2.236,78.977-4.668
			c40.473-2.684,76.914-5.267,79.774-5.654l7.921-3.655l1.305-9.803c-2.614-0.569-35.976-7.8-57.946-11.082
			c-22.767-3.402-110.263-13.402-111.144-13.502L70.067,40.569z"/>
	</g>
	<path style="opacity:0.4;fill:#797A7D;" d="M74.957,43.99c3.411,1.272,7.077,1.86,10.686,2.259
		c3.113,0.345,6.239,0.498,9.363,0.696c2.509,0.159,5.008,0.404,7.521,0.508c3.38,0.139,6.764,0.146,10.145,0.049
		c6.819-0.196,13.621-0.815,20.384-1.69c6.763-0.875,13.462-2.128,20.21-3.099c6.676-0.961,13.384-1.734,20.123-2.086
		c6.936-0.362,13.887-0.217,20.826-0.024c2.918,0.081,5.837,0.179,8.757,0.274c-25.097-2.969-47.399-5.515-47.399-5.515
		l-85.527,5.03c0,0-0.159,0.028-0.45,0.079C70.864,42.175,73.009,43.263,74.957,43.99z"/>
	<g style="opacity:0.57;">
		<path style="fill:#797A7D;" d="M267.443,48.973c0.028,0.022,0.054,0.045,0.083,0.068c4.107,3.177-24.997,3.001-24.997,3.001
			l-93.205-1.236c0,0-4.017-0.441-5.178,1.236c-1.161,1.677-1.875,3.883,0.536,7.06c2.41,3.177,5.803,4.854,5.803,4.854
			l-44.014,0.971c-45.572-1.001-95.442-7.521-100.764-8.232c-0.335,0.355-0.489,0.793,0.149,1.172
			c1.339,0.794,29.461,10.326,67.226,13.503c37.764,3.177,69.368,1.589,73.118,3.442c3.75,1.853,5.892,8.737,10.445,9.267
			c4.553,0.53,153.199-9.531,158.824-10.326l8.035-3.707l1.339-10.061C324.842,59.985,290.48,52.465,267.443,48.973z"/>
	</g>
	<g style="opacity:0.57;">
		<path style="fill:#797A7D;" d="M278.646,50.817l-7.906,4.269l13.392,4.192l-1.607,3.883c-2.321,3.883,3.393,4.06,3.393,4.06
			l30.354,2.118l-3.75,1.942c0,0-21.962,0.353-25.533,0.53c-3.571,0.177-21.069-4.589-21.069-4.589l-110.703-6.178l55.53,10.59
			c0,0,27.14,0.176,24.997,3.001c-2.143,2.824-71.6,6.884-74.1,7.06c-2.5,0.176-4.821-3.883-6.785-6.707
			c-1.964-2.824-4.821-1.942-4.821-1.942l-14.804,0.787c5.922,0.158,9.797,0.401,10.965,0.978c3.75,1.853,5.892,8.737,10.445,9.267
			c4.553,0.53,153.199-9.531,158.824-10.326l8.035-3.707l1.339-10.061C324.842,59.985,300.189,54.59,278.646,50.817z"/>
	</g>
	<g>
		<g>
			<path style="fill:#5A5B5E;" d="M310.455,11.896l0.877-3.716h18.42v3.097C329.752,11.276,310.705,11.648,310.455,11.896z"/>
			<path style="fill:#3B3D3E;" d="M310.455,12.074c-0.03,0-0.06-0.007-0.087-0.022c-0.07-0.039-0.106-0.119-0.088-0.196l0.877-3.716
				c0.019-0.081,0.091-0.137,0.175-0.137h18.42c0.099,0,0.18,0.08,0.18,0.178v3.097c0,0.097-0.078,0.176-0.176,0.178
				c-7.392,0.144-18.566,0.421-19.214,0.597C310.515,12.066,310.485,12.074,310.455,12.074z M311.474,8.357l-0.788,3.339
				c1.528-0.179,7.863-0.378,18.886-0.593V8.357H311.474z"/>
		</g>
		<g>
			<path style="fill:#797A7D;" d="M330.003,5.455h-19.298c0,0-5.51,0.067-6.138,1.52c0,0-0.23,0.256,1.2,0.854
				c1.43,0.599,4.688,0.722,7.695,0.722h17.543c0,0,1.754,0,1.88-1.115C333.01,6.322,332.885,5.331,330.003,5.455z"/>
			<path style="fill:#3B3D3E;" d="M331.005,8.729h-17.543c-4.098,0-6.566-0.234-7.765-0.736c-1.099-0.46-1.277-0.736-1.315-0.903
				c-0.021-0.092,0.003-0.159,0.026-0.198c0.68-1.503,5.721-1.607,6.295-1.614h19.296c1.412-0.06,2.28,0.133,2.73,0.609
				c0.401,0.424,0.398,1.005,0.334,1.569C332.922,8.715,331.083,8.729,331.005,8.729z M304.74,7.027
				c0.036,0.059,0.217,0.27,1.096,0.638c1.138,0.477,3.633,0.709,7.625,0.709h17.543c0.016,0,1.595-0.014,1.701-0.957
				c0.062-0.555,0.045-0.986-0.24-1.288c-0.368-0.39-1.172-0.552-2.456-0.497c-0.003,0-0.005,0-0.008,0h-19.298
				C309.216,5.65,305.253,5.937,304.74,7.027z M304.702,7.092C304.702,7.092,304.702,7.092,304.702,7.092
				C304.702,7.092,304.702,7.092,304.702,7.092z M304.702,7.091L304.702,7.091L304.702,7.091z"/>
		</g>
		<path style="opacity:0.62;fill:#5A5B5E;" d="M330.003,5.455h-19.298c0,0-5.51,0.067-6.138,1.52c0,0-0.23,0.256,1.2,0.854
			c1.43,0.599,4.688,0.722,7.695,0.722h17.543c0,0,1.754,0,1.88-1.115C333.01,6.322,332.885,5.331,330.003,5.455z M330.644,7.009
			c-0.109,0.593-1.64,0.593-1.64,0.593h-15.308c-2.624,0-5.467-0.066-6.715-0.384c-1.248-0.318-1.047-0.454-1.047-0.454
			c0.548-0.772,5.356-0.808,5.356-0.808h16.838C330.644,5.89,330.753,6.416,330.644,7.009z"/>
		<g>
			<polygon style="fill:#4F5153;" points="282.385,55.623 309.828,10.285 330.586,10.285 327.497,63.426 			"/>
			<path style="fill:#3B3D3E;" d="M327.496,63.604c-0.01,0-0.021-0.001-0.031-0.003l-45.111-7.804
				c-0.058-0.01-0.108-0.048-0.133-0.101c-0.025-0.053-0.021-0.115,0.009-0.165l27.443-45.337c0.033-0.054,0.091-0.086,0.154-0.086
				h20.758c0.049,0,0.097,0.02,0.131,0.056c0.034,0.036,0.052,0.084,0.049,0.132l-3.09,53.141c-0.003,0.051-0.028,0.098-0.068,0.129
				C327.576,63.591,327.537,63.604,327.496,63.604z M282.674,55.492l44.655,7.725l3.067-52.754H309.93L282.674,55.492z"/>
		</g>
		<path style="opacity:0.29;fill:#4F5153;" d="M322.439,31.887c0.069-4.667,0.162-9.333,0.248-13.999
			c0.047-2.534,0.091-5.068,0.129-7.602h-12.988l-27.443,45.337l40.289,6.97C322.577,60.201,322.323,39.73,322.439,31.887z"/>
		<path style="fill:#797A7D;" d="M329.752,19.716h-25.438c-0.078,0-0.141-0.063-0.141-0.14c0-0.077,0.063-0.14,0.141-0.14h25.438
			c0.078,0,0.142,0.063,0.142,0.14C329.894,19.653,329.83,19.716,329.752,19.716z"/>
		<path style="fill:#797A7D;" d="M329.752,41.931H290.74c-0.078,0-0.142-0.063-0.142-0.14c0-0.077,0.063-0.14,0.142-0.14h39.012
			c0.078,0,0.142,0.063,0.142,0.14C329.894,41.868,329.83,41.931,329.752,41.931z"/>
		<polygon style="opacity:0.3;fill:#797A7D;" points="317.806,49.388 325.157,28.742 331.154,28.742 328.248,51.452 		"/>
		<g>
			<polygon style="fill:#4F5153;" points="317.806,48.644 325.157,27.999 331.154,27.999 329.834,50.709 			"/>
			<path style="fill:#3B3D3E;" d="M329.833,50.887c-0.01,0-0.021-0.001-0.031-0.003l-12.027-2.064
				c-0.052-0.009-0.098-0.04-0.124-0.085c-0.027-0.045-0.032-0.1-0.014-0.149l7.351-20.645c0.025-0.071,0.093-0.119,0.169-0.119
				h5.997c0.049,0,0.097,0.02,0.131,0.056c0.034,0.036,0.052,0.084,0.049,0.132l-1.32,22.71c-0.003,0.05-0.028,0.098-0.068,0.129
				C329.913,50.873,329.874,50.887,329.833,50.887z M318.046,48.505l11.62,1.994l1.298-22.323h-5.679L318.046,48.505z"/>
		</g>
		<polygon style="fill:#797A7D;" points="317.806,48.644 325.157,27.999 331.154,27.999 325.909,28.66 		"/>
		<polygon style="fill:#797A7D;" points="282.385,55.623 309.828,10.285 330.586,10.285 310.288,11.153 283.304,55.499 		"/>
	</g>
	<g>
		<path style="fill:#4E5466;" d="M123.165,21.859c-1.061-0.147-30.711-3.971-53.12,18.533c0,0,17.23,3.707,41.067,2.383
			c23.837-1.324,44.46-7.413,44.46-7.413S140.307,24.242,123.165,21.859z"/>
		<path style="fill:#272C2D;" d="M100.858,43.295c-18.2,0-30.717-2.639-30.863-2.671l-0.425-0.091l0.305-0.306
			c22.487-22.584,52.075-18.776,53.324-18.602h0c17.005,2.364,32.363,13.435,32.516,13.547l0.387,0.282l-0.461,0.136
			c-0.206,0.061-20.923,6.113-44.515,7.423C107.548,43.211,104.112,43.295,100.858,43.295z M70.528,40.248
			c2.817,0.55,19.104,3.481,40.572,2.29c21.558-1.197,40.705-6.362,43.93-7.269c-2.522-1.745-16.54-11.042-31.897-13.176h0
			C121.899,21.922,92.809,18.177,70.528,40.248z"/>
	</g>
	<path style="fill:#656A6C;" d="M92.571,28.108c-0.636,0.224-1.271,0.448-1.901,0.688c-5.758,2.191-11.487,5.113-15.975,9.368
		c2.511,0.636,5.074,1.061,7.657,1.229c0.932-0.942,1.91-1.84,2.945-2.675c2.622-2.115,5.494-3.878,8.513-5.366
		C93.438,30.255,93.027,29.172,92.571,28.108z"/>
	<path style="fill:#656A6C;" d="M113.032,23.258c-4.01,0.412-7.971,1.242-11.868,2.247c-1.227,0.316-2.449,0.654-3.665,1.011
		c0.301,0.939,0.571,1.889,0.841,2.838c2.161-0.85,4.368-1.587,6.59-2.23c6.065-1.756,12.299-2.851,18.557-3.69
		C120.049,22.829,116.492,22.902,113.032,23.258z"/>
	<g>
		<g>
			<path style="fill:#797A7D;" d="M184.378,76.87c0.123-0.138,0.195-0.276,0-0.465c-0.15-0.146-5.904-2.34-7.421-2.753
				c-1.517-0.413-4.428-0.275-4.428-0.275h-5.125h-7.585c0,0-5.084,0.677-6.558,3.131c-0.026,0.043-0.05,0.086-0.074,0.13
				c0.023,0.044,0.048,0.087,0.074,0.13c1.474,2.454,6.558,3.131,6.558,3.131h7.585h5.125c0,0,2.911,0.138,4.428-0.275
				C178.474,79.21,184.234,77.032,184.378,76.87z"/>
			<path style="fill:#3B3D3E;" d="M173.664,80.099c-0.635,0-1.097-0.021-1.144-0.023h-12.702c-0.235-0.03-5.212-0.719-6.713-3.218
				c-0.027-0.045-0.053-0.091-0.078-0.138c-0.027-0.052-0.027-0.114,0-0.166c0.025-0.047,0.051-0.092,0.078-0.137
				c1.501-2.499,6.478-3.188,6.689-3.217l12.734-0.001c0.112-0.006,2.949-0.134,4.476,0.282c1.319,0.359,7.277,2.581,7.499,2.797
				c0.343,0.334,0.092,0.616,0.009,0.709c-0.215,0.242-6.258,2.466-7.508,2.806C176.074,80.048,174.656,80.099,173.664,80.099z
				 M167.404,79.72h5.125c0.037,0.001,2.909,0.131,4.38-0.269c1.524-0.415,6.968-2.482,7.345-2.712
				c0.088-0.1,0.085-0.122-0.002-0.207c-0.24-0.151-5.8-2.288-7.343-2.708c-1.471-0.401-4.342-0.271-4.371-0.269h-12.719
				c-0.026,0.005-4.991,0.693-6.404,3.044c-0.008,0.013-0.015,0.026-0.023,0.039c0.008,0.013,0.016,0.026,0.023,0.039
				c1.412,2.351,6.377,3.039,6.427,3.046L167.404,79.72z"/>
		</g>
		<path style="opacity:0.49;fill:#7B816F;" d="M153.413,76.996c1.641,2.267,6.406,2.902,6.406,2.902h12.71
			c0,0,2.911,0.138,4.428-0.275c1.347-0.367,6.034-2.123,7.171-2.627H153.413z"/>
		<path style="fill:#7B816F;" d="M154.102,76.357c0,0,2.764-2.019,5.852-2.51c3.089-0.491,16.646,0,16.646,0l-16.126,0.819
			c0,0-0.455,0.164-0.423,0.709c0.033,0.546-0.228,4.039-0.228,4.039s-0.358-4.421-1.04-4.202
			C158.101,75.429,154.102,76.357,154.102,76.357z"/>
	</g>
	<g>
		<g>
			<path style="fill:#6A6B6D;" d="M188.663,78.523c0.123,0.138,0.195,0.276,0,0.465c-0.151,0.146-5.904,2.34-7.421,2.753
				c-1.517,0.413-4.428,0.275-4.428,0.275h-5.125h-7.585c0,0-5.084-0.677-6.558-3.131c-0.026-0.043-0.05-0.086-0.074-0.13
				c0.023-0.044,0.048-0.087,0.074-0.13c1.474-2.454,6.558-3.131,6.558-3.131h7.585h5.125c0,0,2.911-0.138,4.428,0.275
				C182.759,76.183,188.519,78.361,188.663,78.523z"/>
			<path style="fill:#3B3D3E;" d="M177.947,82.217c-0.634,0-1.094-0.021-1.141-0.023h-12.701c-0.235-0.03-5.212-0.719-6.713-3.218
				c-0.027-0.046-0.053-0.091-0.078-0.137c-0.028-0.052-0.028-0.114-0.001-0.166c0.025-0.046,0.051-0.092,0.078-0.137
				c1.502-2.5,6.478-3.189,6.689-3.217l12.734-0.001c0.111-0.006,2.949-0.134,4.476,0.282c1.249,0.34,7.293,2.565,7.508,2.807l0,0
				c0.222,0.249,0.219,0.488-0.009,0.709c-0.222,0.216-6.18,2.438-7.499,2.797C180.358,82.166,178.939,82.217,177.947,82.217z
				 M171.689,81.839h5.125c0.037,0.001,2.908,0.131,4.38-0.269c1.543-0.42,7.103-2.558,7.359-2.722
				c0.072-0.072,0.074-0.094-0.014-0.194c-0.379-0.23-5.823-2.298-7.345-2.712c-1.472-0.4-4.343-0.271-4.372-0.269h-12.719
				c-0.026,0.005-4.991,0.693-6.404,3.044c-0.008,0.013-0.015,0.026-0.023,0.039c0.008,0.013,0.016,0.026,0.024,0.04
				c1.411,2.35,6.377,3.038,6.427,3.044L171.689,81.839z"/>
		</g>
		<g>
			<path style="fill:#6A6B6D;" d="M188.663,78.523c0.123,0.138,0.195,0.276,0,0.465c-0.151,0.146-5.904,2.34-7.421,2.753
				c-1.517,0.413-4.428,0.275-4.428,0.275h-5.125h-7.585c0,0-5.084-0.677-6.558-3.131c-0.026-0.043-0.05-0.086-0.074-0.13
				c0.023-0.044,0.048-0.087,0.074-0.13c1.474-2.454,6.558-3.131,6.558-3.131h7.585h5.125c0,0,2.911-0.138,4.428,0.275
				C182.759,76.183,188.519,78.361,188.663,78.523z"/>
			<path style="fill:#3B3D3E;" d="M177.947,82.217c-0.634,0-1.094-0.021-1.141-0.023h-12.701c-0.235-0.03-5.212-0.719-6.713-3.218
				c-0.027-0.046-0.053-0.091-0.078-0.137c-0.028-0.052-0.028-0.114-0.001-0.166c0.025-0.046,0.051-0.092,0.078-0.137
				c1.502-2.5,6.478-3.189,6.689-3.217l12.734-0.001c0.111-0.006,2.949-0.134,4.476,0.282c1.249,0.34,7.293,2.565,7.508,2.807l0,0
				c0.222,0.249,0.219,0.488-0.009,0.709c-0.222,0.216-6.18,2.438-7.499,2.797C180.358,82.166,178.939,82.217,177.947,82.217z
				 M171.689,81.839h5.125c0.037,0.001,2.908,0.131,4.38-0.269c1.543-0.42,7.103-2.558,7.359-2.722
				c0.072-0.072,0.074-0.094-0.014-0.194c-0.379-0.23-5.823-2.298-7.345-2.712c-1.472-0.4-4.343-0.271-4.372-0.269h-12.719
				c-0.026,0.005-4.991,0.693-6.404,3.044c-0.008,0.013-0.015,0.026-0.023,0.039c0.008,0.013,0.016,0.026,0.024,0.04
				c1.411,2.35,6.377,3.038,6.427,3.044L171.689,81.839z"/>
		</g>
		<path style="fill:#7B816F;" d="M158.388,79.037c0,0,2.763,2.019,5.852,2.511c3.089,0.491,16.646,0,16.646,0l-16.126-0.819
			c0,0-0.455-0.164-0.423-0.709c0.033-0.546-0.228-4.039-0.228-4.039s-0.358,4.421-1.04,4.202S158.388,79.037,158.388,79.037z"/>
		<path style="opacity:0.53;fill:#797A7D;" d="M177.488,78.564c3.689,0.17,7.379,0.401,11.071,0.481
			c0.058-0.027,0.095-0.047,0.105-0.057c0.195-0.189,0.123-0.327,0-0.465c-0.145-0.162-5.904-2.34-7.421-2.753
			c-1.517-0.413-4.428-0.275-4.428-0.275h-12.71c0,0-4.822,0.643-6.435,2.944C159.575,78.128,175.057,78.452,177.488,78.564z"/>
	</g>
	<g>
		<g>
			<path style="fill:#5A5B5E;" d="M300.737,8.356l0.937-3.971h19.686v3.309C321.361,7.694,301.005,8.092,300.737,8.356z"/>
			<path style="fill:#3B3D3E;" d="M300.737,8.534c-0.03,0-0.06-0.007-0.087-0.022c-0.07-0.039-0.106-0.118-0.088-0.196l0.938-3.971
				c0.019-0.081,0.092-0.137,0.175-0.137h19.686c0.099,0,0.18,0.079,0.18,0.178v3.31c0,0.097-0.079,0.176-0.176,0.178
				c-7.911,0.154-19.866,0.451-20.538,0.639C300.798,8.526,300.768,8.534,300.737,8.534z M301.818,4.563l-0.848,3.594
				c1.994-0.236,11.815-0.472,20.212-0.636V4.563H301.818z"/>
		</g>
		<g>
			<path style="fill:#797A7D;" d="M321.628,1.473h-20.623c0,0-5.888,0.071-6.56,1.624c0,0-0.246,0.273,1.282,0.913
				c1.528,0.64,5.01,0.772,8.224,0.772H322.7c0,0,1.875,0,2.009-1.192C324.842,2.399,324.708,1.34,321.628,1.473z"/>
			<path style="fill:#3B3D3E;" d="M324.532,1.942c-0.478-0.505-1.401-0.712-2.908-0.647h-20.621
				c-0.613,0.007-5.994,0.118-6.717,1.718c-0.024,0.04-0.049,0.109-0.027,0.204c0.063,0.276,0.52,0.59,1.398,0.957
				c1.281,0.536,3.917,0.786,8.294,0.786h18.748c0.083,0,2.038-0.015,2.187-1.35C324.954,3.01,324.958,2.392,324.532,1.942z
				 M324.53,3.571c-0.115,1.018-1.813,1.033-1.83,1.033h-18.748c-4.268,0-6.935-0.248-8.154-0.758
				c-0.967-0.405-1.148-0.634-1.181-0.692c0.539-1.176,4.791-1.484,6.389-1.503h20.623c0.003,0,0.005,0,0.008,0
				c1.379-0.062,2.238,0.116,2.634,0.535C324.578,2.511,324.597,2.975,324.53,3.571z"/>
		</g>
		<path style="opacity:0.62;fill:#5A5B5E;" d="M321.628,1.473h-20.623c0,0-5.888,0.071-6.56,1.624c0,0-0.246,0.273,1.282,0.913
			c1.528,0.64,5.01,0.772,8.224,0.772H322.7c0,0,1.875,0,2.009-1.192C324.842,2.399,324.708,1.34,321.628,1.473z M322.314,3.134
			c-0.117,0.633-1.753,0.633-1.753,0.633h-16.359c-2.805,0-5.842-0.07-7.176-0.41c-1.333-0.34-1.119-0.485-1.119-0.485
			c0.586-0.825,5.724-0.863,5.724-0.863h17.995C322.314,1.938,322.431,2.501,322.314,3.134z"/>
		<g>
			<polygon style="fill:#797A7D;" points="270.74,55.087 300.068,6.635 322.252,6.635 318.95,63.426 			"/>
			<path style="fill:#3B3D3E;" d="M318.95,63.604c-0.01,0-0.021-0.001-0.031-0.003l-48.21-8.34c-0.058-0.01-0.108-0.048-0.133-0.101
				c-0.025-0.053-0.021-0.115,0.009-0.165l29.327-48.451c0.033-0.054,0.091-0.087,0.154-0.087h22.184
				c0.049,0,0.097,0.02,0.131,0.055c0.034,0.036,0.052,0.084,0.049,0.132l-3.302,56.791c-0.003,0.051-0.028,0.098-0.068,0.129
				C319.03,63.591,318.99,63.604,318.95,63.604z M271.029,54.956l47.753,8.261l3.28-56.404H300.17L271.029,54.956z"/>
		</g>
		<path style="fill:#4F5153;" d="M319.026,22.413c-1.473,6.731-3.215,13.405-5.216,20.002c-0.492,1.624-1.001,3.243-1.525,4.857
			c-0.465,1.429-0.866,2.913-1.582,4.244c-1.091,2.031-2.868,3.512-5.005,4.383c-2.22,0.905-4.662,1.173-7.04,1.312
			c-3.156,0.185-6.328,0.313-9.489,0.353c-1.438,0.018-2.876,0.006-4.313-0.035l34.094,5.898l3.302-56.791h-0.31
			C321.147,11.925,320.17,17.186,319.026,22.413z"/>
		<path style="fill:#797A7D;" d="M321.36,16.713h-27.185c-0.084,0-0.151-0.067-0.151-0.15c0-0.083,0.068-0.15,0.151-0.15h27.185
			c0.083,0,0.151,0.067,0.151,0.15C321.512,16.646,321.444,16.713,321.36,16.713z"/>
		<path style="fill:#797A7D;" d="M321.36,40.454h-41.692c-0.083,0-0.151-0.067-0.151-0.15c0-0.083,0.068-0.15,0.151-0.15h41.692
			c0.083,0,0.151,0.067,0.151,0.15C321.512,40.387,321.444,40.454,321.36,40.454z"/>
		<polygon style="opacity:0.3;fill:#797A7D;" points="308.594,48.423 316.45,26.36 322.859,26.36 319.754,50.63 		"/>
		<g>
			<polygon style="fill:#797A7D;" points="308.594,47.629 316.45,25.566 322.859,25.566 321.448,49.835 			"/>
			<path style="fill:#3B3D3E;" d="M321.448,50.013c-0.01,0-0.021-0.001-0.031-0.003l-12.854-2.206
				c-0.052-0.009-0.098-0.04-0.125-0.085c-0.027-0.045-0.032-0.1-0.014-0.149l7.856-22.063c0.025-0.071,0.093-0.119,0.169-0.119
				h6.409c0.049,0,0.097,0.02,0.131,0.056c0.034,0.036,0.052,0.084,0.049,0.132l-1.411,24.27c-0.003,0.05-0.027,0.098-0.068,0.129
				C321.527,50,321.488,50.013,321.448,50.013z M308.834,47.49l12.446,2.136l1.389-23.883h-6.091L308.834,47.49z"/>
		</g>
		<polygon style="fill:#797A7D;" points="308.594,47.629 316.45,25.566 322.859,25.566 317.254,26.272 		"/>
		<polygon style="fill:#797A7D;" points="270.74,55.087 300.068,6.635 322.252,6.635 300.559,7.562 271.722,54.954 		"/>
	</g>
	<g>
		<g>
			<path style="fill:#797A7D;" d="M296.184,58.131c0,0-9.374,3.177-9.642,5.031c-0.268,1.853,0.804,2.912,2.946,2.912
				c2.143,0,51.465,3.636,51.465,3.636s2.905-0.194,2.637-2.312C343.323,65.28,296.184,58.131,296.184,58.131z"/>
			<path style="fill:#3B3D3E;" d="M340.966,69.887c-0.519-0.036-49.366-3.636-51.477-3.636c-1.176,0-2.078-0.32-2.608-0.924
				c-0.474-0.541-0.648-1.278-0.516-2.191c0.275-1.906,8.791-4.845,9.761-5.173c0.028-0.01,0.057-0.012,0.086-0.008
				c0.118,0.018,11.922,1.811,23.607,3.84c23.767,4.126,23.901,5.183,23.951,5.581c0.072,0.569-0.062,1.063-0.398,1.466
				C342.598,69.768,341.032,69.883,340.966,69.887z M296.201,58.314c-2.609,0.887-9.275,3.449-9.481,4.873
				c-0.117,0.807,0.029,1.449,0.431,1.908c0.46,0.524,1.268,0.801,2.337,0.801c2.125,0,49.464,3.488,51.478,3.637
				c-0.011-0.001,1.454-0.11,2.127-0.918c0.271-0.325,0.378-0.727,0.318-1.195C342.971,65.936,314.239,61.05,296.201,58.314z"/>
		</g>
		<g>
			<path style="fill:#797A7D;" d="M296.184,58.131c0,0-9.374,3.177-9.642,5.031c-0.268,1.853,0.804,2.912,2.946,2.912
				c2.143,0,51.465,3.636,51.465,3.636s2.905-0.194,2.637-2.312C343.323,65.28,296.184,58.131,296.184,58.131z"/>
			<path style="fill:#3B3D3E;" d="M340.966,69.887c-0.519-0.036-49.366-3.636-51.477-3.636c-1.176,0-2.078-0.32-2.608-0.924
				c-0.474-0.541-0.648-1.278-0.516-2.191c0.275-1.906,8.791-4.845,9.761-5.173c0.028-0.01,0.057-0.012,0.086-0.008
				c0.118,0.018,11.922,1.811,23.607,3.84c23.767,4.126,23.901,5.183,23.951,5.581c0.072,0.569-0.062,1.063-0.398,1.466
				C342.598,69.768,341.032,69.883,340.966,69.887z M296.201,58.314c-2.609,0.887-9.275,3.449-9.481,4.873
				c-0.117,0.807,0.029,1.449,0.431,1.908c0.46,0.524,1.268,0.801,2.337,0.801c2.125,0,49.464,3.488,51.478,3.637
				c-0.011-0.001,1.454-0.11,2.127-0.918c0.271-0.325,0.378-0.727,0.318-1.195C342.971,65.936,314.239,61.05,296.201,58.314z"/>
		</g>
		<path style="opacity:0.3;fill:#797A7D;" d="M343.591,67.398c-0.268-2.118-47.406-9.267-47.406-9.267s-9.374,3.177-9.642,5.031
			c-0.268,1.853,0.804,2.912,2.946,2.912c2.143,0,51.465,3.636,51.465,3.636S343.858,69.516,343.591,67.398z M340.778,68.325
			l-52.361-5.957l8.236-3.707c0,0,45.732,7.876,45.732,8.671C342.385,68.126,340.778,68.325,340.778,68.325z"/>
		<path style="opacity:0.69;fill:#797A7D;" d="M320.177,67.056c-4.637-0.31-9.272-0.642-13.906-0.978
			c-4.539-0.33-9.076-0.714-13.589-1.297c-1.006-0.13-2.009-0.273-3.013-0.417c-0.606-0.087-1.227-0.165-1.801-0.387
			c-0.624-0.241-1.005-0.632-1.21-1.109c-0.058,0.101-0.101,0.199-0.115,0.293c-0.268,1.853,0.804,2.912,2.946,2.912
			c2.143,0,51.465,3.636,51.465,3.636s1.533-0.107,2.268-0.978C339.908,69.582,324.683,67.358,320.177,67.056z"/>
		<path style="fill:#797A7D;" d="M296.452,59.19l-5.848,2.515c0,0-0.625,0.353-0.223,0.485c0.402,0.132,49.727,5.825,49.727,5.825
			l-47.54-6.09c0,0-1.116-0.221-0.223-0.574C293.238,61,296.452,59.19,296.452,59.19z"/>
	</g>
	<g>
		<g>
			<path style="fill:#97979E;" d="M148.791,54.053c0,0-3.396-2.537-3.932,0.373c-0.536,2.909,1.071,5.403,5.357,6.442
				c0.767,0.186,55.977,8.936,59.458,9.144c3.482,0.208,54.169-0.617,54.169-0.617s5.022-0.007,5.289-0.838
				c0.268-0.831-20.623-10.183-20.623-10.183s-4.285-1.87-8.035-2.286C236.726,55.673,148.791,54.053,148.791,54.053z"/>
			<path style="fill:#3B3D3E;" d="M212.454,70.223c-1.428,0-2.403-0.01-2.789-0.033c-3.951-0.236-59.184-9.075-59.491-9.149
				c-4.085-0.99-6.086-3.413-5.491-6.647c0.139-0.753,0.475-1.237,1-1.439c1.167-0.451,2.857,0.698,3.169,0.922
				c2.663,0.049,87.968,1.628,91.644,2.035c3.734,0.414,8.044,2.282,8.087,2.301c0.054,0.024,5.285,2.367,10.417,4.782
				c10.52,4.95,10.391,5.352,10.305,5.618c-0.285,0.886-4.252,0.96-5.46,0.961C263.397,69.58,223.755,70.223,212.454,70.223z
				 M146.287,53.205c-0.167,0-0.327,0.025-0.474,0.081c-0.4,0.155-0.662,0.549-0.776,1.171c-0.565,3.069,1.29,5.284,5.223,6.238
				c0.306,0.074,55.935,8.931,59.426,9.139c3.436,0.204,53.648-0.609,54.155-0.617c2.283-0.003,4.822-0.261,5.102-0.675
				c-0.671-0.906-12.571-6.454-20.507-10.006c-0.041-0.018-4.302-1.864-7.981-2.272c-3.699-0.41-90.788-2.018-91.667-2.034
				c-0.038-0.001-0.075-0.013-0.105-0.036C148.667,54.184,147.342,53.205,146.287,53.205z M268.962,68.574h0.005H268.962z"/>
		</g>
		<g>
			<path style="fill:#797A7D;" d="M148.791,51.56c0,0-3.572-0.475-3.932,2.451c-0.268,2.182,4.553,3.325,5.357,3.325
				c0.803,0,56.245,11.222,59.726,11.43c3.482,0.208,58.923-0.104,58.923-0.104s1.473-1.455,0.268-2.598
				C268.434,65.4,248.51,55.88,248.51,55.88s-4.285-1.87-8.035-2.286C236.726,53.179,148.791,51.56,148.791,51.56z"/>
			<path style="fill:#3B3D3E;" d="M220.586,69.014c-5.68,0-9.789-0.02-10.654-0.071c-2.223-0.132-25.334-4.696-42.209-8.027
				c-9.202-1.817-17.15-3.386-17.509-3.402c-0.62,0-3.747-0.672-5.017-2.09c-0.404-0.45-0.577-0.933-0.515-1.434
				c0.1-0.818,0.45-1.461,1.039-1.911c1.184-0.905,2.915-0.716,3.084-0.696c1.369,0.025,87.987,1.625,91.691,2.036
				c3.734,0.414,8.044,2.281,8.087,2.3c2.048,0.978,19.975,9.554,20.675,10.217c0.347,0.329,0.525,0.714,0.529,1.143
				c0.009,0.904-0.762,1.676-0.794,1.709c-0.034,0.033-0.079,0.051-0.126,0.052C268.451,68.841,237.532,69.014,220.586,69.014z
				 M268.866,68.661h0.004H268.866z M148.253,51.709c-0.596,0-1.589,0.095-2.314,0.65c-0.509,0.39-0.812,0.952-0.901,1.672
				c-0.049,0.396,0.095,0.785,0.428,1.156c1.123,1.253,4.112,1.97,4.751,1.97c0.297,0,6.232,1.169,17.577,3.409
				c16.865,3.33,39.961,7.89,42.16,8.022c3.376,0.201,56.462-0.091,58.833-0.104c0.158-0.175,0.648-0.768,0.641-1.403
				c-0.004-0.33-0.145-0.629-0.419-0.889c-0.498-0.472-12.578-6.329-20.577-10.151c-0.037-0.016-4.298-1.861-7.977-2.269
				c-3.699-0.41-90.788-2.018-91.667-2.034c-0.007,0-0.014-0.001-0.021-0.001C148.761,51.735,148.56,51.709,148.253,51.709z"/>
		</g>
		<path style="opacity:0.4;fill:#797A7D;" d="M269.133,66.063C268.434,65.4,248.51,55.88,248.51,55.88s-4.285-1.87-8.035-2.286
			c-3.75-0.416-91.684-2.035-91.684-2.035s-3.572-0.475-3.931,2.451c-0.268,2.182,4.553,3.325,5.357,3.325
			c0.803,0,56.245,11.222,59.726,11.43c3.482,0.208,58.923-0.104,58.923-0.104S270.339,67.206,269.133,66.063z M234.715,64.108
			c0,0-35.565,0.2-37.798,0.067c-2.234-0.133-37.798-7.332-38.314-7.332s-3.608-0.733-3.436-2.133
			c0.23-1.877,2.522-1.572,2.522-1.572s56.409,1.039,58.814,1.305c2.405,0.267,5.154,1.466,5.154,1.466s12.781,6.107,13.229,6.532
			C235.66,63.175,234.715,64.108,234.715,64.108z"/>
		<path style="opacity:0.4;fill:#797A7D;" d="M245.564,56.278c6.527,2.563,22.766,10.193,21.733,12.392
			c1.004-0.006,1.568-0.009,1.568-0.009s1.473-1.455,0.268-2.598C268.434,65.4,248.51,55.88,248.51,55.88s-4.285-1.87-8.035-2.286
			c-0.769-0.085-5.082-0.221-11.449-0.383C235.832,54.346,239.147,53.758,245.564,56.278z"/>
		<path style="fill:#797A7D;" d="M176.999,65.165c-0.061,0-0.118-0.037-0.141-0.096c-0.007-0.019-0.699-1.853,0.872-2.7
			c0.022-0.012,0.047-0.018,0.072-0.018h84.635c0.084,0,0.151,0.067,0.151,0.15c0,0.083-0.068,0.15-0.151,0.15h-84.595
			c-1.294,0.728-0.727,2.247-0.702,2.312c0.03,0.077-0.009,0.164-0.087,0.193C177.036,65.161,177.018,65.165,176.999,65.165z"/>
	</g>
	<path style="fill:#3B3D3E;" d="M194.891,76.265c-0.541,0-1.137-0.071-1.434-0.343c-0.372-0.342-0.544-0.922-0.419-1.412
		c0.127-0.498,0.538-0.86,1.158-1.019c0.015-0.004,0.03-0.006,0.045-0.006h16.722c0.006-0.001,0.614-0.065,1.076,0.306
		c0.282,0.227,0.445,0.56,0.486,0.99c0.036,0.39-0.063,0.709-0.295,0.95c-0.467,0.484-1.301,0.449-1.336,0.45h-14.909
		C195.9,76.196,195.423,76.265,194.891,76.265z M194.265,73.841c-0.481,0.129-0.785,0.39-0.878,0.756
		c-0.105,0.412,0.079,0.847,0.315,1.064c0.348,0.318,1.569,0.272,2.257,0.167l14.945-0.002c0.014-0.001,0.715,0.026,1.068-0.341
		c0.159-0.165,0.223-0.385,0.196-0.671c-0.031-0.332-0.151-0.583-0.355-0.747c-0.347-0.279-0.825-0.229-0.829-0.227L194.265,73.841z
		"/>
	<path style="fill:#3B3D3E;" d="M224.888,76.265c-0.541,0-1.137-0.071-1.434-0.343c-0.372-0.342-0.544-0.922-0.419-1.412
		c0.127-0.498,0.538-0.86,1.158-1.019c0.015-0.004,0.03-0.006,0.045-0.006h16.722c0.006-0.001,0.614-0.065,1.076,0.306
		c0.282,0.227,0.445,0.56,0.486,0.99c0.036,0.39-0.063,0.709-0.295,0.95c-0.467,0.484-1.3,0.449-1.335,0.45h-14.909
		C225.897,76.196,225.42,76.265,224.888,76.265z M224.262,73.841c-0.481,0.129-0.784,0.39-0.878,0.756
		c-0.105,0.412,0.078,0.847,0.315,1.064c0.348,0.318,1.568,0.272,2.257,0.167l14.945-0.002c0.014-0.001,0.715,0.026,1.068-0.341
		c0.159-0.165,0.223-0.385,0.196-0.671c-0.031-0.331-0.15-0.581-0.353-0.745c-0.343-0.277-0.826-0.231-0.832-0.229L224.262,73.841z"
		/>
	<path style="opacity:0.55;fill:#3A3F40;" d="M125.929,22.324c0.559,1.885,1.07,3.783,1.538,5.692
		c0.479,1.001,0.771,2.075,0.766,3.184c0,0.041-0.005,0.079-0.006,0.119c0.09,0.419,0.18,0.837,0.265,1.256
		c0.095,0.467-0.397,0.739-0.732,0.616c-0.673,1.354-1.987,2.354-3.42,3.015c-2.382,1.099-5.024,1.566-7.609,1.926
		c-3.124,0.436-6.251,0.888-9.382,1.274c-9.839,1.212-19.783,1.595-29.69,1.26c-1.214-0.041-2.427-0.092-3.639-0.156
		c-0.805-0.043-1.617-0.038-2.415-0.16c-0.394-0.06-0.796-0.17-1.138-0.371c-0.14,0.138-0.28,0.272-0.42,0.412
		c0,0,17.23,3.707,41.067,2.383c23.837-1.324,44.46-7.413,44.46-7.413S141.913,25.418,125.929,22.324z"/>
	<path style="opacity:0.55;fill:#3A3F40;" d="M137.867,25.89c0.562,1.007,1.114,2.018,1.647,3.04
		c0.984,1.885,2.594,4.441,0.96,6.421c-1.143,1.385-3.164,2.017-4.831,2.506c-1.743,0.51-3.531,0.796-5.291,1.228
		c-6.092,1.493-12.264,2.579-18.502,3.267c-2.683,0.296-5.371,0.52-8.064,0.684c2.36-0.038,4.806-0.121,7.327-0.261
		c23.837-1.324,44.46-7.413,44.46-7.413S148.159,29.969,137.867,25.89z"/>
	<g>
		<path style="fill:#797A7D;" d="M98.538,39.538c-0.254-2.931-0.567-5.876-1.312-8.732c-0.52-1.993-1.272-3.986-2.488-5.663
			c-0.578,0.194-1.158,0.394-1.742,0.608c0.185,0.284,0.36,0.575,0.521,0.874c1.52,2.835,2.117,6.087,2.494,9.242
			c0.284,2.375,0.389,4.761,0.522,7.146c0.756,0.017,1.529,0.028,2.309,0.036C98.734,41.879,98.639,40.708,98.538,39.538z"/>
		<path style="fill:#3B3D3E;" d="M98.842,43.227c-0.001,0-0.001,0-0.002,0c-0.781-0.008-1.554-0.019-2.311-0.036
			c-0.094-0.002-0.17-0.075-0.175-0.168l-0.052-0.953c-0.11-2.03-0.224-4.129-0.469-6.182c-0.347-2.905-0.912-6.268-2.474-9.18
			c-0.149-0.278-0.317-0.56-0.513-0.861c-0.03-0.045-0.037-0.101-0.019-0.153c0.017-0.051,0.057-0.092,0.108-0.11
			c0.586-0.214,1.168-0.416,1.747-0.609c0.076-0.023,0.158,0.002,0.204,0.065c1.075,1.482,1.897,3.354,2.516,5.722
			c0.77,2.951,1.084,6.069,1.317,8.761l0,0l0.1,1.171c0.066,0.78,0.132,1.56,0.204,2.34c0.005,0.05-0.013,0.1-0.047,0.136
			C98.94,43.206,98.892,43.227,98.842,43.227z M96.703,42.839c0.638,0.014,1.287,0.023,1.942,0.03
			c-0.065-0.716-0.126-1.431-0.186-2.147l-0.1-1.17c-0.232-2.677-0.543-5.778-1.307-8.703c-0.592-2.268-1.372-4.068-2.383-5.496
			c-0.466,0.156-0.933,0.318-1.402,0.487c0.152,0.241,0.286,0.472,0.409,0.7c1.589,2.964,2.162,6.367,2.514,9.305
			c0.246,2.065,0.361,4.17,0.471,6.205L96.703,42.839z"/>
	</g>
	<g>
		<path style="fill:#797A7D;" d="M129.861,36.806c-0.406-3.047-1.059-6.01-1.909-8.962c-0.531-1.843-1.129-3.946-2.297-5.567
			c-0.601-0.113-1.204-0.219-1.811-0.312c0.166,0.274,0.326,0.553,0.472,0.84c1.429,2.809,2.125,6.001,2.855,9.043
			c0.72,3,1.223,6.075,1.295,9.16c0.623-0.09,1.237-0.183,1.847-0.276C130.178,39.421,130.035,38.111,129.861,36.806z"/>
		<path style="fill:#3B3D3E;" d="M128.466,41.185c-0.042,0-0.083-0.015-0.116-0.042c-0.039-0.033-0.063-0.081-0.064-0.132
			c-0.065-2.795-0.487-5.779-1.29-9.124l-0.173-0.722c-0.67-2.809-1.362-5.713-2.668-8.281c-0.133-0.261-0.285-0.533-0.465-0.828
			c-0.036-0.059-0.034-0.134,0.005-0.191c0.039-0.057,0.108-0.088,0.177-0.077c0.55,0.084,1.127,0.184,1.817,0.313
			c0.046,0.008,0.086,0.034,0.113,0.071c1.174,1.629,1.776,3.719,2.307,5.563l0.017,0.059c0.898,3.118,1.524,6.057,1.914,8.987
			c0.19,1.427,0.342,2.85,0.452,3.931c0.01,0.094-0.057,0.179-0.151,0.194c-0.61,0.094-1.225,0.187-1.848,0.277
			C128.483,41.185,128.474,41.185,128.466,41.185z M124.191,22.199c0.104,0.181,0.199,0.355,0.285,0.525
			c1.326,2.606,2.023,5.531,2.697,8.36l0.172,0.722c0.79,3.289,1.214,6.235,1.295,8.997c0.497-0.073,0.988-0.147,1.476-0.221
			c-0.109-1.056-0.254-2.403-0.434-3.753l0,0c-0.388-2.912-1.01-5.835-1.904-8.936l-0.017-0.059
			c-0.517-1.794-1.101-3.825-2.212-5.396C125.049,22.344,124.607,22.266,124.191,22.199z"/>
	</g>
	<path style="fill:#797A7D;" d="M7.73,56.278c0,0,36.559-11.517,57.852-13.768C65.582,42.51,29.826,52.836,7.73,56.278z"/>
	<g>
		<g>
			<path style="opacity:0.48;fill:#231F20;" d="M54.406,68.904c-3.19-12.088-0.033-25.25-0.001-25.382l0.393,0.094
				c-0.032,0.131-3.165,13.199-0.001,25.187L54.406,68.904z"/>
			<path style="opacity:0.48;fill:#231F20;" d="M100.646,61.296c-5.71,0-11.509-0.091-17.128-0.318
				c-19.798-0.797-30.377-3.246-30.482-3.271l0.094-0.388c0.104,0.025,10.65,2.465,30.404,3.26
				c29.244,1.177,63.467-1.298,63.81-1.324l0.03,0.398C147.098,59.674,124.683,61.296,100.646,61.296z"/>
		</g>
		<g>
			<path style="fill:#2F362B;" d="M53.199,46.747c0,0.161-0.132,0.291-0.294,0.291c-0.162,0-0.294-0.13-0.294-0.291
				c0-0.161,0.132-0.291,0.294-0.291C53.067,46.456,53.199,46.586,53.199,46.747z"/>
			<path style="fill:#2F362B;" d="M52.038,53.101c0,0.161-0.132,0.291-0.294,0.291c-0.162,0-0.294-0.13-0.294-0.291
				c0-0.16,0.132-0.291,0.294-0.291C51.906,52.81,52.038,52.94,52.038,53.101z"/>
			<path style="fill:#2F362B;" d="M52.127,59.014c0,0.161-0.132,0.291-0.294,0.291c-0.162,0-0.294-0.13-0.294-0.291
				c0-0.161,0.132-0.291,0.294-0.291C51.996,58.723,52.127,58.853,52.127,59.014z"/>
			<path style="fill:#2F362B;" d="M52.485,63.515c0,0.161-0.132,0.291-0.294,0.291c-0.162,0-0.294-0.13-0.294-0.291
				c0-0.161,0.132-0.291,0.294-0.291C52.353,63.224,52.485,63.354,52.485,63.515z"/>
			<path style="fill:#2F362B;" d="M53.556,67.99c0,0.161-0.132,0.291-0.294,0.291c-0.163,0-0.294-0.13-0.294-0.291
				s0.132-0.291,0.294-0.291C53.424,67.699,53.556,67.829,53.556,67.99z"/>
			<path style="fill:#2F362B;" d="M55.163,56.454c0,0.161-0.132,0.291-0.294,0.291c-0.163,0-0.294-0.13-0.294-0.291
				c0-0.161,0.132-0.291,0.294-0.291C55.031,56.164,55.163,56.294,55.163,56.454z"/>
			<path style="fill:#2F362B;" d="M62.1,57.69c0,0.161-0.132,0.291-0.294,0.291c-0.162,0-0.294-0.13-0.294-0.291
				c0-0.161,0.132-0.291,0.294-0.291C61.968,57.399,62.1,57.529,62.1,57.69z"/>
			<path style="fill:#2F362B;" d="M70.545,58.484c0,0.161-0.132,0.291-0.294,0.291c-0.163,0-0.294-0.13-0.294-0.291
				c0-0.161,0.132-0.291,0.294-0.291C70.413,58.194,70.545,58.324,70.545,58.484z"/>
			<ellipse style="fill:#2F362B;" cx="79.063" cy="59.014" rx="0.294" ry="0.291"/>
			<path style="fill:#2F362B;" d="M89.267,59.632c0,0.161-0.132,0.291-0.294,0.291c-0.162,0-0.294-0.13-0.294-0.291
				c0-0.161,0.132-0.291,0.294-0.291C89.135,59.341,89.267,59.471,89.267,59.632z"/>
			<path style="fill:#2F362B;" d="M98.551,59.896c0,0.161-0.132,0.291-0.294,0.291c-0.162,0-0.294-0.13-0.294-0.291
				c0-0.161,0.132-0.291,0.294-0.291C98.42,59.605,98.551,59.736,98.551,59.896z"/>
			<path style="fill:#2F362B;" d="M106.943,59.543c0,0.161-0.132,0.291-0.294,0.291s-0.294-0.13-0.294-0.291
				c0-0.161,0.132-0.291,0.294-0.291S106.943,59.383,106.943,59.543z"/>
			<path style="fill:#2F362B;" d="M117.478,59.279c0,0.161-0.132,0.291-0.294,0.291c-0.162,0-0.294-0.13-0.294-0.291
				c0-0.161,0.132-0.291,0.294-0.291C117.346,58.988,117.478,59.118,117.478,59.279z"/>
			<path style="fill:#2F362B;" d="M128.995,58.837c0,0.161-0.132,0.291-0.294,0.291c-0.162,0-0.294-0.13-0.294-0.291
				c0-0.161,0.132-0.291,0.294-0.291C128.863,58.547,128.995,58.677,128.995,58.837z"/>
			<path style="fill:#2F362B;" d="M140.422,58.308c0,0.161-0.132,0.291-0.294,0.291c-0.162,0-0.294-0.13-0.294-0.291
				c0-0.161,0.132-0.291,0.294-0.291C140.291,58.017,140.422,58.147,140.422,58.308z"/>
		</g>
	</g>
	<path style="fill:#797A7D;" d="M157.314,37.083l108.337,12.576C265.651,49.659,179.142,42.378,157.314,37.083z"/>
	<path style="opacity:0.5;fill:#797A7D;" d="M74.152,45.335c0,0,19.462,5.648,37.675,4.236c18.212-1.412,46.603-7.06,49.281-6.884
		c2.678,0.176-31.783,9.355-55.173,9.355S74.152,45.335,74.152,45.335z"/>
	<g>
		<g>
			<path style="fill:#797A7D;" d="M156.21,70.756h20.417c0,0,3.819,2.285,3.966,3.592c0.147,1.307-1.741,0.662-1.741,0.662
				s-25.587,0.31-26.248-0.198C151.944,74.303,154.521,71.119,156.21,70.756z"/>
			<path style="fill:#3B3D3E;" d="M179.761,75.348c-0.408,0-0.81-0.118-0.938-0.16c-4.352,0.052-25.655,0.281-26.33-0.237
				c-0.112-0.087-0.229-0.263-0.148-0.617c0.248-1.078,2.311-3.426,3.826-3.752c0.012-0.003,0.025-0.004,0.038-0.004h20.417
				c0.033,0,0.065,0.009,0.093,0.026c0.399,0.239,3.899,2.37,4.051,3.724c0.041,0.362-0.052,0.636-0.276,0.813
				C180.298,75.297,180.028,75.348,179.761,75.348z M178.852,74.832c0.02,0,0.04,0.003,0.058,0.01
				c0.27,0.091,1.04,0.275,1.361,0.021c0.123-0.097,0.169-0.26,0.143-0.496c-0.111-0.987-2.766-2.787-3.837-3.433H156.23
				c-1.332,0.303-3.311,2.514-3.533,3.479c-0.03,0.13-0.023,0.225,0.018,0.257c0.724,0.339,16.028,0.283,26.135,0.161
				C178.85,74.832,178.851,74.832,178.852,74.832z"/>
		</g>
		<g>
			<path style="fill:#797A7D;" d="M153.966,73.576h24.819c0,0,1.875-0.176,2.053,1.412c0.179,1.589-2.143,1.5-2.143,1.5h-22.141
				c0,0-2.768,0.353-3.571-0.265C152.18,75.605,151.913,74.017,153.966,73.576z"/>
			<path style="fill:#3B3D3E;" d="M154.922,76.77c-0.78,0-1.63-0.085-2.048-0.407c-0.504-0.387-0.764-1.062-0.631-1.639
				c0.087-0.377,0.421-1.05,1.686-1.322c0.012-0.003,0.025-0.004,0.038-0.004h24.819c0.694-0.066,2.075,0.176,2.232,1.57
				c0.048,0.427-0.062,0.785-0.325,1.066c-0.636,0.676-1.948,0.632-2.003,0.632h-22.134C156.421,76.684,155.706,76.77,154.922,76.77
				z M153.985,73.753c-0.782,0.172-1.277,0.544-1.392,1.049c-0.103,0.448,0.103,0.974,0.501,1.28
				c0.611,0.47,2.689,0.325,3.438,0.229l22.164-0.001c0.018-0.001,1.21,0.037,1.733-0.519c0.192-0.204,0.267-0.461,0.231-0.784
				c-0.157-1.393-1.788-1.26-1.858-1.255L153.985,73.753z"/>
		</g>
		<path style="opacity:0.45;fill:#797A7D;" d="M154.363,74.152h15.274c0,0,1.154-0.074,1.264,0.588
			c0.11,0.662-1.318,0.625-1.318,0.625h-13.626c0,0-1.703,0.147-2.198-0.11C153.264,74.997,153.099,74.336,154.363,74.152z"/>
	</g>
</g>
</svg>
