<?xml version="1.0" encoding="utf-8"?>
<!-- Generator: Adobe Illustrator 16.0.0, SVG Export Plug-In . SVG Version: 6.00 Build 0)  -->
<!DOCTYPE svg PUBLIC "-//W3C//DTD SVG 1.0//EN" "http://www.w3.org/TR/2001/REC-SVG-20010904/DTD/svg10.dtd">
<svg version="1.0" id="Layer_1" xmlns="http://www.w3.org/2000/svg" xmlns:xlink="http://www.w3.org/1999/xlink" x="0px" y="0px"
	 width="155.102px" height="52.041px" viewBox="0 0 155.102 52.041" enable-background="new 0 0 155.102 52.041"
	 xml:space="preserve">
<g>
	<path fill="#F7F8F9" stroke="#157BAE" stroke-miterlimit="10" d="M11.116,13.501c0.04-2.061-1.46-1.061-1.46-2.361
		c0-0.92,1.16-1.06,1.86-1.06h6.521c5.561,0,7.381,3.441,7.381,7.042c0,3.721-2.18,7.222-7.241,7.222c-0.86,0-1.581-0.02-2.201-0.06
		c-0.62-0.02-1.16-0.04-1.72-0.04s-1.14,0.02-1.701,0.04c-0.56,0.04-1.12,0.06-1.7,0.06c-0.68,0-1.54-0.34-1.54-1.14
		c0-1.44,1.58,0.16,1.64-2.761L11.116,13.501z M15.917,20.822c0,1.021,0.16,1.44,1.24,1.44c2.521,0,2.961-2.581,2.961-4.581
		c0-4.681-1.761-5.421-3.301-5.421c-0.84,0-0.9,0.34-0.9,1.1V20.822z"/>
	<path fill="#F7F8F9" stroke="#157BAE" stroke-miterlimit="10" d="M27.456,18.182c0-1.96-1.241-0.86-1.241-2.08
		c0-1.581,4.681-2.021,4.861-2.021c0.76,0,0.78,0.2,0.86,0.88c0.02,0.24,0,0.7,0.34,0.7c0.48,0,0.78-1.58,2.5-1.58
		c1.34,0,2.221,1,2.221,2.32c0,1.34-1.141,2.4-2.46,2.4c-1.3,0-1.661-1.14-2.181-1.14c-0.56,0-0.46,1.34-0.46,1.701
		c0,0.6,0.06,1.44,0.16,2.2c0.12,0.88,1.641,0.34,1.641,1.541c0,1.26-1.76,1.36-3.961,1.36c-0.92,0-3.641,0.04-3.641-1.34
		c0-0.84,0.92-0.84,1.14-1.541c0.16-0.5,0.22-1.64,0.22-2.2V18.182z"/>
	<path fill="#F7F8F9" stroke="#157BAE" stroke-miterlimit="10" d="M43.577,19.922c0,0.8,0.06,2.041,1.14,2.041
		c1.44,0,1.24-1.881,1.24-2.841c0-0.66,0.02-1.521-0.08-2.161c-0.16-1-1.14-0.66-1.14-1.5c0-1.18,4.021-1.38,4.781-1.38
		c0.72,0,1.021,0.42,1.021,1.12c0,0.64-0.04,1.26-0.04,1.9v4.021c0,1.2,1.1,0.64,1.1,1.6c0,1.36-3.541,1.741-4.641,1.741
		c-1.54,0-0.52-1.2-1.32-1.2c-0.22,0-0.54,0.3-1.02,0.6c-0.48,0.3-1.12,0.6-2,0.6c-3.801,0-3.48-3.001-3.48-6.001
		c0-3.061-1.38-1.72-1.38-3.041c0-1.28,5.041-1.34,5.201-1.34c0.56,0,0.62,0.26,0.62,0.76V19.922z"/>
	<path fill="#F7F8F9" stroke="#157BAE" stroke-miterlimit="10" d="M59.157,21.203c-0.08-0.12-0.561-0.8-0.76-0.8
		c-0.22,0-0.2,0.44-0.2,0.56c-0.06,1.78,0.82,1.18,0.82,2.121c0,0.56-0.14,1.38-3.261,1.38c-1.641,0-3.501,0.06-3.501-1.26
		c0-0.96,1.061-0.26,1.121-1.94c0.06-1.4,0.16-3.301,0.16-4.181v-2.86c0-1.621-1.54-0.541-1.54-1.681c0-1.34,4.521-2.32,5.581-2.32
		c0.54,0,0.58,0.32,0.56,0.76l-0.1,4.241c-0.04,1.28-0.04,1.78,0.44,1.78c0.32,0,1.6-0.68,1.6-0.98c0-0.28-0.4-0.44-0.4-0.84
		c0-1.04,2.041-1.1,2.74-1.1c0.82,0,3.001,0.02,3.001,1.26c0,0.9-0.74,0.48-1.94,1.22c-0.2,0.1-0.98,0.5-0.98,0.74
		c0,0.5,2.341,3.381,2.721,3.841c0.9,1.12,2,1.1,2,1.94c0,0.62-0.46,1.16-2,1.16h-2.821c-0.8,0-0.9-0.04-1.38-0.66L59.157,21.203z"
		/>
	<path fill="#F7F8F9" stroke="#157BAE" stroke-miterlimit="10" d="M79.476,20.902c0,1.94,0.68,1.601,0.68,2.361
		c0,1.24-2.66,1.2-3.48,1.2c-0.8,0-2.841,0-2.841-1.2c0-0.96,0.92-0.1,0.98-2.061l0.08-3.001c0.04-1.48-1.18-1-1.18-2.06
		c0-1.061,4.601-2.061,5.001-2.061c0.439,0,0.72,0.38,0.72,0.78c0,0.12-0.021,0.24-0.021,0.36c0,0.24,0.101,0.52,0.4,0.52
		c0.32,0,0.5-0.42,0.9-0.84c0.4-0.4,1-0.82,2.141-0.82c4.141,0,3.44,4.061,3.641,7.102c0.1,1.58,0.92,1.22,0.92,2.081
		c0,0.36,0.08,1.2-3.681,1.2c-0.72,0-2.641,0.04-2.641-1.081c0-0.72,0.66-0.38,0.761-1.68c0.1-1.42,0.66-4.621-1.221-4.621
		c-1.28,0-1.16,1.38-1.16,2.281V20.902z"/>
	<path fill="#F7F8F9" stroke="#157BAE" stroke-miterlimit="10" d="M92.896,19.642c-0.221,0-0.541-0.06-0.541,0.28
		c0,1,1.301,1.84,2.24,1.84c1.501,0,2.241-0.9,2.661-0.9s0.78,0.62,0.78,1c0,1.54-2.82,2.661-4.621,2.661
		c-3.601,0-5.461-2.601-5.461-5.181c0-3.081,2.62-5.321,5.621-5.321c3.4,0,4.9,2.621,4.9,4.121c0,1.32-0.6,1.5-1.24,1.5H92.896z
		 M94.636,17.122c0-0.72-0.44-1.28-1.181-1.28c-0.66,0-1.2,0.68-1.2,1.32c0,0.72,0.68,0.56,1.2,0.56
		C93.996,17.722,94.636,17.842,94.636,17.122z"/>
	<path fill="#F7F8F9" stroke="#157BAE" stroke-miterlimit="10" d="M105.236,19.922c0,1.34,0.561,1.66,1.1,1.66
		c0.621,0,0.98-0.46,1.341-0.46c0.399,0,0.681,0.56,0.681,0.92c0,1.32-2.281,2.481-4.301,2.481c-1.021,0-3.582-0.44-3.582-3.621
		v-4.121c0-0.36,0-0.5-0.1-0.56c-0.1-0.06-0.32-0.02-0.779-0.02c-0.521,0-0.781,0.02-0.881-0.08c-0.141-0.14-0.1-0.34-0.1-0.8
		c0-0.28-0.061-0.5,0.18-0.66l4.561-2.9c0.461-0.28,0.44-0.22,1.041-0.22c0.8,0,0.84-0.08,0.84,0.84c0,0.62-0.04,1.24,0.061,1.48
		c0.06,0.16,0.199,0.16,0.72,0.16h1.399c0.861,0,0.861,0.06,0.861,0.96c0,1.141-0.141,1.221-0.92,1.221h-1.381
		c-0.7,0-0.74,0.02-0.74,0.74V19.922z"/>
	<path fill="#F7F8F9" stroke="#157BAE" stroke-miterlimit="10" d="M127.197,20.862c0,1.4,1.061,0.94,1.061,1.98
		c0,1.521-4.381,1.621-4.602,1.621c-1.02,0-0.3-1.101-0.96-1.101c-0.181,0-0.48,0.28-0.94,0.58c-0.46,0.28-1.08,0.581-1.961,0.581
		c-2.62,0-4.66-2.781-4.66-5.241c0-2.661,2.16-5.261,4.921-5.261c1.38,0,2.16,0.6,2.38,0.6c0.301,0,0.32-0.66,0.32-0.88
		c0-1.24-1.46-0.58-1.46-1.66c0-1.48,5.101-1.86,5.161-1.86c0.6,0,0.74,0.42,0.74,1.08V20.862z M121.615,16.202
		c-1.34,0-1.58,2.3-1.58,3.241c0,0.94,0.24,2.58,1.48,2.58c1.34,0,1.261-2.46,1.261-3.34
		C122.776,17.902,122.776,16.202,121.615,16.202z"/>
	<path fill="#F7F8F9" stroke="#157BAE" stroke-miterlimit="10" d="M134.555,20.542c0,2.36,1.181,1.5,1.181,2.561
		c0,1.36-2.541,1.36-3.441,1.36c-3.44,0-3.58-0.78-3.58-1.26c0-0.72,0.82-0.76,1.061-1.38c0.26-0.7,0.299-3.601,0.08-4.341
		c-0.181-0.7-1.201-0.48-1.201-1.38c0-1.42,5.082-2.021,5.281-2.021c0.601,0,0.62,0.46,0.62,0.88V20.542z M130.595,13.441
		c-0.841,0-1.741-0.38-1.741-1.36c0-1.32,2.641-1.86,3.661-1.86c0.8,0,1.94,0.26,1.94,1.26
		C134.456,13.041,131.735,13.441,130.595,13.441z"/>
	<path fill="#F7F8F9" stroke="#157BAE" stroke-miterlimit="10" d="M141.236,19.642c-0.221,0-0.541-0.06-0.541,0.28
		c0,1,1.301,1.84,2.24,1.84c1.501,0,2.241-0.9,2.661-0.9s0.78,0.62,0.78,1c0,1.54-2.82,2.661-4.621,2.661
		c-3.601,0-5.461-2.601-5.461-5.181c0-3.081,2.62-5.321,5.621-5.321c3.4,0,4.9,2.621,4.9,4.121c0,1.32-0.6,1.5-1.24,1.5H141.236z
		 M142.976,17.122c0-0.72-0.44-1.28-1.181-1.28c-0.66,0-1.2,0.68-1.2,1.32c0,0.72,0.68,0.56,1.2,0.56
		C142.335,17.722,142.976,17.842,142.976,17.122z"/>
	<path fill="#F7F8F9" stroke="#157BAE" stroke-miterlimit="10" d="M27.307,32.141c0.36,0.06,0.68,0.14,0.82,0.14
		c0.2,0,0.36-0.06,0.54-0.14c0.18-0.06,0.36-0.12,0.54-0.12c0.92,0,1.84,1.84,1.84,2.66c0,0.541-0.46,0.94-0.98,0.94
		c-1.141,0-1.781-1.58-2.661-1.58c-0.36,0-0.72,0.3-0.72,0.681c0,1.279,4.401,1.52,4.401,4.621c0,1.88-1.82,3.18-3.901,3.18
		c-0.4,0-0.98-0.06-1.48-0.14c-0.5-0.06-0.94-0.12-1.06-0.12c-0.14,0-0.26,0.02-0.4,0.04c-0.12,0.021-0.24,0.04-0.38,0.04
		c-0.4,0-0.6-0.061-0.88-0.381c-0.5-0.56-1-1.699-1-2.46c0-0.521,0.18-0.94,0.76-0.94c0.88,0,1.68,1.98,2.801,1.98
		c0.4,0,0.78-0.199,0.78-0.64c0-1.181-3.921-1.32-3.921-4.621c0-2.001,1.64-3.261,3.701-3.261
		C26.506,32.021,26.927,32.061,27.307,32.141z"/>
	<path fill="#F7F8F9" stroke="#157BAE" stroke-miterlimit="10" d="M33.306,38.283c0-2.102-0.12-2.561-0.22-2.661
		c-0.26-0.26-1.34,0-1.34-1.14c0-1.361,4.121-2.4,5.601-2.4c0.48,0,0.56,0.16,0.56,0.6c0,0.141,0.02,0.42,0.22,0.42
		c0.28,0,1.4-1.08,3.041-1.08c2.621,0,4.021,2.621,4.021,4.961c0,2.681-1.9,5.541-4.821,5.541c-0.94,0-1.88-0.5-2.061-0.5
		c-0.28,0-0.32,0.42-0.32,0.641c0,1.52,1.24,1.04,1.24,2.02c0,1.121-1.82,1.261-2.601,1.261c-2.681,0-4.781-0.979-4.781-2.001
		c0-0.899,0.82-0.56,1.18-1.34c0.2-0.42,0.28-1,0.28-3.221V38.283z M38.787,34.982c-0.72,0-0.96,0.3-0.96,3.94
		c0,0.66,0.32,0.9,1.021,0.9c1.24,0,1.4-1.341,1.4-2.301S40.047,34.982,38.787,34.982z"/>
	<path fill="#F7F8F9" stroke="#157BAE" stroke-miterlimit="10" d="M55.967,37.462c0,3.521,1.2,1.6,1.2,2.68
		c0,1.141-1.561,2.381-3.021,2.381c-1.581,0-1.621-1.02-2.121-1.02c-0.24,0-0.5,0.26-0.94,0.5c-0.44,0.26-1.04,0.52-1.96,0.52
		c-1.66,0-3.32-0.88-3.32-2.86c0-1.421,1.36-3.181,4.881-3.181c0.62,0,0.9,0.04,0.9-0.68c0-0.66-0.02-2.041-0.94-2.041
		c-1.2,0-1.32,2.16-3.101,2.16c-0.64,0-1.12-0.459-1.12-1.1c0-1.701,3.38-2.801,5.281-2.801c1.141,0,4.261,0.439,4.261,3.441V37.462
		z M49.966,39.222c0,0.521,0.28,1.08,0.86,1.08c0.76,0,0.82-0.82,0.82-1.42c0-0.439,0.02-0.939-0.54-0.939
		C50.426,37.943,49.966,38.583,49.966,39.222z"/>
	<path fill="#F7F8F9" stroke="#157BAE" stroke-miterlimit="10" d="M63.226,32.141c0.36,0.06,0.68,0.14,0.82,0.14
		c0.2,0,0.36-0.06,0.54-0.14c0.18-0.06,0.36-0.12,0.54-0.12c0.92,0,1.84,1.84,1.84,2.66c0,0.541-0.46,0.94-0.98,0.94
		c-1.141,0-1.781-1.58-2.661-1.58c-0.36,0-0.72,0.3-0.72,0.681c0,1.279,4.401,1.52,4.401,4.621c0,1.88-1.82,3.18-3.901,3.18
		c-0.4,0-0.98-0.06-1.48-0.14c-0.5-0.06-0.94-0.12-1.06-0.12c-0.14,0-0.26,0.02-0.4,0.04c-0.12,0.021-0.24,0.04-0.38,0.04
		c-0.4,0-0.6-0.061-0.88-0.381c-0.5-0.56-1-1.699-1-2.46c0-0.521,0.18-0.94,0.76-0.94c0.88,0,1.68,1.98,2.801,1.98
		c0.4,0,0.78-0.199,0.78-0.64c0-1.181-3.92-1.32-3.92-4.621c0-2.001,1.64-3.261,3.701-3.261
		C62.426,32.021,62.846,32.061,63.226,32.141z"/>
	<path fill="#F7F8F9" stroke="#157BAE" stroke-miterlimit="10" d="M73.566,38.542c0,2.36,1.181,1.5,1.181,2.561
		c0,1.36-2.541,1.36-3.441,1.36c-3.441,0-3.581-0.78-3.581-1.261c0-0.72,0.82-0.76,1.06-1.38c0.26-0.7,0.3-3.601,0.08-4.341
		c-0.18-0.7-1.2-0.48-1.2-1.381c0-1.42,5.081-2.02,5.281-2.02c0.601,0,0.62,0.459,0.62,0.879V38.542z M69.605,31.441
		c-0.84,0-1.741-0.381-1.741-1.36c0-1.32,2.641-1.86,3.661-1.86c0.8,0,1.94,0.26,1.94,1.26
		C73.466,31.041,70.746,31.441,69.605,31.441z"/>
	<path fill="#F7F8F9" stroke="#157BAE" stroke-miterlimit="10" d="M80.246,37.642c-0.22,0-0.539-0.061-0.539,0.28
		c0,1,1.3,1.841,2.24,1.841c1.5,0,2.24-0.9,2.66-0.9s0.78,0.619,0.78,1c0,1.54-2.821,2.66-4.621,2.66
		c-3.601,0-5.461-2.6-5.461-5.181c0-3.081,2.621-5.321,5.622-5.321c3.4,0,4.901,2.621,4.901,4.121c0,1.32-0.601,1.5-1.24,1.5H80.246
		z M81.986,35.122c0-0.72-0.439-1.28-1.18-1.28c-0.66,0-1.2,0.68-1.2,1.32c0,0.721,0.681,0.561,1.2,0.561
		C81.346,35.722,81.986,35.841,81.986,35.122z"/>
	<path fill="#F7F8F9" stroke="#157BAE" stroke-miterlimit="10" d="M91.946,32.941c0,0.1-0.021,0.32,0.14,0.32
		c0.101,0,0.42-0.32,0.94-0.62c0.521-0.319,1.22-0.62,2.101-0.62c2.121,0,3.921,1.78,3.921,4.421c0,3.421-2.561,6.081-6.001,6.081
		c-2.521,0-3.701-1.3-4.021-1.3s-0.641,0.3-1.301,0.3c-0.279,0-0.6-0.08-0.6-0.4s0.4-0.96,0.4-3.561v-5.32
		c0-1.161-1.5-0.641-1.5-1.781c0-1.34,3.881-2.24,5.541-2.24c0.54,0,0.52,0.42,0.5,0.86L91.946,32.941z M92.966,35.101
		c-0.881,0-0.98,0.721-0.98,1.4c0,3.881,0.22,4.201,1.02,4.201c1.32,0,1.541-1.5,1.541-2.521
		C94.546,37.242,94.287,35.101,92.966,35.101z"/>
	<path fill="#F7F8F9" stroke="#157BAE" stroke-miterlimit="10" d="M109.847,37.462c0,3.521,1.199,1.6,1.199,2.68
		c0,1.141-1.561,2.381-3.02,2.381c-1.581,0-1.621-1.02-2.121-1.02c-0.24,0-0.5,0.26-0.94,0.5c-0.44,0.26-1.04,0.52-1.96,0.52
		c-1.66,0-3.32-0.88-3.32-2.86c0-1.421,1.359-3.181,4.881-3.181c0.619,0,0.9,0.04,0.9-0.68c0-0.66-0.021-2.041-0.941-2.041
		c-1.199,0-1.32,2.16-3.1,2.16c-0.641,0-1.121-0.459-1.121-1.1c0-1.701,3.381-2.801,5.281-2.801c1.141,0,4.262,0.439,4.262,3.441
		V37.462z M103.845,39.222c0,0.521,0.28,1.08,0.86,1.08c0.761,0,0.819-0.82,0.819-1.42c0-0.439,0.021-0.939-0.539-0.939
		C104.305,37.943,103.845,38.583,103.845,39.222z"/>
	<path fill="#F7F8F9" stroke="#157BAE" stroke-miterlimit="10" d="M117.585,38.663c0,0.36-0.02,1.021,0.08,1.341
		c0.221,0.719,1.12,0.379,1.12,1.22c0,1.341-2.44,1.24-3.301,1.24c-0.899,0-3.7,0.101-3.7-1.32c0-0.7,0.859-0.44,1.1-1.181
		c0.26-0.82,0.26-3.32,0.26-4.301c0-0.779,0.041-2.28-0.14-3.181c-0.3-1.479-1.479-0.96-1.479-2.101c0-1.74,5.201-2.16,5.48-2.16
		c0.68,0,0.84,0.44,0.84,1.04c0,0.46-0.26,2.661-0.26,5.521V38.663z"/>
	<path fill="#F7F8F9" stroke="#157BAE" stroke-miterlimit="10" d="M126.366,39.203c-0.08-0.12-0.561-0.801-0.761-0.801
		c-0.22,0-0.199,0.44-0.199,0.561c-0.061,1.78,0.82,1.18,0.82,2.121c0,0.56-0.141,1.38-3.262,1.38c-1.641,0-3.5,0.06-3.5-1.261
		c0-0.96,1.061-0.26,1.12-1.939c0.06-1.4,0.159-3.301,0.159-4.182v-2.86c0-1.62-1.539-0.54-1.539-1.681c0-1.34,4.521-2.32,5.58-2.32
		c0.541,0,0.58,0.32,0.561,0.76l-0.1,4.241c-0.041,1.28-0.041,1.78,0.439,1.78c0.32,0,1.601-0.68,1.601-0.98
		c0-0.279-0.399-0.439-0.399-0.84c0-1.04,2.04-1.1,2.74-1.1c0.82,0,3,0.02,3,1.26c0,0.9-0.74,0.48-1.939,1.221
		c-0.201,0.1-0.98,0.5-0.98,0.74c0,0.5,2.34,3.381,2.721,3.84c0.9,1.121,2,1.101,2,1.941c0,0.619-0.46,1.16-2,1.16h-2.821
		c-0.8,0-0.899-0.041-1.38-0.66L126.366,39.203z"/>
	<path fill="#F7F8F9" stroke="#157BAE" stroke-miterlimit="10" d="M139.044,34.841c-0.18,0.381-0.88,1.681-1.38,1.681
		s-1.2-1.3-1.38-1.681c-0.561-1.1-1.021-2.6-1.021-3.84c0-1.48,0.7-3.062,2.4-3.062s2.4,1.581,2.4,3.062
		C140.065,32.242,139.605,33.742,139.044,34.841z M137.665,42.523c-1.22,0-2.221-1-2.221-2.221c0-1.22,1.001-2.221,2.221-2.221
		s2.22,1.001,2.22,2.221C139.884,41.523,138.884,42.523,137.665,42.523z"/>
</g>
</svg>
