<?xml version="1.0" encoding="utf-8"?>
<!-- Generator: Adobe Illustrator 16.0.0, SVG Export Plug-In . SVG Version: 6.00 Build 0)  -->
<!DOCTYPE svg PUBLIC "-//W3C//DTD SVG 1.0//EN" "http://www.w3.org/TR/2001/REC-SVG-20010904/DTD/svg10.dtd">
<svg version="1.0" id="Layer_1" xmlns="http://www.w3.org/2000/svg" xmlns:xlink="http://www.w3.org/1999/xlink" x="0px" y="0px"
	 width="792px" height="612px" viewBox="0 0 792 612" enable-background="new 0 0 792 612" xml:space="preserve">
<g>
	<path d="M112.599,195.069c2.439-0.368,5.338-0.645,8.514-0.645c5.752,0,9.849,1.334,12.564,3.866
		c2.761,2.531,4.372,6.121,4.372,11.137c0,5.062-1.564,9.204-4.464,12.057c-2.899,2.899-7.686,4.464-13.714,4.464
		c-2.853,0-5.246-0.138-7.271-0.368V195.069z M116.603,222.497c1.012,0.184,2.485,0.23,4.05,0.23c8.56,0,13.208-4.786,13.208-13.162
		c0.046-7.317-4.096-11.966-12.563-11.966c-2.071,0-3.636,0.185-4.694,0.415V222.497z"/>
	<path d="M143.108,210.348c0-2.623-0.046-4.878-0.184-6.949h3.544l0.138,4.372h0.184c1.013-2.991,3.452-4.878,6.167-4.878
		c0.46,0,0.782,0.046,1.15,0.138v3.82c-0.414-0.092-0.829-0.138-1.38-0.138c-2.854,0-4.878,2.163-5.431,5.2
		c-0.092,0.552-0.184,1.197-0.184,1.887v11.874h-4.004V210.348z"/>
	<path d="M176.794,219.598c0,2.301,0.046,4.326,0.185,6.075h-3.59l-0.23-3.636h-0.092c-1.059,1.795-3.405,4.142-7.363,4.142
		c-3.498,0-7.686-1.933-7.686-9.756v-13.024h4.05v12.333c0,4.234,1.289,7.087,4.971,7.087c2.715,0,4.602-1.887,5.338-3.682
		c0.23-0.599,0.368-1.335,0.368-2.071v-13.668h4.05V219.598z"/>
	<path d="M187.515,213.615h0.092c0.552-0.783,1.334-1.749,1.979-2.531l6.535-7.686h4.878l-8.605,9.158l9.802,13.116h-4.924
		l-7.686-10.677l-2.071,2.301v8.375h-4.004v-32.674h4.004V213.615z"/>
	<path d="M214.849,209.427c0-2.301-0.046-4.188-0.184-6.029h3.59l0.23,3.682h0.092c1.104-2.117,3.682-4.188,7.363-4.188
		c3.083,0,7.87,1.841,7.87,9.48v13.3h-4.05v-12.84c0-3.589-1.334-6.581-5.154-6.581c-2.669,0-4.74,1.887-5.43,4.142
		c-0.184,0.506-0.276,1.196-0.276,1.887v13.392h-4.05V209.427z"/>
	<path d="M242.644,215.271c0.092,5.477,3.589,7.731,7.639,7.731c2.899,0,4.648-0.506,6.167-1.15l0.69,2.899
		c-1.427,0.645-3.866,1.381-7.409,1.381c-6.857,0-10.953-4.51-10.953-11.229c0-6.719,3.958-12.011,10.447-12.011
		c7.271,0,9.204,6.397,9.204,10.493c0,0.829-0.092,1.473-0.138,1.887H242.644z M254.517,212.373
		c0.046-2.577-1.059-6.581-5.614-6.581c-4.096,0-5.891,3.774-6.213,6.581H254.517z"/>
	<path d="M268.321,197.001v6.397h5.798v3.083h-5.798v12.011c0,2.761,0.782,4.326,3.037,4.326c1.059,0,1.841-0.138,2.347-0.276
		l0.184,3.037c-0.782,0.322-2.025,0.553-3.589,0.553c-1.887,0-3.406-0.599-4.372-1.703c-1.15-1.196-1.565-3.175-1.565-5.798v-12.149
		h-3.452v-3.083h3.452v-5.338L268.321,197.001z"/>
	<path d="M307.666,192.998v26.922c0,1.979,0.046,4.234,0.184,5.752h-3.636l-0.184-3.866h-0.092
		c-1.243,2.485-3.958,4.372-7.594,4.372c-5.384,0-9.526-4.556-9.526-11.321c-0.046-7.409,4.556-11.965,9.987-11.965
		c3.405,0,5.707,1.611,6.719,3.406h0.092v-13.3H307.666z M303.616,212.464c0-0.506-0.046-1.196-0.184-1.703
		c-0.598-2.577-2.807-4.694-5.845-4.694c-4.188,0-6.673,3.682-6.673,8.606c0,4.51,2.209,8.238,6.581,8.238
		c2.715,0,5.201-1.795,5.937-4.832c0.138-0.552,0.184-1.104,0.184-1.749V212.464z"/>
	<path d="M318.894,197.14c0.046,1.381-0.967,2.485-2.577,2.485c-1.427,0-2.439-1.104-2.439-2.485c0-1.427,1.059-2.531,2.531-2.531
		C317.927,194.608,318.894,195.713,318.894,197.14z M314.383,225.672v-22.274h4.05v22.274H314.383z"/>
	<path d="M327.406,215.271c0.092,5.477,3.589,7.731,7.639,7.731c2.899,0,4.648-0.506,6.167-1.15l0.69,2.899
		c-1.427,0.645-3.866,1.381-7.409,1.381c-6.857,0-10.953-4.51-10.953-11.229c0-6.719,3.958-12.011,10.447-12.011
		c7.271,0,9.204,6.397,9.204,10.493c0,0.829-0.092,1.473-0.138,1.887H327.406z M339.279,212.373
		c0.046-2.577-1.059-6.581-5.614-6.581c-4.096,0-5.891,3.774-6.213,6.581H339.279z"/>
	<path d="M357.409,221.53c1.197,0.783,3.313,1.611,5.338,1.611c2.945,0,4.326-1.473,4.326-3.313c0-1.933-1.15-2.991-4.142-4.096
		c-4.003-1.427-5.891-3.636-5.891-6.305c0-3.59,2.899-6.535,7.686-6.535c2.255,0,4.234,0.645,5.477,1.381l-1.013,2.945
		c-0.875-0.552-2.485-1.289-4.556-1.289c-2.393,0-3.728,1.38-3.728,3.037c0,1.841,1.335,2.669,4.234,3.774
		c3.866,1.473,5.845,3.405,5.845,6.719c0,3.912-3.038,6.673-8.33,6.673c-2.439,0-4.694-0.599-6.259-1.519L357.409,221.53z"/>
	<path d="M376.184,210.67c0-2.854-0.092-5.154-0.184-7.271h3.636l0.184,3.82h0.092c1.657-2.715,4.28-4.326,7.916-4.326
		c5.384,0,9.434,4.556,9.434,11.321c0,8.007-4.878,11.965-10.124,11.965c-2.945,0-5.522-1.289-6.857-3.498h-0.092v12.103h-4.004
		V210.67z M380.188,216.606c0,0.598,0.092,1.15,0.184,1.657c0.736,2.807,3.175,4.74,6.075,4.74c4.28,0,6.765-3.497,6.765-8.605
		c0-4.464-2.347-8.284-6.627-8.284c-2.761,0-5.338,1.979-6.121,5.016c-0.138,0.506-0.276,1.104-0.276,1.657V216.606z"/>
	<path d="M414.701,225.672l-0.322-2.807h-0.139c-1.242,1.749-3.635,3.313-6.811,3.313c-4.51,0-6.812-3.176-6.812-6.397
		c0-5.384,4.786-8.33,13.393-8.284v-0.46c0-1.841-0.507-5.154-5.063-5.154c-2.071,0-4.233,0.644-5.799,1.656l-0.92-2.669
		c1.841-1.196,4.51-1.979,7.317-1.979c6.811,0,8.468,4.648,8.468,9.112v8.33c0,1.933,0.092,3.82,0.368,5.338H414.701z
		 M414.103,214.305c-4.418-0.092-9.435,0.69-9.435,5.016c0,2.624,1.749,3.866,3.82,3.866c2.899,0,4.74-1.841,5.384-3.728
		c0.139-0.414,0.23-0.875,0.23-1.289V214.305z"/>
	<path d="M423.995,221.53c1.196,0.783,3.313,1.611,5.338,1.611c2.945,0,4.326-1.473,4.326-3.313c0-1.933-1.15-2.991-4.142-4.096
		c-4.004-1.427-5.891-3.636-5.891-6.305c0-3.59,2.898-6.535,7.686-6.535c2.255,0,4.233,0.645,5.476,1.381l-1.012,2.945
		c-0.875-0.552-2.485-1.289-4.557-1.289c-2.393,0-3.728,1.38-3.728,3.037c0,1.841,1.335,2.669,4.234,3.774
		c3.865,1.473,5.844,3.405,5.844,6.719c0,3.912-3.037,6.673-8.329,6.673c-2.439,0-4.694-0.599-6.259-1.519L423.995,221.53z"/>
	<path d="M447.28,197.14c0.046,1.381-0.966,2.485-2.577,2.485c-1.426,0-2.438-1.104-2.438-2.485c0-1.427,1.059-2.531,2.531-2.531
		C446.314,194.608,447.28,195.713,447.28,197.14z M442.771,225.672v-22.274h4.05v22.274H442.771z"/>
	<path d="M455.793,215.271c0.092,5.477,3.59,7.731,7.64,7.731c2.899,0,4.648-0.506,6.167-1.15l0.69,2.899
		c-1.427,0.645-3.866,1.381-7.409,1.381c-6.857,0-10.953-4.51-10.953-11.229c0-6.719,3.957-12.011,10.446-12.011
		c7.271,0,9.204,6.397,9.204,10.493c0,0.829-0.092,1.473-0.138,1.887H455.793z M467.666,212.373
		c0.047-2.577-1.058-6.581-5.614-6.581c-4.096,0-5.891,3.774-6.213,6.581H467.666z"/>
	<path d="M476.409,225.672c0.092-1.519,0.184-3.774,0.184-5.752v-26.922h4.004v13.99h0.092c1.427-2.485,4.004-4.096,7.594-4.096
		c5.522,0,9.435,4.602,9.388,11.367c0,7.961-5.016,11.919-9.986,11.919c-3.221,0-5.799-1.243-7.455-4.188h-0.138l-0.185,3.682
		H476.409z M480.597,216.744c0,0.506,0.092,1.013,0.185,1.473c0.782,2.808,3.129,4.74,6.074,4.74c4.234,0,6.765-3.451,6.765-8.56
		c0-4.464-2.301-8.284-6.627-8.284c-2.761,0-5.338,1.887-6.166,4.97c-0.093,0.46-0.23,1.012-0.23,1.657V216.744z"/>
	<path d="M515.11,225.672l-0.322-2.807h-0.139c-1.242,1.749-3.636,3.313-6.811,3.313c-4.51,0-6.812-3.176-6.812-6.397
		c0-5.384,4.786-8.33,13.393-8.284v-0.46c0-1.841-0.507-5.154-5.063-5.154c-2.071,0-4.234,0.644-5.799,1.656l-0.92-2.669
		c1.841-1.196,4.51-1.979,7.317-1.979c6.811,0,8.468,4.648,8.468,9.112v8.33c0,1.933,0.092,3.82,0.368,5.338H515.11z
		 M514.512,214.305c-4.418-0.092-9.435,0.69-9.435,5.016c0,2.624,1.749,3.866,3.82,3.866c2.899,0,4.74-1.841,5.384-3.728
		c0.139-0.414,0.23-0.875,0.23-1.289V214.305z"/>
	<path d="M524.956,192.998h4.05v32.674h-4.05V192.998z"/>
	<path d="M539.82,213.615h0.092c0.553-0.783,1.335-1.749,1.979-2.531l6.534-7.686h4.879l-8.606,9.158l9.803,13.116h-4.925
		l-7.685-10.677l-2.071,2.301v8.375h-4.004v-32.674h4.004V213.615z"/>
	<path d="M556.616,223.325c0-1.657,1.15-2.853,2.715-2.853c1.657,0,2.716,1.196,2.716,2.853c0,1.611-1.059,2.854-2.716,2.854
		C557.721,226.179,556.616,224.936,556.616,223.325z M557.767,216.744l-0.645-22.09h4.418l-0.644,22.09H557.767z"/>
</g>
</svg>
