<?xml version="1.0" encoding="utf-8"?>
<!-- Generator: Adobe Illustrator 16.0.0, SVG Export Plug-In . SVG Version: 6.00 Build 0)  -->
<!DOCTYPE svg PUBLIC "-//W3C//DTD SVG 1.0//EN" "http://www.w3.org/TR/2001/REC-SVG-20010904/DTD/svg10.dtd">
<svg version="1.0" id="Layer_1" xmlns="http://www.w3.org/2000/svg" xmlns:xlink="http://www.w3.org/1999/xlink" x="0px" y="0px"
	 width="792px" height="612px" viewBox="0 0 792 612" enable-background="new 0 0 792 612" xml:space="preserve">
<g>
	<path d="M223.188,225.672l-10.125-31.018h4.326l4.832,15.279c1.334,4.188,2.485,7.961,3.313,11.597h0.092
		c0.875-3.589,2.163-7.501,3.544-11.551l5.246-15.325h4.28l-11.091,31.018H223.188z"/>
	<path d="M241.688,192.998h4.05v32.674h-4.05V192.998z"/>
	<path d="M257.058,197.14c0.046,1.381-0.966,2.485-2.577,2.485c-1.427,0-2.439-1.104-2.439-2.485c0-1.427,1.058-2.531,2.531-2.531
		C256.091,194.608,257.058,195.713,257.058,197.14z M252.547,225.672v-22.274h4.05v22.274H252.547z"/>
	<path d="M265.57,215.271c0.092,5.477,3.59,7.731,7.64,7.731c2.899,0,4.648-0.506,6.167-1.15l0.69,2.899
		c-1.426,0.645-3.866,1.381-7.409,1.381c-6.857,0-10.953-4.51-10.953-11.229c0-6.719,3.958-12.011,10.446-12.011
		c7.271,0,9.204,6.397,9.204,10.493c0,0.829-0.092,1.473-0.138,1.887H265.57z M277.443,212.373c0.046-2.577-1.059-6.581-5.615-6.581
		c-4.096,0-5.891,3.774-6.212,6.581H277.443z"/>
	<path d="M305.56,203.398c-0.092,1.611-0.184,3.405-0.184,6.121v12.932c0,5.108-1.013,8.237-3.176,10.17
		c-2.163,2.025-5.292,2.669-8.1,2.669c-2.669,0-5.614-0.644-7.409-1.841l1.013-3.083c1.473,0.921,3.773,1.749,6.535,1.749
		c4.142,0,7.179-2.163,7.179-7.777v-2.485h-0.092c-1.243,2.071-3.636,3.728-7.087,3.728c-5.522,0-9.48-4.694-9.48-10.86
		c0-7.548,4.924-11.828,10.032-11.828c3.866,0,5.982,2.025,6.949,3.866h0.092l0.184-3.359H305.56z M301.373,212.188
		c0-0.69-0.046-1.289-0.23-1.841c-0.736-2.347-2.715-4.28-5.66-4.28c-3.866,0-6.627,3.268-6.627,8.422
		c0,4.372,2.209,8.008,6.581,8.008c2.485,0,4.74-1.565,5.614-4.142c0.23-0.69,0.322-1.473,0.322-2.163V212.188z"/>
	<path d="M308.78,231.333c1.013-2.715,2.255-7.64,2.761-10.999l4.51-0.46c-1.059,3.912-3.083,9.02-4.372,11.183L308.78,231.333z"/>
	<path d="M220.588,269.672l-9.94-31.018h7.686l3.773,13.116c1.059,3.682,2.025,7.225,2.762,11.091h0.138
		c0.782-3.728,1.749-7.409,2.808-10.953l3.958-13.254h7.456l-10.447,31.018H220.588z"/>
	<path d="M270.565,253.841c0,10.17-6.167,16.337-15.233,16.337c-9.204,0-14.588-6.949-14.588-15.785
		c0-9.296,5.937-16.245,15.095-16.245C265.365,238.148,270.565,245.281,270.565,253.841z M248.153,254.255
		c0,6.075,2.854,10.355,7.547,10.355c4.74,0,7.456-4.51,7.456-10.539c0-5.568-2.669-10.354-7.501-10.354
		C250.914,243.717,248.153,248.227,248.153,254.255z"/>
	<path d="M293.619,256.557h-11.413v7.363h12.748v5.752h-19.789v-31.018h19.145v5.753h-12.104v6.443h11.413V256.557z"/>
	<path d="M299.738,238.654h7.041v25.127h12.333v5.891h-19.375V238.654z"/>
	<path d="M218.587,286.398l4.372,12.518c0.736,2.025,1.335,3.866,1.795,5.707h0.138c0.506-1.841,1.15-3.682,1.887-5.707
		l4.326-12.518h4.234l-8.744,22.274h-3.866l-8.468-22.274H218.587z"/>
	<path d="M239.156,275.997h4.05v32.675h-4.05V275.997z"/>
	<path d="M254.526,280.139c0.046,1.38-0.967,2.485-2.577,2.485c-1.427,0-2.439-1.104-2.439-2.485c0-1.427,1.059-2.531,2.531-2.531
		C253.559,277.608,254.526,278.712,254.526,280.139z M250.016,308.672v-22.274h4.05v22.274H250.016z"/>
	<path d="M263.039,298.271c0.092,5.476,3.59,7.731,7.64,7.731c2.899,0,4.648-0.506,6.167-1.151l0.69,2.9
		c-1.426,0.644-3.866,1.38-7.409,1.38c-6.857,0-10.953-4.51-10.953-11.229c0-6.719,3.958-12.012,10.446-12.012
		c7.271,0,9.204,6.397,9.204,10.493c0,0.829-0.092,1.473-0.138,1.887H263.039z M274.912,295.372
		c0.046-2.577-1.059-6.581-5.615-6.581c-4.096,0-5.891,3.773-6.212,6.581H274.912z"/>
	<path d="M303.029,286.398c-0.092,1.611-0.185,3.406-0.185,6.121v12.932c0,5.108-1.012,8.238-3.175,10.171
		c-2.163,2.024-5.292,2.669-8.1,2.669c-2.669,0-5.614-0.645-7.409-1.841l1.012-3.083c1.473,0.92,3.774,1.749,6.535,1.749
		c4.142,0,7.179-2.163,7.179-7.778v-2.485h-0.092c-1.242,2.071-3.635,3.728-7.087,3.728c-5.522,0-9.48-4.694-9.48-10.861
		c0-7.547,4.924-11.827,10.033-11.827c3.866,0,5.983,2.025,6.949,3.866h0.092l0.184-3.359H303.029z M298.841,295.188
		c0-0.69-0.046-1.289-0.23-1.841c-0.736-2.347-2.715-4.28-5.661-4.28c-3.866,0-6.627,3.267-6.627,8.421
		c0,4.372,2.209,8.008,6.581,8.008c2.485,0,4.74-1.565,5.615-4.142c0.23-0.69,0.322-1.473,0.322-2.163V295.188z"/>
	<path d="M308.779,306.325c0-1.657,1.15-2.853,2.715-2.853c1.657,0,2.715,1.196,2.715,2.853c0,1.611-1.058,2.853-2.715,2.853
		C309.884,309.178,308.779,307.936,308.779,306.325z M309.93,299.744l-0.644-22.09h4.418l-0.645,22.09H309.93z"/>
</g>
</svg>
