<?xml version="1.0" encoding="utf-8"?>
<!-- Generator: Adobe Illustrator 16.0.0, SVG Export Plug-In . SVG Version: 6.00 Build 0)  -->
<!DOCTYPE svg PUBLIC "-//W3C//DTD SVG 1.0//EN" "http://www.w3.org/TR/2001/REC-SVG-20010904/DTD/svg10.dtd">
<svg version="1.0" id="Layer_1" xmlns="http://www.w3.org/2000/svg" xmlns:xlink="http://www.w3.org/1999/xlink" x="0px" y="0px"
	 width="112.245px" height="102.041px" viewBox="0 0 112.245 102.041" enable-background="new 0 0 112.245 102.041"
	 xml:space="preserve">
<g>
	<path fill="#F7F8F9" stroke="#157BAE" stroke-miterlimit="10" d="M21.621,30.38c-0.672,1.312-1.312,2.784-3.04,2.784
		c-1.856,0-2.336-1.056-3.04-2.56L9.174,16.525c-0.96-2.08-1.248-2.464-2.496-2.656c-0.64-0.096-0.96-0.576-0.96-1.248
		c0-2.464,5.087-2.592,6.72-2.592c6.719,0,6.463,1.6,6.463,2.08c0,1.216-1.536,1.28-1.536,2.144c0,0.672,1.248,3.167,2.016,4.832
		c0.288,0.544,0.64,1.792,1.344,1.824c1.056,0.064,1.6-1.728,1.984-2.399c0.384-0.768,1.856-3.648,1.856-4.416
		c0-1.152-1.632-0.832-1.632-2.112c0-1.984,4.032-1.952,5.312-1.952c4.032,0,4.704,0.736,4.704,1.856c0,0.864-0.64,1.28-1.408,1.375
		c-1.376,0.16-1.504,0.064-2.72,2.528L21.621,30.38z"/>
	<path fill="#F7F8F9" stroke="#157BAE" stroke-miterlimit="10" d="M42.741,27.084c0,0.576-0.032,1.632,0.128,2.144
		c0.352,1.152,1.792,0.608,1.792,1.952c0,2.144-3.904,1.984-5.28,1.984c-1.439,0-5.919,0.16-5.919-2.112
		c0-1.12,1.376-0.704,1.76-1.888c0.416-1.312,0.416-5.312,0.416-6.879c0-1.248,0.064-3.647-0.224-5.087
		c-0.48-2.368-2.368-1.536-2.368-3.36c0-2.784,8.319-3.456,8.768-3.456c1.088,0,1.344,0.704,1.344,1.664
		c0,0.736-0.416,4.256-0.416,8.832V27.084z"/>
	<path fill="#F7F8F9" stroke="#157BAE" stroke-miterlimit="10" d="M54.773,26.892c0,3.775,1.888,2.4,1.888,4.096
		c0,2.176-4.064,2.176-5.504,2.176c-5.503,0-5.728-1.248-5.728-2.016c0-1.152,1.312-1.216,1.696-2.208
		c0.416-1.12,0.48-5.76,0.128-6.944c-0.288-1.12-1.92-0.768-1.92-2.208c0-2.272,8.127-3.232,8.448-3.232
		c0.959,0,0.992,0.736,0.992,1.408V26.892z M48.438,15.533c-1.344,0-2.784-0.608-2.784-2.176c0-2.112,4.224-2.976,5.855-2.976
		c1.28,0,3.104,0.416,3.104,2.016C54.613,14.893,50.261,15.533,48.438,15.533z"/>
	<path fill="#F7F8F9" stroke="#157BAE" stroke-miterlimit="10" d="M65.461,25.452c-0.353,0-0.864-0.096-0.864,0.448
		c0,1.6,2.08,2.944,3.584,2.944c2.4,0,3.584-1.44,4.256-1.44s1.248,0.992,1.248,1.6c0,2.464-4.512,4.255-7.392,4.255
		c-5.76,0-8.735-4.16-8.735-8.287c0-4.928,4.191-8.511,8.991-8.511c5.44,0,7.839,4.191,7.839,6.591c0,2.112-0.959,2.4-1.982,2.4
		H65.461z M68.245,21.42c0-1.152-0.704-2.048-1.889-2.048c-1.055,0-1.92,1.088-1.92,2.112c0,1.152,1.088,0.896,1.92,0.896
		C67.221,22.38,68.245,22.572,68.245,21.42z"/>
	<path fill="#F7F8F9" stroke="#157BAE" stroke-miterlimit="10" d="M83.444,39.307c-5.919,0-8.159-2.24-8.159-4.288
		c0-1.856,1.761-1.888,1.761-2.368c0-0.416-1.729-1.312-1.729-2.72c0-2.272,2.592-2.944,2.592-3.392
		c0-0.384-2.176-1.856-2.176-4.224c0-3.872,4.832-5.664,8.063-5.664c1.632,0,3.839,0.608,4.96,0.608
		c2.432,0,3.647-1.696,4.127-1.696c0.736,0,1.057,0.96,1.057,1.568c0,1.792-1.793,3.072-1.793,3.424c0,0.32,0.097,0.672,0.097,0.992
		c0,4.32-5.023,5.792-8.544,5.792c-0.543,0-1.088-0.096-1.663-0.096c-0.544,0-0.864,0.352-0.864,0.864
		c0,0.992,1.408,1.184,2.145,1.184c0.991,0,4.703-0.544,5.982-0.544c3.328,0,4.736,1.888,4.736,3.808
		C94.036,35.436,91.284,39.307,83.444,39.307z M83.765,36.555c1.057,0,3.456-0.16,3.456-1.632c0-0.672-0.64-0.96-1.248-0.96
		c-0.479,0-1.728,0.192-2.752,0.192c-0.735,0-2.464-0.256-2.815-0.256c-0.288,0-0.385,0.288-0.385,0.512
		C80.021,36.107,82.517,36.555,83.765,36.555z M83.956,18.988c-1.247,0-1.791,1.184-1.791,2.304c0,1.216,0.32,3.872,1.951,3.872
		c1.44,0,1.92-1.248,1.92-2.496C86.036,21.356,85.749,18.988,83.956,18.988z"/>
	<path fill="#F7F8F9" stroke="#157BAE" stroke-miterlimit="10" d="M97.205,37.483c0-0.544,1.6-2.464,1.6-3.744
		c0-1.375-3.52-0.704-3.52-4.576c0-2.048,1.664-3.872,3.743-3.872c2.912,0,4.256,2.816,4.256,5.375c0,2.848-1.951,8.063-4.479,8.063
		C98.133,38.731,97.205,38.219,97.205,37.483z"/>
	<path fill="#157BAE" stroke="#F7F8F9" stroke-miterlimit="10" d="M27.902,61.619c-0.882,1.722-1.723,3.654-3.991,3.654
		c-2.437,0-3.067-1.386-3.991-3.36l-8.36-18.483c-1.26-2.73-1.638-3.234-3.276-3.486c-0.84-0.126-1.26-0.756-1.26-1.639
		c0-3.234,6.679-3.402,8.822-3.402c8.821,0,8.485,2.1,8.485,2.73c0,1.596-2.017,1.68-2.017,2.814c0,0.882,1.639,4.159,2.646,6.343
		c0.378,0.714,0.84,2.352,1.765,2.394c1.386,0.084,2.1-2.268,2.604-3.15c0.504-1.008,2.436-4.789,2.436-5.797
		c0-1.512-2.142-1.092-2.142-2.772c0-2.604,5.293-2.563,6.973-2.563c5.293,0,6.175,0.966,6.175,2.437c0,1.134-0.84,1.68-1.849,1.806
		c-1.806,0.21-1.974,0.084-3.57,3.318L27.902,61.619z"/>
	<path fill="#157BAE" stroke="#F7F8F9" stroke-miterlimit="10" d="M37.685,55.108c0-7.52,6.595-11.763,13.526-11.763
		c7.351,0,11.552,5.755,11.552,10.964c0,6.889-7.393,11.09-13.568,11.09C42.977,65.399,37.685,61.745,37.685,55.108z M49.404,48.303
		c-1.386,0-2.142,1.302-2.058,2.521c0.168,2.646,0.924,9.115,3.823,9.283c1.596,0.084,1.932-1.26,1.932-2.604
		C53.101,55.612,52.261,48.303,49.404,48.303z"/>
	<path fill="#157BAE" stroke="#F7F8F9" stroke-miterlimit="10" d="M67.337,40.825c-1.68,0-3.99-0.714-3.99-2.772
		c0-2.982,4.326-3.486,6.469-3.486c1.68,0,4.494,0.462,4.494,2.688C74.31,40.069,69.437,40.825,67.337,40.825z M74.604,55.149
		c-0.463,0-1.135-0.125-1.135,0.588c0,2.102,2.73,3.865,4.705,3.865c3.15,0,4.705-1.891,5.587-1.891s1.638,1.303,1.638,2.101
		c0,3.235-5.922,5.587-9.703,5.587c-7.562,0-11.468-5.461-11.468-10.88c0-6.469,5.503-11.174,11.804-11.174
		c7.142,0,10.292,5.503,10.292,8.653c0,2.773-1.261,3.15-2.604,3.15H74.604z M78.259,49.857c0-1.512-0.924-2.688-2.479-2.688
		c-1.387,0-2.521,1.428-2.521,2.772c0,1.512,1.429,1.176,2.521,1.176C76.915,51.117,78.259,51.369,78.259,49.857z M80.149,40.825
		c-1.681,0-3.991-0.714-3.991-2.772c0-2.982,4.327-3.486,6.47-3.486c1.68,0,4.494,0.462,4.494,2.688
		C87.122,40.069,82.249,40.825,80.149,40.825z"/>
	<path fill="#157BAE" stroke="#F7F8F9" stroke-miterlimit="10" d="M100.056,57.292c0,0.756-0.041,2.143,0.168,2.814
		c0.463,1.513,2.354,0.799,2.354,2.563c0,2.814-5.125,2.604-6.932,2.604c-1.891,0-7.771,0.21-7.771-2.772
		c0-1.471,1.807-0.924,2.311-2.479c0.546-1.723,0.546-6.973,0.546-9.031c0-1.639,0.084-4.789-0.294-6.679
		c-0.631-3.109-3.109-2.017-3.109-4.411c0-3.654,10.922-4.537,11.511-4.537c1.429,0,1.765,0.924,1.765,2.185
		c0,0.966-0.547,5.587-0.547,11.594V57.292z"/>
	<path fill="#F7F8F9" stroke="#157BAE" stroke-miterlimit="10" d="M21.477,87.38c-0.672,1.312-1.312,2.783-3.04,2.783
		c-1.856,0-2.336-1.056-3.04-2.56L9.029,73.524c-0.96-2.08-1.248-2.463-2.496-2.655c-0.64-0.097-0.96-0.576-0.96-1.248
		c0-2.464,5.087-2.592,6.72-2.592c6.719,0,6.463,1.6,6.463,2.079c0,1.217-1.536,1.281-1.536,2.145c0,0.672,1.248,3.168,2.016,4.832
		c0.288,0.543,0.64,1.791,1.344,1.823c1.056,0.063,1.6-1.728,1.984-2.399c0.384-0.768,1.856-3.648,1.856-4.416
		c0-1.152-1.632-0.832-1.632-2.111c0-1.984,4.032-1.952,5.312-1.952c4.032,0,4.704,0.735,4.704,1.856
		c0,0.863-0.64,1.279-1.408,1.375c-1.376,0.16-1.504,0.064-2.72,2.527L21.477,87.38z"/>
	<path fill="#F7F8F9" stroke="#157BAE" stroke-miterlimit="10" d="M42.597,84.084c0,0.575-0.032,1.632,0.128,2.144
		c0.352,1.152,1.792,0.608,1.792,1.952c0,2.144-3.904,1.983-5.28,1.983c-1.439,0-5.919,0.16-5.919-2.111
		c0-1.12,1.376-0.704,1.76-1.889c0.416-1.311,0.416-5.311,0.416-6.879c0-1.248,0.064-3.647-0.224-5.088
		c-0.48-2.367-2.368-1.535-2.368-3.359c0-2.783,8.319-3.455,8.768-3.455c1.088,0,1.344,0.703,1.344,1.663
		c0,0.735-0.416,4.256-0.416,8.831V84.084z"/>
	<path fill="#F7F8F9" stroke="#157BAE" stroke-miterlimit="10" d="M54.628,83.892c0,3.775,1.888,2.4,1.888,4.096
		c0,2.176-4.064,2.176-5.504,2.176c-5.503,0-5.728-1.248-5.728-2.016c0-1.152,1.312-1.216,1.696-2.207
		c0.416-1.121,0.48-5.76,0.128-6.944c-0.288-1.12-1.92-0.768-1.92-2.208c0-2.271,8.127-3.231,8.448-3.231
		c0.959,0,0.992,0.735,0.992,1.408V83.892z M48.293,72.532c-1.344,0-2.784-0.607-2.784-2.176c0-2.111,4.224-2.975,5.855-2.975
		c1.28,0,3.104,0.415,3.104,2.016C54.468,71.893,50.117,72.532,48.293,72.532z"/>
	<path fill="#F7F8F9" stroke="#157BAE" stroke-miterlimit="10" d="M65.316,82.452c-0.353,0-0.864-0.096-0.864,0.447
		c0,1.601,2.08,2.944,3.584,2.944c2.4,0,3.584-1.44,4.256-1.44s1.248,0.992,1.248,1.601c0,2.464-4.512,4.255-7.392,4.255
		c-5.76,0-8.735-4.159-8.735-8.287c0-4.928,4.191-8.511,8.991-8.511c5.44,0,7.839,4.191,7.839,6.591c0,2.112-0.959,2.4-1.982,2.4
		H65.316z M68.101,78.421c0-1.152-0.704-2.049-1.889-2.049c-1.055,0-1.92,1.088-1.92,2.112c0,1.151,1.088,0.896,1.92,0.896
		C67.076,79.38,68.101,79.572,68.101,78.421z"/>
	<path fill="#F7F8F9" stroke="#157BAE" stroke-miterlimit="10" d="M83.3,96.308c-5.919,0-8.159-2.24-8.159-4.288
		c0-1.856,1.761-1.888,1.761-2.368c0-0.416-1.729-1.312-1.729-2.72c0-2.272,2.592-2.944,2.592-3.392
		c0-0.384-2.176-1.855-2.176-4.224c0-3.872,4.832-5.663,8.063-5.663c1.632,0,3.839,0.607,4.96,0.607
		c2.432,0,3.647-1.695,4.127-1.695c0.736,0,1.057,0.959,1.057,1.567c0,1.792-1.793,3.071-1.793,3.424
		c0,0.319,0.097,0.672,0.097,0.991c0,4.32-5.023,5.792-8.544,5.792c-0.543,0-1.088-0.096-1.663-0.096
		c-0.544,0-0.864,0.352-0.864,0.864c0,0.991,1.408,1.184,2.145,1.184c0.991,0,4.703-0.544,5.982-0.544
		c3.328,0,4.736,1.888,4.736,3.808C93.892,92.436,91.14,96.308,83.3,96.308z M83.62,93.556c1.057,0,3.456-0.16,3.456-1.633
		c0-0.672-0.64-0.959-1.248-0.959c-0.479,0-1.728,0.191-2.752,0.191c-0.735,0-2.464-0.256-2.815-0.256
		c-0.288,0-0.385,0.288-0.385,0.512C79.876,93.107,82.372,93.556,83.62,93.556z M83.812,75.988c-1.247,0-1.791,1.185-1.791,2.304
		c0,1.217,0.32,3.872,1.951,3.872c1.44,0,1.92-1.248,1.92-2.495C85.892,78.356,85.604,75.988,83.812,75.988z"/>
	<path fill="#F7F8F9" stroke="#157BAE" stroke-miterlimit="10" d="M101.509,77.972c-0.289,0.609-1.408,2.688-2.209,2.688
		c-0.799,0-1.92-2.079-2.207-2.688c-0.896-1.76-1.633-4.159-1.633-6.143c0-2.368,1.121-4.896,3.84-4.896
		c2.721,0,3.84,2.528,3.84,4.896C103.14,73.813,102.404,76.212,101.509,77.972z M99.3,90.259c-1.951,0-3.551-1.6-3.551-3.551
		c0-1.952,1.6-3.552,3.551-3.552c1.952,0,3.553,1.6,3.553,3.552C102.853,88.659,101.252,90.259,99.3,90.259z"/>
</g>
</svg>
