<?xml version="1.0" encoding="utf-8"?>
<!-- Generator: Adobe Illustrator 16.0.0, SVG Export Plug-In . SVG Version: 6.00 Build 0)  -->
<!DOCTYPE svg PUBLIC "-//W3C//DTD SVG 1.0//EN" "http://www.w3.org/TR/2001/REC-SVG-20010904/DTD/svg10.dtd">
<svg version="1.0" id="Layer_1" xmlns="http://www.w3.org/2000/svg" xmlns:xlink="http://www.w3.org/1999/xlink" x="0px" y="0px"
	 width="792px" height="612px" viewBox="0 0 792 612" enable-background="new 0 0 792 612" xml:space="preserve">
<g>
	<path d="M117.155,225.672l-7.363-31.018h7.501l2.347,12.794c0.69,3.682,1.334,7.686,1.841,10.815h0.092
		c0.506-3.36,1.242-7.087,2.025-10.907l2.623-12.702h7.456l2.485,13.07c0.69,3.635,1.197,6.949,1.657,10.4h0.092
		c0.46-3.452,1.151-7.087,1.795-10.769l2.531-12.702h7.133l-8.008,31.018h-7.593l-2.623-13.346
		c-0.599-3.129-1.104-6.028-1.473-9.572h-0.092c-0.552,3.498-1.058,6.443-1.794,9.572l-2.945,13.346H117.155z"/>
	<path d="M156.224,216.652c0.23,2.899,3.083,4.28,6.351,4.28c2.393,0,4.326-0.322,6.213-0.92l0.92,4.74
		c-2.301,0.92-5.108,1.381-8.146,1.381c-7.64,0-12.012-4.418-12.012-11.459c0-5.707,3.544-12.011,11.367-12.011
		c7.271,0,10.032,5.661,10.032,11.229c0,1.197-0.138,2.255-0.23,2.761H156.224z M164.461,211.866c0-1.703-0.736-4.556-3.958-4.556
		c-2.945,0-4.142,2.669-4.326,4.556H164.461z"/>
	<path d="M175.137,210.348c0-2.808-0.092-5.2-0.184-7.179h6.075l0.322,3.083h0.138c0.92-1.427,3.221-3.59,6.949-3.59
		c4.603,0,8.054,3.037,8.054,9.664v13.346h-6.995v-12.472c0-2.899-1.012-4.878-3.543-4.878c-1.933,0-3.083,1.334-3.543,2.623
		c-0.184,0.414-0.276,1.104-0.276,1.749v12.978h-6.995V210.348z"/>
	<path d="M209.098,212.648h0.092c0.506-0.92,1.059-1.841,1.61-2.715l4.556-6.765h8.422l-8.054,9.112l9.204,13.392h-8.606l-5.43-9.25
		l-1.795,2.209v7.041h-6.995v-32.674h6.995V212.648z"/>
	<path d="M226.676,207.126c0-2.485,1.703-4.234,4.142-4.234s4.05,1.703,4.096,4.234c0,2.393-1.657,4.188-4.142,4.188
		C228.379,211.314,226.676,209.519,226.676,207.126z M226.676,221.991c0-2.439,1.703-4.234,4.142-4.234s4.05,1.749,4.096,4.234
		c0,2.393-1.657,4.188-4.142,4.188C228.379,226.179,226.676,224.384,226.676,221.991z"/>
	<path d="M275.731,212.05c-0.23-4.326-0.506-9.526-0.46-13.392h-0.138c-1.059,3.636-2.347,7.501-3.912,11.781l-5.477,15.049h-3.038
		l-5.016-14.772c-1.473-4.372-2.715-8.376-3.59-12.058h-0.092c-0.092,3.866-0.322,9.066-0.598,13.714l-0.829,13.3h-3.819
		l2.163-31.018h5.108l5.292,15.003c1.289,3.82,2.347,7.225,3.129,10.447h0.138c0.782-3.129,1.887-6.535,3.267-10.447l5.522-15.003
		h5.108l1.933,31.018h-3.912L275.731,212.05z"/>
	<path d="M306.885,214.352c0,8.237-5.707,11.827-11.091,11.827c-6.029,0-10.677-4.418-10.677-11.459
		c0-7.456,4.878-11.828,11.045-11.828C302.559,202.892,306.885,207.54,306.885,214.352z M289.213,214.582
		c0,4.878,2.807,8.56,6.765,8.56c3.866,0,6.765-3.635,6.765-8.652c0-3.773-1.887-8.56-6.673-8.56S289.213,210.348,289.213,214.582z"
		/>
	<path d="M314.246,215.271c0.092,5.477,3.589,7.731,7.639,7.731c2.899,0,4.648-0.506,6.167-1.15l0.69,2.899
		c-1.427,0.645-3.866,1.381-7.409,1.381c-6.857,0-10.953-4.51-10.953-11.229c0-6.719,3.958-12.011,10.447-12.011
		c7.271,0,9.204,6.397,9.204,10.493c0,0.829-0.092,1.473-0.138,1.887H314.246z M326.119,212.373
		c0.046-2.577-1.059-6.581-5.614-6.581c-4.096,0-5.891,3.774-6.213,6.581H326.119z"/>
	<path d="M335.045,209.427c0-2.301-0.046-4.188-0.184-6.029h3.59l0.23,3.682h0.092c1.104-2.117,3.682-4.188,7.363-4.188
		c3.083,0,7.869,1.841,7.869,9.48v13.3h-4.05v-12.84c0-3.589-1.334-6.581-5.154-6.581c-2.669,0-4.74,1.887-5.43,4.142
		c-0.184,0.506-0.276,1.196-0.276,1.887v13.392h-4.05V209.427z"/>
	<path d="M365.095,197.14c0.046,1.381-0.966,2.485-2.577,2.485c-1.427,0-2.439-1.104-2.439-2.485c0-1.427,1.058-2.531,2.531-2.531
		C364.129,194.608,365.095,195.713,365.095,197.14z M360.585,225.672v-22.274h4.05v22.274H360.585z"/>
	<path d="M373.607,215.271c0.092,5.477,3.59,7.731,7.64,7.731c2.899,0,4.648-0.506,6.167-1.15l0.69,2.899
		c-1.426,0.645-3.866,1.381-7.409,1.381c-6.857,0-10.953-4.51-10.953-11.229c0-6.719,3.958-12.011,10.446-12.011
		c7.271,0,9.204,6.397,9.204,10.493c0,0.829-0.092,1.473-0.138,1.887H373.607z M385.481,212.373
		c0.046-2.577-1.059-6.581-5.615-6.581c-4.096,0-5.891,3.774-6.212,6.581H385.481z"/>
	<path d="M423.398,192.998v26.922c0,1.979,0.047,4.234,0.185,5.752h-3.636l-0.184-3.866h-0.093
		c-1.242,2.485-3.958,4.372-7.593,4.372c-5.385,0-9.526-4.556-9.526-11.321c-0.046-7.409,4.556-11.965,9.986-11.965
		c3.405,0,5.706,1.611,6.719,3.406h0.092v-13.3H423.398z M419.349,212.464c0-0.506-0.046-1.196-0.184-1.703
		c-0.599-2.577-2.808-4.694-5.845-4.694c-4.188,0-6.673,3.682-6.673,8.606c0,4.51,2.209,8.238,6.581,8.238
		c2.715,0,5.2-1.795,5.937-4.832c0.138-0.552,0.184-1.104,0.184-1.749V212.464z"/>
	<path d="M434.626,197.14c0.046,1.381-0.966,2.485-2.577,2.485c-1.426,0-2.438-1.104-2.438-2.485c0-1.427,1.059-2.531,2.531-2.531
		C433.66,194.608,434.626,195.713,434.626,197.14z M430.116,225.672v-22.274h4.05v22.274H430.116z"/>
	<path d="M443.139,215.271c0.092,5.477,3.59,7.731,7.64,7.731c2.899,0,4.648-0.506,6.167-1.15l0.69,2.899
		c-1.427,0.645-3.866,1.381-7.409,1.381c-6.857,0-10.953-4.51-10.953-11.229c0-6.719,3.957-12.011,10.446-12.011
		c7.271,0,9.204,6.397,9.204,10.493c0,0.829-0.092,1.473-0.138,1.887H443.139z M455.012,212.373
		c0.047-2.577-1.058-6.581-5.614-6.581c-4.096,0-5.891,3.774-6.213,6.581H455.012z"/>
	<path d="M473.511,225.672c0.092-1.519,0.184-3.774,0.184-5.752v-26.922h4.004v13.99h0.092c1.427-2.485,4.004-4.096,7.594-4.096
		c5.522,0,9.435,4.602,9.388,11.367c0,7.961-5.016,11.919-9.986,11.919c-3.221,0-5.799-1.243-7.455-4.188h-0.138l-0.185,3.682
		H473.511z M477.698,216.744c0,0.506,0.092,1.013,0.185,1.473c0.782,2.808,3.129,4.74,6.074,4.74c4.234,0,6.765-3.451,6.765-8.56
		c0-4.464-2.301-8.284-6.627-8.284c-2.761,0-5.338,1.887-6.166,4.97c-0.093,0.46-0.23,1.012-0.23,1.657V216.744z"/>
	<path d="M520.034,214.352c0,8.237-5.707,11.827-11.091,11.827c-6.029,0-10.677-4.418-10.677-11.459
		c0-7.456,4.878-11.828,11.045-11.828C515.708,202.892,520.034,207.54,520.034,214.352z M502.362,214.582
		c0,4.878,2.808,8.56,6.765,8.56c3.866,0,6.766-3.635,6.766-8.652c0-3.773-1.887-8.56-6.674-8.56
		C504.434,205.93,502.362,210.348,502.362,214.582z"/>
	<path d="M525.141,209.427c0-2.301-0.046-4.188-0.184-6.029h3.543l0.185,3.59h0.138c1.242-2.117,3.313-4.096,6.995-4.096
		c3.037,0,5.339,1.841,6.305,4.464h0.093c0.689-1.243,1.564-2.209,2.484-2.899c1.335-1.013,2.808-1.565,4.925-1.565
		c2.945,0,7.317,1.933,7.317,9.665v13.116h-3.958v-12.61c0-4.28-1.565-6.857-4.832-6.857c-2.302,0-4.097,1.703-4.786,3.682
		c-0.185,0.552-0.322,1.289-0.322,2.025v13.76h-3.958v-13.346c0-3.543-1.564-6.121-4.648-6.121c-2.53,0-4.372,2.025-5.016,4.05
		c-0.23,0.598-0.322,1.289-0.322,1.979v13.438h-3.958V209.427z"/>
	<path d="M565.774,215.271c0.093,5.477,3.59,7.731,7.64,7.731c2.899,0,4.648-0.506,6.167-1.15l0.69,2.899
		c-1.427,0.645-3.866,1.381-7.41,1.381c-6.856,0-10.952-4.51-10.952-11.229c0-6.719,3.958-12.011,10.446-12.011
		c7.271,0,9.204,6.397,9.204,10.493c0,0.829-0.092,1.473-0.138,1.887H565.774z M577.648,212.373
		c0.046-2.577-1.059-6.581-5.615-6.581c-4.096,0-5.891,3.774-6.213,6.581H577.648z"/>
	<path d="M616.486,214.352c0,8.237-5.707,11.827-11.091,11.827c-6.029,0-10.677-4.418-10.677-11.459
		c0-7.456,4.878-11.828,11.045-11.828C612.16,202.892,616.486,207.54,616.486,214.352z M598.814,214.582
		c0,4.878,2.807,8.56,6.765,8.56c3.866,0,6.766-3.635,6.766-8.652c0-3.773-1.888-8.56-6.673-8.56
		C600.885,205.93,598.814,210.348,598.814,214.582z"/>
	<path d="M622.007,225.672v-19.19h-3.129v-3.083h3.129v-1.059c0-3.129,0.69-5.982,2.577-7.777c1.519-1.473,3.544-2.071,5.431-2.071
		c1.427,0,2.669,0.322,3.451,0.644l-0.552,3.129c-0.599-0.276-1.427-0.506-2.577-0.506c-3.452,0-4.326,3.038-4.326,6.443v1.196
		h5.385v3.083h-5.385v19.19H622.007z"/>
	<path d="M111.909,276.752c1.197,0.782,3.313,1.61,5.338,1.61c2.945,0,4.326-1.473,4.326-3.313c0-1.933-1.15-2.991-4.142-4.096
		c-4.003-1.427-5.891-3.636-5.891-6.305c0-3.59,2.899-6.535,7.686-6.535c2.255,0,4.234,0.645,5.477,1.381l-1.013,2.945
		c-0.875-0.552-2.485-1.289-4.556-1.289c-2.393,0-3.728,1.38-3.728,3.037c0,1.841,1.335,2.669,4.234,3.774
		c3.866,1.473,5.845,3.405,5.845,6.719c0,3.912-3.038,6.673-8.33,6.673c-2.439,0-4.694-0.598-6.259-1.519L111.909,276.752z"/>
	<path d="M130.684,265.891c0-2.853-0.092-5.154-0.184-7.271h3.636l0.184,3.82h0.092c1.657-2.715,4.28-4.326,7.916-4.326
		c5.384,0,9.434,4.556,9.434,11.321c0,8.007-4.878,11.965-10.125,11.965c-2.945,0-5.522-1.289-6.857-3.498h-0.092v12.104h-4.004
		V265.891z M134.688,271.828c0,0.598,0.092,1.15,0.184,1.657c0.736,2.807,3.175,4.74,6.075,4.74c4.28,0,6.765-3.498,6.765-8.606
		c0-4.464-2.347-8.284-6.627-8.284c-2.761,0-5.338,1.979-6.121,5.016c-0.138,0.506-0.276,1.104-0.276,1.657V271.828z"/>
	<path d="M159.122,270.493c0.092,5.476,3.59,7.731,7.64,7.731c2.899,0,4.648-0.506,6.167-1.151l0.69,2.899
		c-1.426,0.644-3.866,1.38-7.409,1.38c-6.857,0-10.953-4.51-10.953-11.229c0-6.719,3.958-12.012,10.446-12.012
		c7.271,0,9.204,6.397,9.204,10.493c0,0.829-0.092,1.473-0.138,1.887H159.122z M170.996,267.594
		c0.046-2.577-1.059-6.581-5.615-6.581c-4.096,0-5.891,3.773-6.212,6.581H170.996z"/>
	<path d="M182.177,270.493c0.092,5.476,3.59,7.731,7.64,7.731c2.899,0,4.648-0.506,6.167-1.151l0.69,2.899
		c-1.426,0.644-3.866,1.38-7.409,1.38c-6.857,0-10.953-4.51-10.953-11.229c0-6.719,3.958-12.012,10.446-12.012
		c7.271,0,9.204,6.397,9.204,10.493c0,0.829-0.092,1.473-0.138,1.887H182.177z M194.05,267.594c0.046-2.577-1.059-6.581-5.615-6.581
		c-4.096,0-5.891,3.773-6.212,6.581H194.05z"/>
	<path d="M202.976,248.219h4.05v32.675h-4.05V248.219z"/>
	<path d="M233.026,258.62c-0.092,1.611-0.184,3.406-0.184,6.121v12.932c0,5.108-1.013,8.238-3.176,10.171
		c-2.163,2.025-5.292,2.669-8.1,2.669c-2.669,0-5.614-0.644-7.409-1.841l1.013-3.083c1.473,0.92,3.773,1.749,6.535,1.749
		c4.142,0,7.179-2.163,7.179-7.777v-2.485h-0.092c-1.243,2.071-3.636,3.728-7.087,3.728c-5.522,0-9.48-4.694-9.48-10.861
		c0-7.547,4.924-11.827,10.032-11.827c3.866,0,5.982,2.025,6.949,3.866h0.092l0.184-3.359H233.026z M228.839,267.41
		c0-0.69-0.046-1.289-0.23-1.841c-0.736-2.347-2.715-4.28-5.66-4.28c-3.866,0-6.627,3.267-6.627,8.421
		c0,4.372,2.209,8.008,6.581,8.008c2.485,0,4.74-1.565,5.614-4.142c0.23-0.69,0.322-1.473,0.322-2.163V267.41z"/>
	<path d="M259.717,269.572c0,8.238-5.707,11.828-11.091,11.828c-6.029,0-10.677-4.418-10.677-11.459
		c0-7.455,4.878-11.827,11.045-11.827C255.391,258.113,259.717,262.762,259.717,269.572z M242.045,269.803
		c0,4.878,2.807,8.56,6.765,8.56c3.866,0,6.765-3.636,6.765-8.652c0-3.773-1.887-8.56-6.673-8.56S242.045,265.569,242.045,269.803z"
		/>
	<path d="M267.078,270.493c0.092,5.476,3.59,7.731,7.64,7.731c2.899,0,4.648-0.506,6.167-1.151l0.69,2.899
		c-1.426,0.644-3.866,1.38-7.409,1.38c-6.857,0-10.953-4.51-10.953-11.229c0-6.719,3.958-12.012,10.446-12.012
		c7.271,0,9.204,6.397,9.204,10.493c0,0.829-0.092,1.473-0.138,1.887H267.078z M278.952,267.594
		c0.046-2.577-1.059-6.581-5.615-6.581c-4.096,0-5.891,3.773-6.212,6.581H278.952z"/>
	<path d="M307.114,248.219v26.922c0,1.979,0.046,4.234,0.184,5.752h-3.636l-0.184-3.866h-0.092
		c-1.243,2.485-3.958,4.372-7.594,4.372c-5.384,0-9.526-4.556-9.526-11.321c-0.046-7.409,4.556-11.965,9.987-11.965
		c3.405,0,5.707,1.611,6.719,3.406h0.092v-13.3H307.114z M303.064,267.686c0-0.506-0.046-1.196-0.184-1.703
		c-0.598-2.577-2.807-4.694-5.845-4.694c-4.188,0-6.673,3.682-6.673,8.605c0,4.51,2.209,8.238,6.581,8.238
		c2.715,0,5.201-1.795,5.937-4.832c0.138-0.552,0.184-1.104,0.184-1.749V267.686z"/>
	<path d="M315.396,258.62l4.372,12.518c0.736,2.025,1.335,3.866,1.795,5.707h0.138c0.506-1.841,1.15-3.682,1.887-5.707l4.326-12.518
		h4.234l-8.744,22.274h-3.866l-8.468-22.274H315.396z"/>
	<path d="M335.965,248.219h4.05v32.675h-4.05V248.219z"/>
	<path d="M351.335,252.361c0.046,1.38-0.966,2.485-2.577,2.485c-1.427,0-2.439-1.104-2.439-2.485c0-1.427,1.058-2.531,2.531-2.531
		C350.369,249.83,351.335,250.934,351.335,252.361z M346.825,280.894V258.62h4.05v22.274H346.825z"/>
	<path d="M359.848,270.493c0.092,5.476,3.59,7.731,7.64,7.731c2.899,0,4.648-0.506,6.167-1.151l0.69,2.899
		c-1.426,0.644-3.866,1.38-7.409,1.38c-6.857,0-10.953-4.51-10.953-11.229c0-6.719,3.958-12.012,10.446-12.012
		c7.271,0,9.204,6.397,9.204,10.493c0,0.829-0.092,1.473-0.138,1.887H359.848z M371.721,267.594
		c0.046-2.577-1.059-6.581-5.615-6.581c-4.096,0-5.891,3.773-6.212,6.581H371.721z"/>
	<path d="M399.838,258.62c-0.092,1.611-0.184,3.406-0.184,6.121v12.932c0,5.108-1.013,8.238-3.176,10.171
		c-2.163,2.025-5.292,2.669-8.1,2.669c-2.669,0-5.614-0.644-7.409-1.841l1.013-3.083c1.473,0.92,3.773,1.749,6.535,1.749
		c4.142,0,7.179-2.163,7.179-7.777v-2.485h-0.092c-1.243,2.071-3.636,3.728-7.087,3.728c-5.522,0-9.48-4.694-9.48-10.861
		c0-7.547,4.924-11.827,10.032-11.827c3.866,0,5.982,2.025,6.949,3.866h0.092l0.184-3.359H399.838z M395.65,267.41
		c0-0.69-0.046-1.289-0.23-1.841c-0.736-2.347-2.715-4.28-5.66-4.28c-3.866,0-6.627,3.267-6.627,8.421
		c0,4.372,2.209,8.008,6.581,8.008c2.485,0,4.74-1.565,5.614-4.142c0.23-0.69,0.322-1.473,0.322-2.163V267.41z"/>
	<path d="M411.249,252.223v6.397h5.799v3.083h-5.799v12.011c0,2.761,0.782,4.326,3.038,4.326c1.059,0,1.841-0.138,2.347-0.276
		l0.185,3.038c-0.783,0.322-2.025,0.552-3.59,0.552c-1.887,0-3.406-0.598-4.372-1.703c-1.15-1.196-1.564-3.175-1.564-5.798v-12.149
		h-3.452v-3.083h3.452v-5.338L411.249,252.223z"/>
	<path d="M440.241,274.819c0,2.301,0.046,4.326,0.184,6.075h-3.589l-0.23-3.636h-0.092c-1.059,1.795-3.406,4.142-7.363,4.142
		c-3.498,0-7.686-1.933-7.686-9.756V258.62h4.05v12.333c0,4.234,1.288,7.087,4.97,7.087c2.716,0,4.603-1.887,5.339-3.682
		c0.229-0.598,0.368-1.334,0.368-2.071V258.62h4.05V274.819z"/>
	<path d="M451.468,252.361c0.046,1.38-0.966,2.485-2.577,2.485c-1.426,0-2.438-1.104-2.438-2.485c0-1.427,1.059-2.531,2.531-2.531
		C450.502,249.83,451.468,250.934,451.468,252.361z M446.958,280.894V258.62h4.05v22.274H446.958z"/>
	<path d="M459.98,270.493c0.092,5.476,3.59,7.731,7.64,7.731c2.899,0,4.648-0.506,6.167-1.151l0.69,2.899
		c-1.427,0.644-3.866,1.38-7.409,1.38c-6.857,0-10.953-4.51-10.953-11.229c0-6.719,3.957-12.012,10.446-12.012
		c7.271,0,9.204,6.397,9.204,10.493c0,0.829-0.092,1.473-0.138,1.887H459.98z M471.854,267.594c0.047-2.577-1.058-6.581-5.614-6.581
		c-4.096,0-5.891,3.773-6.213,6.581H471.854z"/>
	<path d="M495.413,252.223v6.397h5.799v3.083h-5.799v12.011c0,2.761,0.782,4.326,3.038,4.326c1.059,0,1.841-0.138,2.347-0.276
		l0.185,3.038c-0.783,0.322-2.025,0.552-3.59,0.552c-1.887,0-3.406-0.598-4.372-1.703c-1.15-1.196-1.564-3.175-1.564-5.798v-12.149
		h-3.452v-3.083h3.452v-5.338L495.413,252.223z"/>
	<path d="M505.768,265.569c0-2.624-0.046-4.878-0.184-6.949h3.543l0.139,4.372h0.184c1.013-2.992,3.451-4.878,6.167-4.878
		c0.46,0,0.782,0.046,1.15,0.138v3.82c-0.414-0.092-0.828-0.138-1.381-0.138c-2.853,0-4.878,2.163-5.431,5.2
		c-0.092,0.552-0.184,1.197-0.184,1.887v11.873h-4.004V265.569z"/>
	<path d="M522.609,270.493c0.092,5.476,3.59,7.731,7.64,7.731c2.899,0,4.648-0.506,6.167-1.151l0.69,2.899
		c-1.427,0.644-3.866,1.38-7.409,1.38c-6.857,0-10.953-4.51-10.953-11.229c0-6.719,3.957-12.012,10.446-12.012
		c7.271,0,9.204,6.397,9.204,10.493c0,0.829-0.092,1.473-0.138,1.887H522.609z M534.482,267.594
		c0.047-2.577-1.058-6.581-5.614-6.581c-4.096,0-5.891,3.773-6.213,6.581H534.482z"/>
	<path d="M543.823,280.894v-19.19h-3.129v-3.083h3.129v-1.059c0-3.129,0.69-5.982,2.577-7.777c1.519-1.473,3.544-2.071,5.431-2.071
		c1.427,0,2.669,0.322,3.451,0.644l-0.552,3.129c-0.599-0.276-1.427-0.506-2.577-0.506c-3.452,0-4.326,3.037-4.326,6.442v1.197
		h5.385v3.083h-5.385v19.19H543.823z"/>
	<path d="M566.602,264.648c0-2.301-0.046-4.188-0.184-6.029h3.589l0.23,3.682h0.092c1.104-2.117,3.682-4.188,7.363-4.188
		c3.084,0,7.87,1.841,7.87,9.48v13.3h-4.05v-12.84c0-3.589-1.335-6.581-5.154-6.581c-2.67,0-4.74,1.887-5.431,4.142
		c-0.185,0.506-0.276,1.197-0.276,1.887v13.392h-4.05V264.648z"/>
	<path d="M596.65,252.361c0.047,1.38-0.966,2.485-2.577,2.485c-1.427,0-2.438-1.104-2.438-2.485c0-1.427,1.059-2.531,2.531-2.531
		C595.685,249.83,596.65,250.934,596.65,252.361z M592.141,280.894V258.62h4.05v22.274H592.141z"/>
	<path d="M605.164,270.493c0.092,5.476,3.59,7.731,7.64,7.731c2.899,0,4.648-0.506,6.167-1.151l0.69,2.899
		c-1.427,0.644-3.866,1.38-7.409,1.38c-6.857,0-10.953-4.51-10.953-11.229c0-6.719,3.957-12.012,10.446-12.012
		c7.271,0,9.204,6.397,9.204,10.493c0,0.829-0.092,1.473-0.138,1.887H605.164z M617.037,267.594
		c0.047-2.577-1.058-6.581-5.614-6.581c-4.096,0-5.891,3.773-6.213,6.581H617.037z"/>
	<path d="M624.445,278.5c0-1.703,1.15-2.899,2.761-2.899s2.715,1.197,2.715,2.899c0,1.657-1.058,2.899-2.761,2.899
		C625.549,281.4,624.445,280.157,624.445,278.5z"/>
</g>
</svg>
