<?xml version="1.0" encoding="utf-8"?>
<!-- Generator: Adobe Illustrator 16.0.0, SVG Export Plug-In . SVG Version: 6.00 Build 0)  -->
<!DOCTYPE svg PUBLIC "-//W3C//DTD SVG 1.0//EN" "http://www.w3.org/TR/2001/REC-SVG-20010904/DTD/svg10.dtd">
<svg version="1.0" id="Layer_1" xmlns="http://www.w3.org/2000/svg" xmlns:xlink="http://www.w3.org/1999/xlink" x="0px" y="0px"
	 width="303.062px" height="51.02px" viewBox="0 0 303.062 51.02" enable-background="new 0 0 303.062 51.02" xml:space="preserve">
<g>
	<path fill="#4F2610" d="M22.689,18.61c-0.1-0.221-0.26-0.841-0.58-0.841c-0.38,0-0.52,0.521-1.041,1.8l-1.22,3.021
		c-0.42,1.04-0.62,1.78-1.92,1.78c-1.12,0-1.42-0.7-1.78-1.62l-3.721-9.502c-0.56-1.441-1.36-0.701-1.36-1.921
		c0-1.38,2.701-1.421,3.621-1.421c2.921,0,3.421,0.461,3.421,1.281c0,0.6-0.46,0.68-0.46,1.3c0,0.58,0.62,2.04,0.7,2.28
		c0.1,0.32,0.54,1.721,1,1.721c0.52,0,0.94-1.44,1.04-1.74c0.06-0.12,0.26-0.641,0.26-0.78c0-0.181-0.42-1.421-1.02-1.761
		c-0.4-0.199-0.74-0.48-0.74-0.98c0-0.119-0.28-1.32,3.901-1.32c3.881,0,3.801,0.9,3.801,1.24c0,0.66-0.9,0.841-0.9,1.341
		c0,0.54,0.68,1.78,0.88,2.221c0.14,0.319,0.58,1.56,1.06,1.56c0.68,0,1.541-3.4,1.541-3.68c0-0.861-1.3-0.42-1.3-1.521
		c0-1.22,2.041-1.16,2.86-1.16c0.82,0,2.321,0.101,2.321,1.221c0,0.98-0.84,0.721-1.38,2.121l-3.441,9.002
		c-0.42,1.08-0.88,2.12-2.021,2.12c-1,0-1.32-0.54-1.68-1.38L22.689,18.61z"/>
	<path fill="#4F2610" d="M36.547,19.55c-0.22,0-0.54-0.061-0.54,0.28c0,1,1.3,1.841,2.24,1.841c1.5,0,2.241-0.9,2.661-0.9
		s0.78,0.619,0.78,1c0,1.54-2.821,2.66-4.621,2.66c-3.601,0-5.461-2.6-5.461-5.181c0-3.081,2.621-5.321,5.622-5.321
		c3.4,0,4.901,2.621,4.901,4.121c0,1.32-0.6,1.5-1.24,1.5H36.547z M38.288,17.029c0-0.72-0.44-1.28-1.18-1.28
		c-0.66,0-1.2,0.68-1.2,1.32c0,0.721,0.68,0.561,1.2,0.561C37.647,17.63,38.288,17.749,38.288,17.029z"/>
	<path fill="#4F2610" d="M48.368,20.81c0,1.941,0.68,1.602,0.68,2.361c0,1.24-2.661,1.2-3.481,1.2c-0.8,0-2.841,0-2.841-1.2
		c0-0.961,0.92-0.1,0.98-2.061l0.08-3.001c0.04-1.479-1.18-1-1.18-2.06c0-1.061,4.601-2.061,5.001-2.061
		c0.44,0,0.72,0.379,0.72,0.779c0,0.12-0.02,0.24-0.02,0.36c0,0.24,0.1,0.521,0.4,0.521c0.32,0,0.5-0.42,0.9-0.84
		c0.4-0.4,1-0.82,2.14-0.82c4.141,0,3.441,4.061,3.641,7.102c0.1,1.58,0.92,1.22,0.92,2.08c0,0.359,0.08,1.2-3.681,1.2
		c-0.72,0-2.641,0.04-2.641-1.081c0-0.72,0.66-0.379,0.76-1.68c0.1-1.42,0.66-4.621-1.22-4.621c-1.28,0-1.16,1.381-1.16,2.281V20.81
		z"/>
	<path fill="#4F2610" d="M63.868,21.11c-0.08-0.12-0.561-0.801-0.76-0.801c-0.22,0-0.2,0.44-0.2,0.561
		c-0.06,1.78,0.82,1.18,0.82,2.121c0,0.56-0.14,1.38-3.261,1.38c-1.641,0-3.501,0.06-3.501-1.261c0-0.96,1.061-0.26,1.121-1.939
		c0.06-1.4,0.16-3.301,0.16-4.182v-2.86c0-1.62-1.54-0.54-1.54-1.681c0-1.34,4.521-2.32,5.581-2.32c0.54,0,0.58,0.32,0.56,0.76
		l-0.1,4.241c-0.04,1.28-0.04,1.78,0.44,1.78c0.32,0,1.6-0.68,1.6-0.98c0-0.279-0.4-0.439-0.4-0.84c0-1.04,2.041-1.1,2.74-1.1
		c0.82,0,3.001,0.02,3.001,1.26c0,0.9-0.74,0.48-1.94,1.221c-0.2,0.1-0.98,0.5-0.98,0.74c0,0.5,2.341,3.381,2.721,3.84
		c0.9,1.121,2,1.101,2,1.941c0,0.619-0.46,1.16-2,1.16h-2.821c-0.8,0-0.9-0.041-1.38-0.66L63.868,21.11z"/>
	<path fill="#4F2610" d="M75.066,18.489c-1.34,0-2.42-1.08-2.42-2.42s1.08-2.421,2.42-2.421s2.42,1.081,2.42,2.421
		S76.407,18.489,75.066,18.489z M75.066,24.431c-1.34,0-2.42-1.08-2.42-2.42c0-1.341,1.08-2.421,2.42-2.421s2.42,1.08,2.42,2.421
		C77.487,23.351,76.407,24.431,75.066,24.431z"/>
	<path fill="#4F2610" d="M90.086,18.53c-0.12-0.261-0.34-0.861-0.7-0.861c-0.62,0-0.42,2.641-0.42,3.301
		c0,2.141,1.28,1.141,1.28,2.221c0,1.141-2.141,1.181-2.92,1.181c-0.7,0-2.521-0.06-2.521-1.101c0-1.141,1.2-0.199,1.36-1.84
		c0.16-1.681,0.34-3.541,0.34-6.441c0-1.201-0.08-1.82-0.3-2.281c-0.2-0.42-1.34-0.56-1.34-1.38c0-1.14,1.861-1.421,3.461-1.421
		c2.34,0,2.3,0.4,2.901,1.421c0.7,1.181,1.94,4.461,2.82,4.661c0.62,0.141,1.44-2.281,2.161-3.602c1.02-1.88,1.04-2.48,3.681-2.48
		c0.88,0,2.88,0.061,2.88,1.32c0,0.801-0.9,0.961-1.1,1.641c-0.16,0.561-0.3,2.921-0.3,3.821c0,0.3,0.12,2.501,0.2,4.36
		c0.06,1.461,1.26,1.141,1.26,2.041c0,1.34-2.74,1.28-3.621,1.28c-0.82,0-3.561,0.08-3.561-1.2c0-0.7,0.9-0.82,1.04-1.461
		c0.08-0.34,0.48-3.78-0.22-3.78c-0.62,0-1.26,1.761-1.74,2.78c-0.44,0.92-1.16,3.201-1.8,3.121c-0.32-0.04-0.48,0-1.681-2.701
		L90.086,18.53z"/>
	<path fill="#4F2610" d="M103.465,19.53c0-3.581,3.141-5.602,6.441-5.602c3.501,0,5.501,2.74,5.501,5.221
		c0,3.281-3.521,5.281-6.461,5.281C105.986,24.431,103.465,22.69,103.465,19.53z M109.046,16.289c-0.66,0-1.021,0.62-0.98,1.2
		c0.08,1.26,0.44,4.342,1.82,4.422c0.76,0.039,0.92-0.602,0.92-1.241C110.807,19.771,110.407,16.289,109.046,16.289z"/>
	<path fill="#4F2610" d="M121.046,19.55c-0.22,0-0.54-0.061-0.54,0.28c0,1,1.3,1.841,2.24,1.841c1.5,0,2.241-0.9,2.661-0.9
		s0.78,0.619,0.78,1c0,1.54-2.821,2.66-4.621,2.66c-3.601,0-5.461-2.6-5.461-5.181c0-3.081,2.621-5.321,5.622-5.321
		c3.4,0,4.901,2.621,4.901,4.121c0,1.32-0.6,1.5-1.24,1.5H121.046z M122.787,17.029c0-0.72-0.44-1.28-1.18-1.28
		c-0.66,0-1.2,0.68-1.2,1.32c0,0.721,0.68,0.561,1.2,0.561C122.146,17.63,122.787,17.749,122.787,17.029z"/>
	<path fill="#4F2610" d="M132.866,20.81c0,1.941,0.68,1.602,0.68,2.361c0,1.24-2.661,1.2-3.481,1.2c-0.8,0-2.84,0-2.84-1.2
		c0-0.961,0.92-0.1,0.98-2.061l0.08-3.001c0.04-1.479-1.18-1-1.18-2.06c0-1.061,4.601-2.061,5.001-2.061
		c0.44,0,0.72,0.379,0.72,0.779c0,0.12-0.02,0.24-0.02,0.36c0,0.24,0.1,0.521,0.4,0.521c0.32,0,0.5-0.42,0.9-0.84
		c0.4-0.4,1-0.82,2.14-0.82c4.141,0,3.441,4.061,3.641,7.102c0.1,1.58,0.92,1.22,0.92,2.08c0,0.359,0.08,1.2-3.681,1.2
		c-0.72,0-2.641,0.04-2.641-1.081c0-0.72,0.66-0.379,0.76-1.68c0.1-1.42,0.66-4.621-1.22-4.621c-1.28,0-1.16,1.381-1.16,2.281V20.81
		z"/>
	<path fill="#4F2610" d="M147.105,20.45c0,2.36,1.181,1.5,1.181,2.561c0,1.36-2.541,1.36-3.441,1.36
		c-3.441,0-3.581-0.78-3.581-1.261c0-0.72,0.82-0.76,1.06-1.38c0.26-0.7,0.3-3.601,0.08-4.341c-0.18-0.7-1.2-0.48-1.2-1.381
		c0-1.42,5.081-2.02,5.281-2.02c0.6,0,0.62,0.459,0.62,0.879V20.45z M143.145,13.349c-0.84,0-1.741-0.381-1.741-1.36
		c0-1.32,2.641-1.86,3.661-1.86c0.8,0,1.94,0.26,1.94,1.26C147.006,12.948,144.285,13.349,143.145,13.349z"/>
	<path fill="#4F2610" d="M153.786,19.55c-0.221,0-0.541-0.061-0.541,0.28c0,1,1.301,1.841,2.24,1.841c1.501,0,2.241-0.9,2.661-0.9
		s0.78,0.619,0.78,1c0,1.54-2.82,2.66-4.621,2.66c-3.601,0-5.461-2.6-5.461-5.181c0-3.081,2.621-5.321,5.622-5.321
		c3.4,0,4.9,2.621,4.9,4.121c0,1.32-0.6,1.5-1.24,1.5H153.786z M155.526,17.029c0-0.72-0.44-1.28-1.181-1.28
		c-0.66,0-1.2,0.68-1.2,1.32c0,0.721,0.68,0.561,1.2,0.561C154.886,17.63,155.526,17.749,155.526,17.029z"/>
	<path fill="#4F2610" d="M178.347,20.771c0,1.4,1.061,0.939,1.061,1.98c0,1.52-4.381,1.62-4.602,1.62c-1.02,0-0.3-1.101-0.96-1.101
		c-0.181,0-0.48,0.28-0.94,0.58c-0.46,0.28-1.08,0.58-1.961,0.58c-2.62,0-4.66-2.78-4.66-5.24c0-2.661,2.16-5.262,4.921-5.262
		c1.38,0,2.16,0.6,2.38,0.6c0.301,0,0.32-0.66,0.32-0.88c0-1.24-1.46-0.58-1.46-1.66c0-1.48,5.101-1.86,5.161-1.86
		c0.6,0,0.74,0.42,0.74,1.08V20.771z M172.765,16.109c-1.34,0-1.58,2.3-1.58,3.241c0,0.939,0.24,2.58,1.48,2.58
		c1.34,0,1.261-2.461,1.261-3.341C173.926,17.81,173.926,16.109,172.765,16.109z"/>
	<path fill="#4F2610" d="M185.705,20.45c0,2.36,1.181,1.5,1.181,2.561c0,1.36-2.541,1.36-3.441,1.36c-3.44,0-3.58-0.78-3.58-1.261
		c0-0.72,0.82-0.76,1.061-1.38c0.26-0.7,0.299-3.601,0.08-4.341c-0.181-0.7-1.201-0.48-1.201-1.381c0-1.42,5.082-2.02,5.281-2.02
		c0.6,0,0.62,0.459,0.62,0.879V20.45z M181.745,13.349c-0.841,0-1.741-0.381-1.741-1.36c0-1.32,2.641-1.86,3.661-1.86
		c0.8,0,1.94,0.26,1.94,1.26C185.605,12.948,182.885,13.349,181.745,13.349z"/>
	<path fill="#4F2610" d="M192.386,19.55c-0.221,0-0.541-0.061-0.541,0.28c0,1,1.301,1.841,2.24,1.841c1.501,0,2.241-0.9,2.661-0.9
		s0.78,0.619,0.78,1c0,1.54-2.82,2.66-4.621,2.66c-3.601,0-5.461-2.6-5.461-5.181c0-3.081,2.62-5.321,5.621-5.321
		c3.4,0,4.9,2.621,4.9,4.121c0,1.32-0.6,1.5-1.24,1.5H192.386z M194.126,17.029c0-0.72-0.44-1.28-1.181-1.28
		c-0.66,0-1.2,0.68-1.2,1.32c0,0.721,0.68,0.561,1.2,0.561C193.485,17.63,194.126,17.749,194.126,17.029z"/>
	<path fill="#4F2610" d="M210.385,14.849c0,0.1-0.021,0.32,0.14,0.32c0.1,0,0.42-0.32,0.94-0.62c0.521-0.319,1.22-0.62,2.101-0.62
		c2.121,0,3.921,1.78,3.921,4.421c0,3.421-2.561,6.081-6.001,6.081c-2.521,0-3.701-1.3-4.021-1.3s-0.641,0.3-1.301,0.3
		c-0.279,0-0.6-0.08-0.6-0.4s0.4-0.96,0.4-3.561v-5.32c0-1.161-1.5-0.641-1.5-1.781c0-1.34,3.881-2.24,5.541-2.24
		c0.54,0,0.52,0.42,0.5,0.86L210.385,14.849z M211.405,17.009c-0.881,0-0.98,0.721-0.98,1.4c0,3.881,0.22,4.201,1.02,4.201
		c1.32,0,1.541-1.5,1.541-2.521C212.985,19.149,212.726,17.009,211.405,17.009z"/>
	<path fill="#4F2610" d="M218.203,19.53c0-3.581,3.142-5.602,6.441-5.602c3.501,0,5.501,2.74,5.501,5.221
		c0,3.281-3.521,5.281-6.461,5.281C220.724,24.431,218.203,22.69,218.203,19.53z M223.784,16.289c-0.66,0-1.02,0.62-0.98,1.2
		c0.08,1.26,0.441,4.342,1.82,4.422c0.761,0.039,0.921-0.602,0.921-1.241C225.545,19.771,225.146,16.289,223.784,16.289z"/>
	<path fill="#4F2610" d="M231.903,18.569c0-1.279-0.26-1.641-0.459-1.82c-0.261-0.22-0.541-0.199-0.541-0.72
		c0-1.48,4.961-2.04,5.002-2.04c0.5,0,0.539,0.439,0.539,0.859c0,0.24-0.08,0.92,0.34,0.92c0.201,0,0.521-0.439,1.08-0.9
		c0.561-0.439,1.361-0.879,2.541-0.879c2.381,0,2.4,1.779,2.82,1.779c0.16,0,0.521-0.439,1.101-0.9
		c0.601-0.439,1.4-0.879,2.421-0.879c1.9,0,3.08,1.039,3.08,3v4.221c0,1.16,0.74,1.261,0.74,1.841c0,1.261-2.28,1.32-3.061,1.32
		c-0.66,0-2.98-0.14-2.98-1.181c0-0.74,0.7-0.72,0.7-1.881v-1.8c0-0.84,0.101-2.521-1.04-2.521c-1.121,0-1.021,1.36-1.021,2.101
		v1.24c0,2.46,0.72,2.04,0.72,2.78c0,1.24-2.4,1.261-3.12,1.261c-3.021,0-3.181-0.56-3.161-1.12
		c0.021-1.061,1.021-0.221,0.961-2.602v-1.14c0-0.72,0.1-2.521-1.041-2.521c-1.119,0-1.02,1.36-1.02,2.101v1.62
		c0,1.84,0.54,1.721,0.54,2.441c0,0.52-0.46,1.22-3.2,1.22c-0.781,0-3.141,0.021-3.141-1.04c0-0.9,1.199-0.42,1.199-2.921V18.569z"
		/>
	<path fill="#4F2610" d="M256.064,19.55c-0.22,0-0.54-0.061-0.54,0.28c0,1,1.301,1.841,2.24,1.841c1.5,0,2.24-0.9,2.66-0.9
		s0.781,0.619,0.781,1c0,1.54-2.821,2.66-4.621,2.66c-3.602,0-5.462-2.6-5.462-5.181c0-3.081,2.62-5.321,5.622-5.321
		c3.4,0,4.9,2.621,4.9,4.121c0,1.32-0.6,1.5-1.24,1.5H256.064z M257.805,17.029c0-0.72-0.44-1.28-1.181-1.28
		c-0.66,0-1.199,0.68-1.199,1.32c0,0.721,0.68,0.561,1.199,0.561C257.165,17.63,257.805,17.749,257.805,17.029z"/>
	<path fill="#4F2610" d="M268.583,19.53c0-3.581,3.141-5.602,6.441-5.602c3.5,0,5.501,2.74,5.501,5.221
		c0,3.281-3.521,5.281-6.462,5.281C271.103,24.431,268.583,22.69,268.583,19.53z M274.164,16.289c-0.66,0-1.021,0.62-0.98,1.2
		c0.08,1.26,0.44,4.342,1.82,4.422c0.761,0.039,0.921-0.602,0.921-1.241C275.925,19.771,275.524,16.289,274.164,16.289z"/>
	<path fill="#4F2610" d="M282.703,18.97c0.04-0.62-0.16-0.939-0.8-0.939c-0.24,0-0.86,0.1-0.86-0.261c0-1.581-0.12-1.761,0.479-1.8
		c0.24-0.021,0.561-0.041,0.561-0.381c0-0.38-0.76-1.12-0.76-2.381c0-2.38,2.46-3.18,4.461-3.18c3.26,0,4.021,1.72,4.021,2.58
		c0,0.84-0.681,1.541-1.521,1.541c-1.74,0-1.961-1.801-3.101-1.801c-0.399,0-0.681,0.32-0.681,0.72c0,1.261,2.081,1.681,2.441,2.561
		c0.06,0.16,0.08,0.22,0.279,0.22c0.841,0,1.98-0.22,1.941,0.381l-0.101,1.46c-0.021,0.3-0.239,0.341-0.521,0.341
		c-1.18,0-1.38-0.021-1.38,1.3c0,0.56,0.06,1.261,0.2,1.78c0.359,1.2,1.78,0.561,1.78,1.801c0,0.479-0.04,1.46-4.541,1.46
		c-0.96,0-3.54-0.021-3.54-1.421c0-1.119,1.4-0.6,1.479-1.82L282.703,18.97z"/>
	<path fill="#4F2610" d="M10.968,32.048c0.36,0.061,0.68,0.141,0.82,0.141c0.2,0,0.36-0.061,0.54-0.141
		c0.18-0.059,0.36-0.119,0.54-0.119c0.92,0,1.84,1.84,1.84,2.66c0,0.541-0.46,0.939-0.98,0.939c-1.141,0-1.781-1.58-2.661-1.58
		c-0.36,0-0.72,0.301-0.72,0.682c0,1.279,4.401,1.52,4.401,4.621c0,1.879-1.82,3.18-3.901,3.18c-0.4,0-0.98-0.061-1.48-0.141
		c-0.5-0.059-0.94-0.119-1.06-0.119c-0.14,0-0.26,0.02-0.4,0.039c-0.12,0.021-0.24,0.041-0.38,0.041c-0.4,0-0.6-0.061-0.88-0.381
		c-0.5-0.561-1-1.699-1-2.461c0-0.52,0.18-0.939,0.76-0.939c0.88,0,1.68,1.98,2.801,1.98c0.4,0,0.78-0.199,0.78-0.641
		c0-1.18-3.921-1.32-3.921-4.621c0-2,1.64-3.26,3.701-3.26C10.167,31.929,10.588,31.968,10.968,32.048z"/>
	<path fill="#4F2610" d="M16.967,38.191c0-2.102-0.12-2.561-0.22-2.662c-0.26-0.26-1.34,0-1.34-1.139c0-1.361,4.121-2.4,5.601-2.4
		c0.48,0,0.56,0.16,0.56,0.6c0,0.141,0.02,0.42,0.22,0.42c0.28,0,1.4-1.08,3.041-1.08c2.621,0,4.021,2.621,4.021,4.961
		c0,2.68-1.9,5.541-4.821,5.541c-0.94,0-1.88-0.5-2.061-0.5c-0.28,0-0.32,0.42-0.32,0.641c0,1.52,1.24,1.039,1.24,2.02
		c0,1.121-1.82,1.26-2.601,1.26c-2.681,0-4.781-0.979-4.781-2c0-0.9,0.82-0.561,1.18-1.34c0.2-0.42,0.28-1,0.28-3.221V38.191z
		 M22.448,34.89c-0.72,0-0.96,0.299-0.96,3.939c0,0.66,0.32,0.9,1.021,0.9c1.24,0,1.4-1.34,1.4-2.301
		C23.908,36.47,23.708,34.89,22.448,34.89z"/>
	<path fill="#4F2610" d="M34.467,37.55c-0.22,0-0.54-0.061-0.54,0.279c0,1,1.3,1.842,2.24,1.842c1.5,0,2.241-0.9,2.661-0.9
		s0.78,0.619,0.78,1c0,1.539-2.821,2.66-4.621,2.66c-3.601,0-5.461-2.6-5.461-5.182c0-3.08,2.621-5.32,5.622-5.32
		c3.4,0,4.901,2.621,4.901,4.121c0,1.32-0.6,1.5-1.24,1.5H34.467z M36.208,35.029c0-0.719-0.44-1.279-1.18-1.279
		c-0.66,0-1.2,0.68-1.2,1.32c0,0.721,0.68,0.561,1.2,0.561C35.567,35.63,36.208,35.75,36.208,35.029z"/>
	<path fill="#4F2610" d="M45.607,37.55c-0.22,0-0.54-0.061-0.54,0.279c0,1,1.3,1.842,2.24,1.842c1.5,0,2.241-0.9,2.661-0.9
		s0.78,0.619,0.78,1c0,1.539-2.821,2.66-4.621,2.66c-3.601,0-5.461-2.6-5.461-5.182c0-3.08,2.621-5.32,5.622-5.32
		c3.4,0,4.901,2.621,4.901,4.121c0,1.32-0.6,1.5-1.24,1.5H45.607z M47.348,35.029c0-0.719-0.44-1.279-1.18-1.279
		c-0.66,0-1.2,0.68-1.2,1.32c0,0.721,0.68,0.561,1.2,0.561C46.708,35.63,47.348,35.75,47.348,35.029z"/>
	<path fill="#4F2610" d="M57.727,38.57c0,0.361-0.02,1.021,0.08,1.342c0.22,0.719,1.12,0.379,1.12,1.219
		c0,1.342-2.44,1.24-3.301,1.24c-0.9,0-3.701,0.102-3.701-1.32c0-0.699,0.86-0.439,1.101-1.18c0.26-0.82,0.26-3.32,0.26-4.301
		c0-0.779,0.04-2.281-0.14-3.182c-0.3-1.479-1.48-0.959-1.48-2.1c0-1.741,5.201-2.161,5.481-2.161c0.68,0,0.84,0.439,0.84,1.04
		c0,0.461-0.26,2.662-0.26,5.521V38.57z"/>
	<path fill="#4F2610" d="M64.527,46.212c-3.701,0-5.101-1.4-5.101-2.682c0-1.16,1.1-1.18,1.1-1.48c0-0.26-1.08-0.82-1.08-1.699
		c0-1.42,1.62-1.84,1.62-2.121c0-0.24-1.36-1.16-1.36-2.641c0-2.42,3.021-3.541,5.041-3.541c1.021,0,2.4,0.381,3.101,0.381
		c1.521,0,2.281-1.061,2.581-1.061c0.46,0,0.66,0.6,0.66,0.98c0,1.121-1.12,1.92-1.12,2.141c0,0.199,0.06,0.42,0.06,0.619
		c0,2.701-3.141,3.621-5.341,3.621c-0.34,0-0.68-0.061-1.04-0.061c-0.34,0-0.54,0.221-0.54,0.541c0,0.621,0.88,0.74,1.34,0.74
		c0.62,0,2.94-0.34,3.741-0.34c2.081,0,2.96,1.18,2.96,2.381C71.148,43.791,69.428,46.212,64.527,46.212z M64.727,44.492
		c0.66,0,2.161-0.1,2.161-1.02c0-0.42-0.4-0.602-0.78-0.602c-0.3,0-1.08,0.121-1.72,0.121c-0.46,0-1.541-0.16-1.76-0.16
		c-0.18,0-0.24,0.18-0.24,0.32C62.386,44.212,63.947,44.492,64.727,44.492z M64.847,33.509c-0.78,0-1.12,0.74-1.12,1.439
		c0,0.762,0.2,2.422,1.22,2.422c0.9,0,1.2-0.781,1.2-1.561C66.147,34.99,65.967,33.509,64.847,33.509z"/>
	<path fill="#4F2610" d="M71.646,37.531c0-3.582,3.141-5.602,6.441-5.602c3.501,0,5.501,2.74,5.501,5.221
		c0,3.281-3.521,5.281-6.461,5.281C74.167,42.431,71.646,40.691,71.646,37.531z M77.227,34.289c-0.66,0-1.021,0.621-0.98,1.201
		c0.08,1.26,0.44,4.342,1.82,4.422c0.76,0.039,0.92-0.602,0.92-1.242C78.987,37.771,78.587,34.289,77.227,34.289z"/>
	<path fill="#4F2610" d="M89.227,37.55c-0.22,0-0.54-0.061-0.54,0.279c0,1,1.3,1.842,2.24,1.842c1.5,0,2.241-0.9,2.661-0.9
		s0.78,0.619,0.78,1c0,1.539-2.821,2.66-4.621,2.66c-3.601,0-5.461-2.6-5.461-5.182c0-3.08,2.621-5.32,5.622-5.32
		c3.4,0,4.901,2.621,4.901,4.121c0,1.32-0.6,1.5-1.24,1.5H89.227z M90.967,35.029c0-0.719-0.44-1.279-1.18-1.279
		c-0.66,0-1.2,0.68-1.2,1.32c0,0.721,0.68,0.561,1.2,0.561C90.327,35.63,90.967,35.75,90.967,35.029z"/>
	<path fill="#4F2610" d="M107.488,38.771c0,1.4,1.06,0.939,1.06,1.98c0,1.52-4.381,1.619-4.601,1.619c-1.02,0-0.3-1.1-0.96-1.1
		c-0.18,0-0.48,0.279-0.94,0.58c-0.46,0.279-1.08,0.58-1.96,0.58c-2.621,0-4.661-2.781-4.661-5.24c0-2.662,2.161-5.262,4.921-5.262
		c1.38,0,2.16,0.6,2.38,0.6c0.3,0,0.32-0.66,0.32-0.881c0-1.24-1.46-0.58-1.46-1.66c0-1.48,5.101-1.86,5.161-1.86
		c0.6,0,0.74,0.42,0.74,1.081V38.771z M101.907,34.109c-1.34,0-1.58,2.301-1.58,3.242c0,0.939,0.24,2.58,1.48,2.58
		c1.34,0,1.26-2.461,1.26-3.342C103.067,35.81,103.067,34.109,101.907,34.109z"/>
	<path fill="#4F2610" d="M110.306,34.75c-0.581-1.1-1.701-0.48-1.701-1.561c0-0.5,0.26-1.199,4.021-1.199
		c0.7,0,3.381-0.041,3.381,1.02c0,0.66-0.76,0.801-0.76,1.32c0,0.461,0.74,1.961,1.24,1.961c0.68,0,1.38-1.701,1.38-2.102
		c0-0.5-0.68-0.699-0.68-1.279c0-1,2.2-0.92,2.8-0.92c0.581,0,2.081,0,2.081,0.879c0,0.961-1.3,0.521-1.88,1.641l-3.281,6.381
		c-0.66,1.262-1.2,1.541-1.66,1.541c-0.78,0-1.28-0.859-1.601-1.461L110.306,34.75z"/>
	<path fill="#4F2610" d="M128.187,38.57c0,0.361-0.02,1.021,0.08,1.342c0.22,0.719,1.12,0.379,1.12,1.219
		c0,1.342-2.44,1.24-3.3,1.24c-0.9,0-3.701,0.102-3.701-1.32c0-0.699,0.86-0.439,1.101-1.18c0.26-0.82,0.26-3.32,0.26-4.301
		c0-0.779,0.04-2.281-0.14-3.182c-0.3-1.479-1.48-0.959-1.48-2.1c0-1.741,5.201-2.161,5.481-2.161c0.68,0,0.84,0.439,0.84,1.04
		c0,0.461-0.26,2.662-0.26,5.521V38.57z"/>
	<path fill="#4F2610" d="M135.706,38.451c0,2.359,1.181,1.5,1.181,2.561c0,1.359-2.541,1.359-3.441,1.359
		c-3.441,0-3.581-0.779-3.581-1.26c0-0.721,0.82-0.76,1.06-1.381c0.26-0.699,0.3-3.6,0.08-4.34c-0.18-0.701-1.2-0.48-1.2-1.381
		c0-1.42,5.081-2.02,5.281-2.02c0.6,0,0.62,0.459,0.62,0.879V38.451z M131.746,31.349c-0.84,0-1.741-0.381-1.741-1.361
		c0-1.32,2.641-1.86,3.661-1.86c0.8,0,1.94,0.26,1.94,1.26C135.606,30.949,132.886,31.349,131.746,31.349z"/>
	<path fill="#4F2610" d="M142.386,37.55c-0.22,0-0.54-0.061-0.54,0.279c0,1,1.3,1.842,2.24,1.842c1.5,0,2.241-0.9,2.661-0.9
		s0.78,0.619,0.78,1c0,1.539-2.821,2.66-4.621,2.66c-3.601,0-5.461-2.6-5.461-5.182c0-3.08,2.621-5.32,5.622-5.32
		c3.4,0,4.901,2.621,4.901,4.121c0,1.32-0.6,1.5-1.24,1.5H142.386z M144.126,35.029c0-0.719-0.44-1.279-1.18-1.279
		c-0.66,0-1.2,0.68-1.2,1.32c0,0.721,0.68,0.561,1.2,0.561C143.486,35.63,144.126,35.75,144.126,35.029z"/>
	<path fill="#4F2610" d="M153.626,46.212c-3.701,0-5.101-1.4-5.101-2.682c0-1.16,1.1-1.18,1.1-1.48c0-0.26-1.08-0.82-1.08-1.699
		c0-1.42,1.62-1.84,1.62-2.121c0-0.24-1.36-1.16-1.36-2.641c0-2.42,3.021-3.541,5.041-3.541c1.021,0,2.401,0.381,3.101,0.381
		c1.521,0,2.281-1.061,2.58-1.061c0.461,0,0.66,0.6,0.66,0.98c0,1.121-1.119,1.92-1.119,2.141c0,0.199,0.06,0.42,0.06,0.619
		c0,2.701-3.141,3.621-5.341,3.621c-0.34,0-0.681-0.061-1.041-0.061c-0.34,0-0.539,0.221-0.539,0.541c0,0.621,0.879,0.74,1.34,0.74
		c0.62,0,2.94-0.34,3.74-0.34c2.081,0,2.961,1.18,2.961,2.381C160.247,43.791,158.526,46.212,153.626,46.212z M153.825,44.492
		c0.66,0,2.161-0.1,2.161-1.02c0-0.42-0.399-0.602-0.78-0.602c-0.3,0-1.08,0.121-1.721,0.121c-0.459,0-1.54-0.16-1.76-0.16
		c-0.18,0-0.24,0.18-0.24,0.32C151.485,44.212,153.046,44.492,153.825,44.492z M153.946,33.509c-0.781,0-1.121,0.74-1.121,1.439
		c0,0.762,0.201,2.422,1.221,2.422c0.9,0,1.2-0.781,1.2-1.561C155.246,34.99,155.065,33.509,153.946,33.509z"/>
	<path fill="#4F2610" d="M166.866,37.83c0,1.342,0.561,1.66,1.1,1.66c0.621,0,0.98-0.459,1.341-0.459
		c0.399,0,0.681,0.561,0.681,0.92c0,1.32-2.281,2.48-4.301,2.48c-1.021,0-3.582-0.439-3.582-3.621v-4.121c0-0.359,0-0.5-0.1-0.559
		c-0.1-0.061-0.32-0.021-0.779-0.021c-0.521,0-0.781,0.021-0.881-0.08c-0.141-0.139-0.1-0.34-0.1-0.799c0-0.281-0.061-0.5,0.18-0.66
		l4.561-2.9c0.461-0.281,0.44-0.221,1.041-0.221c0.8,0,0.84-0.08,0.84,0.84c0,0.621-0.04,1.24,0.061,1.48
		c0.06,0.16,0.199,0.16,0.72,0.16h1.399c0.861,0,0.861,0.061,0.861,0.959c0,1.141-0.141,1.221-0.92,1.221h-1.381
		c-0.7,0-0.74,0.021-0.74,0.74V37.83z"/>
	<path fill="#4F2610" d="M176.146,37.83c0,0.801,0.061,2.041,1.141,2.041c1.44,0,1.24-1.881,1.24-2.84c0-0.66,0.02-1.521-0.08-2.162
		c-0.16-1-1.141-0.66-1.141-1.5c0-1.18,4.021-1.379,4.781-1.379c0.721,0,1.021,0.42,1.021,1.119c0,0.641-0.04,1.26-0.04,1.9v4.021
		c0,1.199,1.1,0.641,1.1,1.6c0,1.361-3.54,1.74-4.641,1.74c-1.54,0-0.52-1.199-1.32-1.199c-0.22,0-0.54,0.299-1.02,0.6
		c-0.48,0.301-1.121,0.6-2.001,0.6c-3.801,0-3.48-3-3.48-6c0-3.061-1.38-1.721-1.38-3.041c0-1.281,5.041-1.34,5.201-1.34
		c0.56,0,0.619,0.26,0.619,0.76V37.83z"/>
	<path fill="#4F2610" d="M190.466,38.451c0,2.359,1.18,1.5,1.18,2.561c0,1.359-2.54,1.359-3.44,1.359
		c-3.44,0-3.581-0.779-3.581-1.26c0-0.721,0.82-0.76,1.061-1.381c0.26-0.699,0.3-3.6,0.08-4.34c-0.18-0.701-1.2-0.48-1.2-1.381
		c0-1.42,5.081-2.02,5.28-2.02c0.602,0,0.621,0.459,0.621,0.879V38.451z M186.505,31.349c-0.84,0-1.74-0.381-1.74-1.361
		c0-1.32,2.641-1.86,3.66-1.86c0.801,0,1.941,0.26,1.941,1.26C190.366,30.949,187.646,31.349,186.505,31.349z"/>
	<path fill="#4F2610" d="M197.146,37.55c-0.221,0-0.54-0.061-0.54,0.279c0,1,1.3,1.842,2.24,1.842c1.501,0,2.241-0.9,2.661-0.9
		s0.779,0.619,0.779,1c0,1.539-2.82,2.66-4.621,2.66c-3.6,0-5.461-2.6-5.461-5.182c0-3.08,2.621-5.32,5.621-5.32
		c3.4,0,4.901,2.621,4.901,4.121c0,1.32-0.601,1.5-1.24,1.5H197.146z M198.886,35.029c0-0.719-0.439-1.279-1.18-1.279
		c-0.66,0-1.201,0.68-1.201,1.32c0,0.721,0.681,0.561,1.201,0.561C198.245,35.63,198.886,35.75,198.886,35.029z"/>
	<path fill="#4F2610" d="M215.786,37.83c0,1.342,0.56,1.66,1.1,1.66c0.62,0,0.98-0.459,1.34-0.459c0.4,0,0.681,0.561,0.681,0.92
		c0,1.32-2.28,2.48-4.301,2.48c-1.021,0-3.581-0.439-3.581-3.621v-4.121c0-0.359,0-0.5-0.1-0.559c-0.1-0.061-0.32-0.021-0.78-0.021
		c-0.521,0-0.78,0.021-0.88-0.08c-0.141-0.139-0.101-0.34-0.101-0.799c0-0.281-0.06-0.5,0.181-0.66l4.561-2.9
		c0.46-0.281,0.439-0.221,1.04-0.221c0.8,0,0.841-0.08,0.841,0.84c0,0.621-0.041,1.24,0.06,1.48c0.06,0.16,0.2,0.16,0.72,0.16h1.4
		c0.86,0,0.86,0.061,0.86,0.959c0,1.141-0.14,1.221-0.92,1.221h-1.38c-0.701,0-0.74,0.021-0.74,0.74V37.83z"/>
	<path fill="#4F2610" d="M220.604,36.089c0-1.959-1.24-0.859-1.24-2.08c0-1.58,4.681-2.02,4.861-2.02
		c0.76,0,0.779,0.199,0.859,0.879c0.021,0.24,0,0.701,0.34,0.701c0.48,0,0.781-1.58,2.501-1.58c1.341,0,2.221,1,2.221,2.32
		c0,1.34-1.141,2.4-2.46,2.4c-1.301,0-1.661-1.141-2.182-1.141c-0.56,0-0.459,1.34-0.459,1.701c0,0.6,0.06,1.439,0.159,2.199
		c0.12,0.881,1.641,0.34,1.641,1.541c0,1.26-1.761,1.359-3.961,1.359c-0.921,0-3.641,0.041-3.641-1.34c0-0.84,0.92-0.84,1.14-1.541
		c0.16-0.5,0.221-1.639,0.221-2.199V36.089z"/>
	<path fill="#4F2610" d="M235.565,37.55c-0.221,0-0.541-0.061-0.541,0.279c0,1,1.301,1.842,2.24,1.842c1.501,0,2.241-0.9,2.661-0.9
		s0.78,0.619,0.78,1c0,1.539-2.82,2.66-4.621,2.66c-3.601,0-5.461-2.6-5.461-5.182c0-3.08,2.62-5.32,5.621-5.32
		c3.4,0,4.9,2.621,4.9,4.121c0,1.32-0.6,1.5-1.24,1.5H235.565z M237.306,35.029c0-0.719-0.44-1.279-1.181-1.279
		c-0.66,0-1.2,0.68-1.2,1.32c0,0.721,0.68,0.561,1.2,0.561C236.665,35.63,237.306,35.75,237.306,35.029z"/>
	<path fill="#4F2610" d="M243.244,36.97c0.04-0.621-0.16-0.939-0.8-0.939c-0.24,0-0.86,0.1-0.86-0.262c0-1.58-0.12-1.76,0.479-1.799
		c0.24-0.021,0.561-0.041,0.561-0.381c0-0.381-0.76-1.121-0.76-2.381c0-2.38,2.46-3.18,4.461-3.18c3.26,0,4.021,1.719,4.021,2.581
		c0,0.84-0.681,1.541-1.521,1.541c-1.74,0-1.961-1.801-3.101-1.801c-0.399,0-0.681,0.32-0.681,0.719
		c0,1.262,2.081,1.682,2.441,2.561c0.06,0.16,0.08,0.221,0.279,0.221c0.841,0,1.98-0.221,1.941,0.381l-0.101,1.459
		c-0.021,0.301-0.239,0.342-0.521,0.342c-1.18,0-1.38-0.021-1.38,1.299c0,0.561,0.06,1.262,0.2,1.781
		c0.359,1.199,1.78,0.561,1.78,1.801c0,0.479-0.04,1.459-4.541,1.459c-0.96,0-3.54-0.02-3.54-1.42c0-1.119,1.4-0.6,1.479-1.82
		L243.244,36.97z"/>
	<path fill="#4F2610" d="M262.604,38.81c0,1.941,0.681,1.602,0.681,2.361c0,1.24-2.661,1.199-3.481,1.199c-0.8,0-2.84,0-2.84-1.199
		c0-0.961,0.92-0.1,0.98-2.061l0.08-3.002c0.039-1.479-1.181-1-1.181-2.059c0-1.061,4.601-2.061,5.001-2.061
		c0.439,0,0.721,0.379,0.721,0.779c0,0.119-0.021,0.24-0.021,0.359c0,0.24,0.101,0.521,0.399,0.521c0.32,0,0.5-0.42,0.9-0.84
		c0.4-0.4,1-0.82,2.141-0.82c4.141,0,3.441,4.061,3.641,7.102c0.101,1.58,0.92,1.219,0.92,2.08c0,0.359,0.08,1.199-3.68,1.199
		c-0.721,0-2.641,0.041-2.641-1.08c0-0.721,0.66-0.379,0.76-1.68c0.1-1.42,0.66-4.621-1.221-4.621c-1.279,0-1.16,1.381-1.16,2.281
		V38.81z"/>
	<path fill="#4F2610" d="M276.845,38.451c0,2.359,1.18,1.5,1.18,2.561c0,1.359-2.54,1.359-3.44,1.359
		c-3.44,0-3.581-0.779-3.581-1.26c0-0.721,0.82-0.76,1.061-1.381c0.26-0.699,0.3-3.6,0.08-4.34c-0.18-0.701-1.2-0.48-1.2-1.381
		c0-1.42,5.081-2.02,5.28-2.02c0.602,0,0.621,0.459,0.621,0.879V38.451z M272.884,31.349c-0.84,0-1.74-0.381-1.74-1.361
		c0-1.32,2.641-1.86,3.66-1.86c0.801,0,1.941,0.26,1.941,1.26C276.745,30.949,274.024,31.349,272.884,31.349z"/>
	<path fill="#4F2610" d="M283.524,37.55c-0.221,0-0.54-0.061-0.54,0.279c0,1,1.3,1.842,2.24,1.842c1.501,0,2.241-0.9,2.661-0.9
		s0.779,0.619,0.779,1c0,1.539-2.82,2.66-4.621,2.66c-3.6,0-5.461-2.6-5.461-5.182c0-3.08,2.621-5.32,5.621-5.32
		c3.4,0,4.901,2.621,4.901,4.121c0,1.32-0.601,1.5-1.24,1.5H283.524z M285.265,35.029c0-0.719-0.439-1.279-1.18-1.279
		c-0.66,0-1.201,0.68-1.201,1.32c0,0.721,0.681,0.561,1.201,0.561C284.624,35.63,285.265,35.75,285.265,35.029z"/>
	<path fill="#4F2610" d="M292.523,42.431c-1.341,0-2.421-1.08-2.421-2.42c0-1.342,1.08-2.422,2.421-2.422s2.421,1.08,2.421,2.422
		C294.944,41.351,293.864,42.431,292.523,42.431z"/>
</g>
</svg>
