<?xml version="1.0" encoding="utf-8"?>
<!DOCTYPE svg PUBLIC "-//W3C//DTD SVG 1.0//EN" "http://www.w3.org/TR/2001/REC-SVG-20010904/DTD/svg10.dtd">
<svg version="1.0" id="Layer_1" xmlns="http://www.w3.org/2000/svg" xmlns:xlink="http://www.w3.org/1999/xlink" x="0px" y="0px"
	 width="371px" height="194.621px" viewBox="0 0 371 194.621" enable-background="new 0 0 371 194.621" xml:space="preserve">
<g id="XMLID_2_">
	<g id="XMLID_3_">
		<g id="XMLID_16_">
			<path id="XMLID_18_" fill="#D67A27" d="M183.992,154.171c-18.366,5.9-36.733,11.805-55.099,17.705
				c-1.297-1.342-3.043-2.236-5.176-2.258c-3.146-0.027-3.861,4.881-0.677,4.908c0.196,0.004,0.321,0.064,0.498,0.086
				c-3.365,1.666-6.73,3.334-10.098,5.002c-2.841,1.404-0.975,5.998,1.894,4.58c3.58-1.775,7.162-3.549,10.742-5.324
				c-0.387,1.334-1.242,2.658-2.304,3.436c-2.912,2.135-6.838,2.283-10.304,2.535c-3.179,0.232-2.525,5.145,0.651,4.912
				c6.249-0.457,13.604-1.693,16.476-8.125c0.751-1.678,0.865-3.533,0.537-5.285c18.25-5.863,36.5-11.729,54.751-17.592
				C188.92,157.775,187.017,153.199,183.992,154.171z"/>
			<path id="XMLID_17_" fill="#E5E4A5" d="M195.775,158.138c4.66-1.936,9.459-3.656,14.586-5.004
				c-9.885-1.514-60.043-5.162-58.289,14.313c0.307,3.371,3.839,5.703,7.221,5.873c3.382,0.172,6.612-1.26,9.697-2.66
				C178.292,166.433,186.773,161.882,195.775,158.138z"/>
		</g>
		<g id="XMLID_7_">
			<path id="XMLID_15_" fill="#EC2224" d="M314.762,79.567c-0.547,2.625-1.238,5.252-2.08,7.877
				c-0.298,0.893-0.597,1.783-0.942,2.676c0,0.049-0.052,0.098-0.052,0.146c-4.258,11.149-11.689,21.206-20.805,30.024
				c-0.05,0-0.101,0-0.101,0.049c-14.663,14.119-33.488,24.967-49.735,31.506c-1.438,0.596-2.875,1.189-4.411,1.734
				c-1.486,0.596-2.973,1.141-4.508,1.637c-18.528,6.189-35.965,6.637-54.048,5.102c-6.39-0.545-12.879-1.338-19.52-2.18
				c-5.548-0.744-16.844,1.289-26.404,0.992c-6.539-0.15-12.286-1.291-14.911-5.154c-19.669-28.584,43.346-72.673,57.119-83.523
				c25.661-20.164,54.048-38.69,84.615-45.776c6.044-1.436,12.186-2.377,18.378-2.823c14.911-1.089,25.959,6.292,32.351,17.687
				C315.85,50.438,317.783,65.102,314.762,79.567z"/>
			<linearGradient id="XMLID_19_" gradientUnits="userSpaceOnUse" x1="2.9326" y1="144.9292" x2="150.5435" y2="144.9292">
				<stop  offset="0" style="stop-color:#781214"/>
				<stop  offset="0.0177" style="stop-color:#7C1315"/>
				<stop  offset="0.2297" style="stop-color:#A4181A"/>
				<stop  offset="0.4381" style="stop-color:#C31C1E"/>
				<stop  offset="0.6393" style="stop-color:#DA1F21"/>
				<stop  offset="0.8303" style="stop-color:#E72123"/>
				<stop  offset="1" style="stop-color:#EC2224"/>
			</linearGradient>
			<path id="XMLID_14_" fill="url(#XMLID_19_)" d="M109.079,167.113c16.676-7.492,65.181-41.645,27.418-51.725
				c-18.865-5.035-38.62-0.41-57.484-2.945c-22.452-3.018-45.067-7.574-67.58-5.029c-3.438,0.387-7.571,1.557-8.369,4.922
				c-1.069,4.5,4.628,7.342,9.128,8.4c14.777,3.479,29.554,6.957,44.331,10.434c-15.419-3.875-32.467-0.676-45.428,8.525
				c-3.01,2.139-6.105,5.709-4.619,9.086c1.252,2.842,4.912,3.504,8.003,3.781c18.274,1.639,36.549,3.273,54.822,4.91
				c-9.876,1.328-19.449,4.855-27.826,10.258c-4.434,2.859-8.951,8.514-5.876,12.803c2.261,3.156,6.954,2.881,10.788,2.275
				C67.732,179.433,89.368,175.972,109.079,167.113z"/>
			<path id="XMLID_13_" fill="#EC2224" d="M326.057,72.384c-3.021,2.379-6.838,4.906-11.295,7.184
				c-18.529,9.908-47.014,17.389-62.619,6.391c-5.052-3.518-8.72-8.965-10.354-16.844c-3.516-17.043,4.558-32.596,17.19-44.438
				c13.622-12.732,32.598-21.104,48.151-22.193c17.788-1.238,37.455,9.461,40.773,26.998c0.147,0.844,0.296,1.734,0.394,2.578
				C349.834,47.714,338.541,62.376,326.057,72.384z"/>
			<path id="XMLID_12_" fill="#F5F4BC" d="M326.057,72.384c-3.021,2.379-6.838,4.906-11.295,7.184
				c-0.547,2.625-1.238,5.252-2.08,7.877c-0.298,0.893-0.597,1.783-0.942,2.676c0,0.049-0.052,0.098-0.052,0.146
				c-9.159,23.971-35.072,45.477-57.448,57.061c-23.318,12.074-50.679,15.164-76.159,12.99c-6.39-0.545-12.879-1.338-19.517-2.18
				c-8.071-1.023-15.822,1.873-23.667,1.432c1.429,0.08,6.945-5.68,8.398-6.689c3.111-2.154,5.972-3.76,9.508-4.859
				c7.201-2.242,13.822-5.113,20.369-9.035c13.767-8.24,25.802-18.996,38.148-29.15c10.454-8.619,23.188-18.28,36.265-22.44
				c1.586-0.496,3.071-0.942,4.558-1.438c11.293-3.318,20.013-5.549,28.932-15.951c8.074-9.313,14.467-20.361,24.374-27.692
				c1.386-0.991,2.773-1.933,4.26-2.774c10.947-6.342,24.272-8.126,37.056-7.581c0.494,0,0.99,0.052,1.534,0.101
				C349.834,47.714,338.541,62.376,326.057,72.384z"/>
			<path id="XMLID_11_" fill="#E5E4A5" d="M347.561,32.011c-2.745,11.762-11.746,22.432-21.504,30.254
				c-3.021,2.377-6.838,4.903-11.295,7.182c-0.547,2.627-1.238,5.252-2.08,7.879c-0.298,0.891-0.597,1.783-0.942,2.674
				c0,0.049-0.052,0.101-0.052,0.149c-9.159,23.968-35.072,45.474-57.448,57.06c-17.559,9.092-37.919,13.494-57.648,13.596
				c-19.258,0.098-38.278-0.932-55.804,8.527c12.159-3.344,25.047-0.059,37.293,0.986c25.48,2.174,52.841-0.916,76.159-12.99
				c22.376-11.584,48.289-33.09,57.448-57.061c0-0.049,0.052-0.098,0.052-0.146c0.346-0.893,0.645-1.783,0.942-2.676
				c0.842-2.625,1.533-5.252,2.08-7.877c4.457-2.277,8.273-4.805,11.295-7.184c12.484-10.008,23.777-24.67,22.241-40.324
				C348.037,32.035,347.806,32.03,347.561,32.011z"/>
			<path id="XMLID_10_" fill="#D67A27" d="M367.886,26.339c-1.83,3.268-4.229,6.219-7.051,8.68
				c-3.584,3.127-8.062,5.518-12.818,5.56c-6.955,0.061-10.344-6.117-7.427-12.571C345.226,17.749,359.346,24.71,367.886,26.339z"/>
			<path id="XMLID_9_" fill="#161514" d="M322.043,27.319h-0.825c-6.376,0-6.385,9.909,0,9.909h0.825
				C328.418,37.229,328.429,27.319,322.043,27.319z"/>
			<path id="XMLID_8_" fill="#781214" d="M91.619,144.785c-2.837,1.582-5.73,3.039-8.757,4.229
				c-1.235,0.486-6.828,3.287-7.941,2.285c-1.759-1.584,5.095-5.844,6.021-6.57c2.593-2.025,5.187-4.053,7.782-6.08
				c2.509-1.959-1.02-5.441-3.504-3.5c-0.236,0.182-0.488,0.363-0.729,0.547c-6.473,2.412-13.036,4.383-19.851,5.594
				c-4.316,0.771-8.674,1.25-13.053,1.453c-2.299,0.107-4.601,0.139-6.9,0.094c-3.458-2.051-3.346-3.346,0.332-3.883
				c3.933-3.787,15.052-5.926,20.231-7.598c6.972-2.252,14.029-4.119,21.166-5.76c3.106-0.711,1.793-5.49-1.317-4.775
				c-12.078,2.773-23.936,6.318-35.463,10.881c-4.495,1.781-15.25,3.9-13.859,10.756c1.354,6.684,11.098,5.459,15.811,5.24
				c7.377-0.344,14.604-1.563,21.699-3.377c-0.649,0.564-1.319,1.117-1.928,1.707c-2.34,2.275-3.714,5.797-1.132,8.471
				c2.33,2.416,6.169,1.867,9.058,1.01c5.17-1.535,10.136-3.822,14.836-6.445C96.904,147.507,94.409,143.226,91.619,144.785z"/>
		</g>
		<g id="XMLID_4_">
			<path id="XMLID_6_" fill="#D67A27" d="M206.279,157.248c-18.368,5.9-36.733,11.803-55.102,17.705
				c-1.296-1.342-3.042-2.238-5.176-2.258c-3.142-0.029-3.861,4.879-0.676,4.908c0.196,0.002,0.322,0.064,0.497,0.084
				c-3.365,1.668-6.731,3.336-10.097,5.002c-2.838,1.406-0.973,6,1.893,4.58c3.583-1.775,7.162-3.549,10.744-5.322
				c-0.387,1.334-1.243,2.654-2.305,3.434c-2.912,2.137-6.837,2.281-10.305,2.537c-3.178,0.23-2.524,5.145,0.652,4.91
				c6.251-0.457,13.604-1.693,16.477-8.123c0.75-1.678,0.865-3.535,0.536-5.285c18.251-5.865,36.501-11.73,54.753-17.594
				C211.204,160.851,209.303,156.273,206.279,157.248z"/>
			<path id="XMLID_5_" fill="#E5E4A5" d="M218.061,161.214c4.66-1.938,9.459-3.658,14.586-5.006
				c-9.883-1.512-60.041-5.16-58.287,14.313c0.304,3.373,3.836,5.705,7.218,5.875c3.382,0.172,6.615-1.262,9.697-2.66
				C200.578,169.509,209.058,164.958,218.061,161.214z"/>
		</g>
	</g>
</g>
</svg>