<?xml version="1.0" encoding="utf-8"?>
<!-- Generator: Adobe Illustrator 16.0.0, SVG Export Plug-In . SVG Version: 6.00 Build 0)  -->
<!DOCTYPE svg PUBLIC "-//W3C//DTD SVG 1.0//EN" "http://www.w3.org/TR/2001/REC-SVG-20010904/DTD/svg10.dtd">
<svg version="1.0" xmlns="http://www.w3.org/2000/svg" xmlns:xlink="http://www.w3.org/1999/xlink" x="0px" y="0px" width="750px"
	 height="500px" viewBox="0 0 750 500" enable-background="new 0 0 750 500" xml:space="preserve">
<g id="BACKGROUND_2">
</g>
<g id="BACKGROUND_1">
	<path id="XMLID_29_" fill="#790000" d="M342.322,231.843c-0.829-22.546,9.144-69.646,32.782-80.668
		c19.641-9.154,42.815,20.292,61.672,22.922c21.888,3.053,45.151,0.691,65.147,10.105c20.643,9.717,34.034,30.5,41.8,51.957
		c7.762,21.451,10.955,44.281,17.563,66.117c8.529,28.184,22.806,54.612,41.693,77.198c-22.882,3.196-45.844-8.267-62.088-24.692
		c-16.242-16.426-26.96-37.383-37.418-57.978c-2.202,20.6-4.405,41.203-6.606,61.807c-23.296-29-34.882-67.142-31.655-104.2
		c-5.359,23.993-10.72,47.989-16.081,71.987c-9.76-23.202-15.95-47.904-18.286-72.966c0.782,19.971-3.697,40.122-12.87,57.878
		c-10.451-19.796-12.857-43.692-6.563-65.176c-5.598,3.308-7.279,10.602-7.524,17.101c-0.242,6.498,0.333,13.375-2.693,19.133
		c-3.031,5.754-11.61,9.12-16.106,4.424c-3.169-3.313-2.658-8.57-1.935-13.095c1.941-12.177,3.886-24.354,5.829-36.534
		c1.324,12.663-5.046,25.827-15.797,32.643c-5.184-16.913-6.603-34.969-4.115-52.483c-0.064,7.61-0.304,15.783-4.808,21.917
		c-4.504,6.137-14.987,8.307-19.491,2.168C342.792,238.712,342.444,235.181,342.322,231.843z"/>
	<path id="XMLID_28_" opacity="0" fill="#790000" d="M292.13,172.208c22.47,4.031,72.896,6.155,91.036-4.808
		c15.076-9.11-7.695-26.264-4.727-36.829c3.441-12.258,12.748-24.4,9.22-36.653c-3.646-12.653-20.599-23.163-39.903-30.753
		c-19.305-7.589-41.356-12.937-61.391-19.964C260.514,34.128,238.134,22.247,221,8.494c-10.034,11.8-5.32,25.979,6.395,37.332
		c11.713,11.348,29.637,20.447,47.271,29.35c-21.412-2.091-42.83-4.18-64.243-6.274c22.283,17.146,57.265,29.445,95.564,33.6
		c-25.771-0.93-51.541-1.861-77.321-2.791c20.476,8.938,43.52,16.193,68.075,21.438c-19.888-3.598-41.53-4.392-62.153-2.276
		c16.834,8.767,40.194,13.859,63.716,13.891c-4.999,2.486-12.851,2.232-19.469,1.33c-6.62-0.901-13.38-2.303-20.079-1.593
		c-6.7,0.718-12.648,4.794-9.252,7.963c2.39,2.231,7.837,2.789,12.612,3.124c12.85,0.893,25.693,1.781,38.547,2.674
		c-12.364-2.731-27.521-1.393-37.591,3.303c15.493,5.482,33.265,9.115,51.648,10.566c-7.683-1.179-15.99-2.348-23.505-0.897
		c-7.526,1.446-12.834,6.74-7.995,10.137C285.352,170.864,288.803,171.614,292.13,172.208z"/>
	<g id="XMLID_1_">
		<g id="XMLID_145_">
			<g id="XMLID_162_">
				<path id="XMLID_164_" fill="#D87A13" d="M331.582,252.009c-18.366,5.901-36.733,11.805-55.099,17.705
					c-1.297-1.341-3.043-2.236-5.176-2.257c-3.146-0.028-3.861,4.88-0.677,4.908c0.196,0.003,0.321,0.064,0.498,0.085
					c-3.365,1.667-6.73,3.334-10.098,5.002c-2.841,1.405-0.975,5.999,1.894,4.58c3.58-1.774,7.162-3.549,10.742-5.323
					c-0.387,1.334-1.242,2.658-2.304,3.435c-2.912,2.136-6.838,2.283-10.304,2.535c-3.179,0.232-2.525,5.145,0.651,4.912
					c6.249-0.457,13.604-1.693,16.476-8.124c0.751-1.678,0.865-3.534,0.537-5.285c18.25-5.864,36.5-11.729,54.751-17.593
					C336.51,255.613,334.606,251.036,331.582,252.009z"/>
				<path id="XMLID_163_" fill="#E6E5A6" d="M343.365,255.977c4.66-1.937,9.459-3.657,14.586-5.005
					c-9.885-1.514-60.043-5.161-58.289,14.313c0.307,3.372,3.839,5.704,7.221,5.874c3.382,0.172,6.612-1.261,9.697-2.661
					C325.882,264.271,334.363,259.72,343.365,255.977z"/>
			</g>
			<g id="XMLID_150_">
				<path id="XMLID_160_" fill="#FF0000" d="M462.352,177.405c-0.547,2.625-1.238,5.252-2.08,7.877
					c-0.298,0.893-0.597,1.783-0.942,2.676c0,0.049-0.052,0.098-0.052,0.146c-4.258,11.148-11.689,21.205-20.805,30.023
					c-0.05,0-0.101,0-0.101,0.049c-14.663,14.119-33.488,24.968-49.735,31.507c-1.438,0.596-2.875,1.189-4.411,1.734
					c-1.486,0.596-2.973,1.14-4.508,1.636c-18.528,6.19-35.965,6.638-54.048,5.102c-6.39-0.545-12.879-1.337-19.52-2.179
					c-5.548-0.745-16.844,1.288-26.404,0.991c-6.539-0.149-12.286-1.29-14.911-5.153c-19.669-28.585,43.346-72.674,57.119-83.523
					c25.661-20.164,54.048-38.69,84.615-45.776c6.044-1.436,12.186-2.377,18.378-2.823c14.911-1.089,25.959,6.292,32.351,17.687
					C463.439,148.276,465.373,162.939,462.352,177.405z"/>
				<linearGradient id="XMLID_4_" gradientUnits="userSpaceOnUse" x1="150.5225" y1="242.7671" x2="298.1328" y2="242.7671">
					<stop  offset="0" style="stop-color:#790000"/>
					<stop  offset="0.0925" style="stop-color:#8F0000"/>
					<stop  offset="0.2883" style="stop-color:#B70000"/>
					<stop  offset="0.4808" style="stop-color:#D60000"/>
					<stop  offset="0.6668" style="stop-color:#ED0000"/>
					<stop  offset="0.8432" style="stop-color:#FA0000"/>
					<stop  offset="1" style="stop-color:#FF0000"/>
				</linearGradient>
				<path id="XMLID_159_" fill="url(#XMLID_4_)" d="M256.669,264.951c16.676-7.492,65.181-41.646,27.418-51.725
					c-18.865-5.035-38.62-0.411-57.484-2.946c-22.452-3.017-45.067-7.574-67.58-5.029c-3.438,0.388-7.571,1.557-8.369,4.922
					c-1.069,4.5,4.628,7.342,9.128,8.4c14.777,3.479,29.554,6.957,44.331,10.435c-15.419-3.876-32.467-0.676-45.428,8.525
					c-3.01,2.138-6.105,5.709-4.619,9.086c1.252,2.841,4.912,3.504,8.003,3.78c18.274,1.639,36.549,3.274,54.822,4.91
					c-9.876,1.328-19.449,4.856-27.826,10.258c-4.434,2.859-8.951,8.515-5.876,12.804c2.261,3.155,6.954,2.881,10.788,2.274
					C215.322,277.271,236.958,273.81,256.669,264.951z"/>
				<path id="XMLID_157_" fill="#FF0000" d="M473.646,170.222c-3.021,2.379-6.838,4.906-11.295,7.184
					c-18.529,9.908-47.014,17.389-62.619,6.391c-5.052-3.518-8.72-8.965-10.354-16.844c-3.516-17.043,4.558-32.596,17.19-44.438
					c13.622-12.732,32.598-21.104,48.151-22.193c17.788-1.238,37.455,9.461,40.773,26.998c0.147,0.844,0.296,1.734,0.394,2.578
					C497.424,145.552,486.131,160.214,473.646,170.222z"/>
				<path id="XMLID_156_" fill="#F7F6BC" d="M473.646,170.222c-3.021,2.379-6.838,4.906-11.295,7.184
					c-0.547,2.625-1.238,5.252-2.08,7.877c-0.298,0.893-0.597,1.783-0.942,2.676c0,0.049-0.052,0.098-0.052,0.146
					c-9.159,23.971-35.072,45.477-57.448,57.062c-23.318,12.074-50.679,15.163-76.159,12.989c-6.39-0.545-12.879-1.337-19.517-2.179
					c-8.071-1.024-15.822,1.873-23.667,1.432c1.429,0.08,6.945-5.681,8.398-6.689c3.111-2.155,5.972-3.761,9.508-4.86
					c7.201-2.241,13.822-5.113,20.369-9.035c13.767-8.24,25.802-18.996,38.148-29.149c10.454-8.619,23.188-18.28,36.265-22.44
					c1.586-0.496,3.071-0.942,4.558-1.438c11.293-3.318,20.013-5.549,28.932-15.951c8.074-9.313,14.467-20.361,24.374-27.692
					c1.386-0.991,2.773-1.933,4.26-2.774c10.947-6.342,24.272-8.126,37.056-7.581c0.494,0,0.99,0.052,1.534,0.101
					C497.424,145.552,486.131,160.214,473.646,170.222z"/>
				<path id="XMLID_155_" fill="#E6E5A6" d="M495.15,129.849c-2.745,11.762-11.746,22.432-21.504,30.254
					c-3.021,2.377-6.838,4.903-11.295,7.182c-0.547,2.627-1.238,5.252-2.08,7.879c-0.298,0.891-0.597,1.783-0.942,2.674
					c0,0.049-0.052,0.101-0.052,0.149c-9.159,23.968-35.072,45.474-57.448,57.061c-17.559,9.091-37.919,13.493-57.648,13.595
					c-19.258,0.098-38.278-0.932-55.804,8.527c12.159-3.344,25.047-0.058,37.293,0.986c25.48,2.174,52.841-0.915,76.159-12.989
					c22.376-11.585,48.289-33.091,57.448-57.062c0-0.049,0.052-0.098,0.052-0.146c0.346-0.893,0.645-1.783,0.942-2.676
					c0.842-2.625,1.533-5.252,2.08-7.877c4.457-2.277,8.273-4.805,11.295-7.184c12.484-10.008,23.777-24.67,22.241-40.324
					C495.627,129.873,495.396,129.868,495.15,129.849z"/>
				<path id="XMLID_154_" fill="#D87A13" d="M515.476,124.177c-1.83,3.268-4.229,6.219-7.051,8.68
					c-3.584,3.127-8.062,5.518-12.818,5.56c-6.955,0.061-10.344-6.117-7.427-12.571
					C492.815,115.587,506.936,122.548,515.476,124.177z"/>
				<path id="XMLID_153_" fill="#141413" d="M469.633,125.157h-0.825c-6.376,0-6.385,9.909,0,9.909h0.825
					C476.008,135.066,476.019,125.157,469.633,125.157z"/>
				<path id="XMLID_151_" fill="#790000" d="M239.209,242.622c-2.837,1.582-5.73,3.039-8.757,4.229
					c-1.235,0.486-6.828,3.287-7.941,2.285c-1.759-1.585,5.095-5.845,6.021-6.57c2.593-2.026,5.187-4.053,7.782-6.08
					c2.509-1.959-1.02-5.442-3.504-3.501c-0.236,0.183-0.488,0.363-0.729,0.547c-6.473,2.412-13.036,4.383-19.851,5.595
					c-4.316,0.771-8.674,1.249-13.053,1.453c-2.299,0.107-4.601,0.138-6.9,0.093c-3.458-2.051-3.346-3.345,0.332-3.883
					c3.933-3.787,15.052-5.926,20.231-7.598c6.972-2.251,14.029-4.119,21.166-5.76c3.106-0.711,1.793-5.49-1.317-4.775
					c-12.078,2.773-23.936,6.318-35.463,10.882c-4.495,1.781-15.25,3.899-13.859,10.755c1.354,6.685,11.098,5.459,15.811,5.24
					c7.377-0.344,14.604-1.563,21.699-3.376c-0.649,0.564-1.319,1.116-1.928,1.707c-2.34,2.274-3.714,5.796-1.132,8.47
					c2.33,2.417,6.169,1.868,9.058,1.011c5.17-1.535,10.136-3.823,14.836-6.445C244.494,245.345,241.999,241.064,239.209,242.622z"
					/>
			</g>
			<g id="XMLID_146_">
				<path id="XMLID_148_" fill="#D87A13" d="M353.869,255.085c-18.368,5.9-36.733,11.804-55.102,17.705
					c-1.296-1.342-3.042-2.237-5.176-2.257c-3.142-0.029-3.861,4.878-0.676,4.908c0.196,0.002,0.322,0.064,0.497,0.084
					c-3.365,1.667-6.731,3.335-10.097,5.002c-2.838,1.406-0.973,5.999,1.893,4.579c3.583-1.774,7.162-3.548,10.744-5.322
					c-0.387,1.334-1.243,2.655-2.305,3.435c-2.912,2.136-6.837,2.281-10.305,2.536c-3.178,0.231-2.524,5.145,0.652,4.911
					c6.251-0.458,13.604-1.693,16.477-8.124c0.75-1.678,0.865-3.534,0.536-5.284c18.251-5.865,36.501-11.73,54.753-17.594
					C358.794,258.688,356.893,254.111,353.869,255.085z"/>
				<path id="XMLID_147_" fill="#E6E5A6" d="M365.65,259.053c4.66-1.938,9.459-3.658,14.586-5.007
					c-9.883-1.512-60.041-5.159-58.287,14.313c0.304,3.372,3.836,5.704,7.218,5.874c3.382,0.172,6.615-1.261,9.697-2.66
					C348.168,267.347,356.647,262.796,365.65,259.053z"/>
			</g>
		</g>
	</g>
	<g>
		<linearGradient id="XMLID_5_" gradientUnits="userSpaceOnUse" x1="475.1094" y1="226.3779" x2="357.7926" y2="467.106">
			<stop  offset="1.100000e-007" style="stop-color:#FF0000"/>
			<stop  offset="0.1568" style="stop-color:#FA0000"/>
			<stop  offset="0.3332" style="stop-color:#ED0000"/>
			<stop  offset="0.5192" style="stop-color:#D60000"/>
			<stop  offset="0.7117" style="stop-color:#B70000"/>
			<stop  offset="0.9075" style="stop-color:#8F0000"/>
			<stop  offset="1" style="stop-color:#790000"/>
		</linearGradient>
		<path id="XMLID_26_" fill="url(#XMLID_5_)" d="M333.963,219.021c9.189-20.604,38.893-58.491,64.969-57.969
			c21.667,0.433,29.495,37.078,45.266,47.747c18.304,12.382,40.23,20.513,54.03,37.771c14.25,17.818,17.117,42.38,14.634,65.06
			s-9.676,44.581-13.362,67.098c-4.76,29.056-3.591,59.071,3.415,87.67c-21.947-7.213-37.512-27.619-44.856-49.521
			c-7.346-21.903-7.731-45.438-8.046-68.537c-11.055,17.524-22.109,35.05-33.162,52.577c-8.136-36.298-1.732-75.646,17.492-107.488
			c-15.384,19.178-30.768,38.358-46.152,57.536c1.46-25.129,6.785-50.028,15.73-73.557c-8.095,18.271-20.997,34.388-37.056,46.288
			c-0.658-22.376,7.711-44.889,22.825-61.402c-6.483,0.505-11.208,6.31-14.288,12.036c-3.082,5.728-5.595,12.155-10.849,15.989
			c-5.256,3.832-14.44,3.073-16.408-3.125c-1.386-4.367,1.388-8.862,4.03-12.607c7.11-10.074,14.22-20.151,21.329-30.228
			c-4.389,11.951-15.905,20.959-28.563,22.345c2.799-17.468,9.48-34.301,19.428-48.931c-3.407,6.805-7.224,14.034-13.969,17.559
			c-6.747,3.521-17.113,0.85-18.453-6.641C331.358,225.399,332.6,222.076,333.963,219.021z"/>
	</g>
	<g opacity="0">
		
			<linearGradient id="XMLID_6_" gradientUnits="userSpaceOnUse" x1="125.8311" y1="128.459" x2="398.8193" y2="128.459" gradientTransform="matrix(0.9956 0.0936 -0.0936 0.9956 24.091 -20.5096)">
			<stop  offset="0" style="stop-color:#790000"/>
			<stop  offset="0.0925" style="stop-color:#8F0000"/>
			<stop  offset="0.2883" style="stop-color:#B70000"/>
			<stop  offset="0.4808" style="stop-color:#D60000"/>
			<stop  offset="0.6668" style="stop-color:#ED0000"/>
			<stop  offset="0.8432" style="stop-color:#FA0000"/>
			<stop  offset="1" style="stop-color:#FF0000"/>
		</linearGradient>
		<path id="XMLID_24_" fill="url(#XMLID_6_)" d="M324.726,196.581c23.652-0.801,71.845-9.016,80.877-22.83
			c7.503-11.477-25.719-22.758-30.453-33.137c-5.495-12.045-5.471-25.166-17.42-35.799c-12.328-10.975-35.465-17.285-58.71-20.414
			c-23.244-3.127-47.443-3.627-70.967-6.087c-30.354-3.179-59.487-9.663-85.088-18.936c-0.931,12.951,13.469,25.125,32.35,33.273
			c18.879,8.14,41.918,12.945,64.549,17.626c-21.308,2.388-42.615,4.771-63.916,7.161c32.764,11.377,73.859,15.697,112.257,11.813
			c-24.523,4.343-49.042,8.685-73.56,13.025c25.279,4.14,51.753,6.208,78.197,6.104c-20.959,0.684-41.554,4.321-59.148,10.44
			c21.793,4.719,47.025,4.719,68.821,0c-2.87,3.313-10.315,4.66-17.082,5.16c-6.77,0.5-14.021,0.564-19.723,2.578
			c-5.693,2.016-8.31,6.994-2.924,9.24c3.792,1.584,9.233,1.004,13.889,0.343c12.525-1.765,25.055-3.534,37.576-5.307
			c-13.371-0.027-26.462,4.269-32.458,10.651c18.222,1.947,37.249,1.721,55.293-0.648c-7.945,0.461-16.463,1.055-22.406,3.914
			c-5.934,2.857-7.1,8.832-0.217,11.001C317.492,196.709,321.22,196.705,324.726,196.581z"/>
		<path id="XMLID_2_" fill="#790000" d="M345.692,158.642c-3.313,2.945-6.982,6.42-11.794,7.266
			c-2.004,0.355-4.548,0.253-6.307-0.781c-1.873-1.104-3.084-4.254-1.456-5.967c1.255-0.375,2.509-0.748,3.741-1.137
			c3.113-0.971,2.067-5.488-1.09-4.502c-0.233,0.069-0.524,0.168-0.82,0.26c-0.429-0.143-0.927-0.199-1.521-0.012
			c-1.052,0.335-1.938,0.816-2.729,1.38c-7.565,2.352-19.593,5.49-21.202,0.575c-1.326-4.066,3.422-7.479,6.149-10.072
			c1.558-1.477,2.811-2.997,3.93-4.638c0.214-0.054,0.436-0.106,0.646-0.16c2.9-0.763,2.261-4.522-0.296-4.568
			c-1.159-0.521-2.765-0.364-3.63,0.802c-7.837,1.99-17.304,3.773-23.622-1.699c-10.734-9.296,4.813-19.021,14.047-21.341
			c3.207-0.802,2.141-5.313-1.091-4.501c-11.668,2.926-26.35,12.156-20.191,24.697c4.666,9.514,16.176,10.038,26.427,8.396
			c-5.145,5.313-11.759,11.122-5.799,17.64c2.583,2.831,6.716,3.019,10.49,2.574c3.586-0.429,7.164-1.172,10.699-2.066
			c-0.35,3.046,1.099,6.287,4.492,8.203c8.915,5.047,18.322-1.508,24.436-6.945C351.553,159.95,348.063,156.532,345.692,158.642z"/>
	</g>
</g>
<g id="DESIGNED_BY_FREEPIK">
</g>
</svg>
