<?xml version="1.0" encoding="utf-8"?>
<!DOCTYPE svg PUBLIC "-//W3C//DTD SVG 1.0//EN" "http://www.w3.org/TR/2001/REC-SVG-20010904/DTD/svg10.dtd">
<svg version="1.0" id="Layer_1" xmlns="http://www.w3.org/2000/svg" xmlns:xlink="http://www.w3.org/1999/xlink" x="0px" y="0px"
	 width="373.34px" height="410.499px" viewBox="0 0 373.34 410.499" enable-background="new 0 0 373.34 410.499"
	 xml:space="preserve">
<g>
	<linearGradient id="XMLID_2_" gradientUnits="userSpaceOnUse" x1="333.5107" y1="168.5986" x2="216.1941" y2="409.3264">
		<stop  offset="1.100000e-007" style="stop-color:#EC2224"/>
		<stop  offset="0.1697" style="stop-color:#E72123"/>
		<stop  offset="0.3607" style="stop-color:#DA1F21"/>
		<stop  offset="0.5619" style="stop-color:#C31C1E"/>
		<stop  offset="0.7703" style="stop-color:#A4181A"/>
		<stop  offset="0.9823" style="stop-color:#7C1315"/>
		<stop  offset="1" style="stop-color:#781214"/>
	</linearGradient>
	<path id="XMLID_26_" fill="url(#XMLID_2_)" d="M192.364,161.241c9.189-20.604,38.893-58.491,64.969-57.969
		c21.667,0.433,29.495,37.078,45.266,47.747c18.304,12.382,40.23,20.513,54.03,37.771c14.25,17.818,17.117,42.38,14.634,65.06
		s-9.676,44.581-13.362,67.098c-4.76,29.056-3.591,59.071,3.415,87.67c-21.947-7.213-37.512-27.619-44.856-49.521
		c-7.346-21.903-7.731-45.438-8.046-68.537c-11.055,17.524-22.109,35.05-33.162,52.577c-8.136-36.298-1.732-75.646,17.492-107.488
		c-15.384,19.178-30.768,38.358-46.152,57.536c1.46-25.129,6.785-50.028,15.73-73.557c-8.095,18.271-20.997,34.388-37.056,46.288
		c-0.658-22.376,7.711-44.889,22.825-61.402c-6.483,0.505-11.208,6.31-14.288,12.036c-3.082,5.728-5.595,12.155-10.849,15.989
		c-5.256,3.832-14.44,3.073-16.408-3.125c-1.386-4.367,1.388-8.862,4.03-12.607c7.11-10.074,14.22-20.151,21.329-30.228
		c-4.389,11.951-15.905,20.959-28.563,22.345c2.799-17.468,9.48-34.301,19.428-48.931c-3.407,6.805-7.224,14.034-13.969,17.559
		c-6.747,3.521-17.113,0.85-18.453-6.641C189.76,167.62,191.001,164.297,192.364,161.241z"/>
</g>
</svg>