<?xml version="1.0" encoding="utf-8"?>
<!DOCTYPE svg PUBLIC "-//W3C//DTD SVG 1.0//EN" "http://www.w3.org/TR/2001/REC-SVG-20010904/DTD/svg10.dtd">
<svg version="1.0" id="Layer_1" xmlns="http://www.w3.org/2000/svg" xmlns:xlink="http://www.w3.org/1999/xlink" x="0px" y="0px"
	 width="400.759px" height="378.855px" viewBox="0 0 400.759 378.855" enable-background="new 0 0 400.759 378.855"
	 xml:space="preserve">
<path id="XMLID_2_" fill="#781214" d="M136,228.359c-0.829-22.547,9.144-69.646,32.782-80.668
	c19.641-9.154,42.816,20.292,61.671,22.922c21.889,3.053,45.152,0.691,65.148,10.105c20.643,9.717,34.033,30.5,41.799,51.957
	c7.762,21.451,10.955,44.281,17.564,66.117c8.529,28.184,22.805,54.611,41.693,77.197c-22.883,3.197-45.844-8.266-62.088-24.691
	c-16.242-16.426-26.961-37.383-37.418-57.979c-2.203,20.6-4.406,41.203-6.607,61.807c-23.295-29-34.881-67.141-31.654-104.199
	c-5.359,23.992-10.721,47.988-16.082,71.986c-9.76-23.201-15.949-47.904-18.285-72.965c0.781,19.971-3.697,40.121-12.871,57.877
	c-10.451-19.795-12.857-43.691-6.563-65.176c-5.598,3.309-7.279,10.602-7.525,17.102c-0.242,6.498,0.334,13.375-2.693,19.133
	c-3.031,5.754-11.61,9.119-16.106,4.424c-3.169-3.313-2.658-8.57-1.935-13.096c1.941-12.176,3.886-24.354,5.829-36.533
	c1.324,12.662-5.046,25.826-15.797,32.643c-5.184-16.914-6.603-34.969-4.115-52.484c-0.064,7.611-0.304,15.783-4.808,21.918
	c-4.504,6.137-14.987,8.307-19.491,2.168C136.469,235.228,136.122,231.697,136,228.359z"/>
</svg>