<?xml version="1.0" encoding="utf-8"?>
<!DOCTYPE svg PUBLIC "-//W3C//DTD SVG 1.0//EN" "http://www.w3.org/TR/2001/REC-SVG-20010904/DTD/svg10.dtd">
<svg version="1.0" id="Layer_1" xmlns="http://www.w3.org/2000/svg" xmlns:xlink="http://www.w3.org/1999/xlink" x="0px" y="0px"
	 width="400.759px" height="378.855px" viewBox="0 0 400.759 378.855" enable-background="new 0 0 400.759 378.855"
	 xml:space="preserve">
<g>
	<path id="XMLID_1_" fill="#781214" d="M85.807,168.724c22.47,4.031,72.896,6.155,91.036-4.808
		c15.076-9.11-7.695-26.264-4.727-36.829c3.441-12.258,12.748-24.4,9.22-36.653c-3.646-12.653-20.599-23.163-39.903-30.753
		c-19.305-7.589-41.356-12.937-61.391-19.964C54.191,30.645,31.811,18.763,14.677,5.01c-10.034,11.8-5.32,25.979,6.395,37.332
		c11.713,11.348,29.637,20.447,47.271,29.35c-21.412-2.091-42.83-4.18-64.243-6.274c22.283,17.146,57.265,29.445,95.564,33.6
		c-25.771-0.93-51.541-1.861-77.321-2.791c20.476,8.938,43.52,16.193,68.075,21.438c-19.888-3.598-41.53-4.392-62.153-2.276
		c16.834,8.767,40.194,13.859,63.716,13.891c-4.999,2.486-12.851,2.232-19.469,1.33c-6.62-0.901-13.38-2.303-20.079-1.593
		c-6.7,0.718-12.648,4.794-9.252,7.963c2.39,2.231,7.837,2.789,12.612,3.124c12.85,0.893,25.693,1.781,38.547,2.674
		c-12.364-2.731-27.521-1.393-37.591,3.303c15.493,5.482,33.265,9.115,51.648,10.566c-7.683-1.179-15.99-2.348-23.505-0.897
		c-7.526,1.446-12.834,6.74-7.995,10.137C79.029,167.38,82.48,168.13,85.807,168.724z"/>
</g>
</svg>