<?xml version="1.0" encoding="utf-8"?>
<!DOCTYPE svg PUBLIC "-//W3C//DTD SVG 1.0//EN" "http://www.w3.org/TR/2001/REC-SVG-20010904/DTD/svg10.dtd">
<svg version="1.0" id="Layer_1" xmlns="http://www.w3.org/2000/svg" xmlns:xlink="http://www.w3.org/1999/xlink" x="0px" y="0px"
	 width="373.34px" height="410.499px" viewBox="0 0 373.34 410.499" enable-background="new 0 0 373.34 410.499"
	 xml:space="preserve">
<g>
	
		<linearGradient id="XMLID_3_" gradientUnits="userSpaceOnUse" x1="-13.9009" y1="136.6328" x2="259.0869" y2="136.6328" gradientTransform="matrix(0.9956 0.0936 -0.0936 0.9956 22.3743 -73.3478)">
		<stop  offset="0" style="stop-color:#781214"/>
		<stop  offset="0.0177" style="stop-color:#7C1315"/>
		<stop  offset="0.2297" style="stop-color:#A4181A"/>
		<stop  offset="0.4381" style="stop-color:#C31C1E"/>
		<stop  offset="0.6393" style="stop-color:#DA1F21"/>
		<stop  offset="0.8303" style="stop-color:#E72123"/>
		<stop  offset="1" style="stop-color:#EC2224"/>
	</linearGradient>
	<path id="XMLID_24_" fill="url(#XMLID_3_)" d="M183.127,138.802c23.652-0.801,71.845-9.016,80.877-22.83
		c7.503-11.477-25.719-22.758-30.453-33.137c-5.495-12.045-5.471-25.166-17.42-35.799c-12.328-10.975-35.465-17.285-58.71-20.414
		c-23.244-3.127-47.443-3.627-70.967-6.087C56.1,17.356,26.967,10.872,1.366,1.599C0.436,14.55,14.835,26.725,33.716,34.872
		c18.879,8.14,41.918,12.945,64.549,17.626c-21.308,2.388-42.615,4.771-63.916,7.161c32.764,11.377,73.859,15.697,112.257,11.813
		c-24.523,4.343-49.042,8.685-73.56,13.025c25.279,4.14,51.753,6.208,78.197,6.104c-20.959,0.684-41.554,4.321-59.148,10.44
		c21.793,4.719,47.025,4.719,68.821,0c-2.87,3.313-10.315,4.66-17.082,5.16c-6.77,0.5-14.021,0.564-19.723,2.578
		c-5.693,2.016-8.31,6.994-2.924,9.24c3.792,1.584,9.233,1.004,13.889,0.343c12.525-1.765,25.055-3.534,37.576-5.307
		c-13.371-0.027-26.462,4.269-32.458,10.651c18.222,1.947,37.249,1.721,55.293-0.648c-7.945,0.461-16.463,1.055-22.406,3.914
		c-5.934,2.857-7.1,8.832-0.217,11.001C175.894,138.93,179.621,138.926,183.127,138.802z"/>
	<path id="XMLID_2_" fill="#781214" d="M204.094,100.862c-3.313,2.945-6.982,6.42-11.794,7.266
		c-2.004,0.355-4.548,0.253-6.307-0.781c-1.873-1.104-3.084-4.254-1.456-5.967c1.255-0.375,2.509-0.748,3.741-1.137
		c3.113-0.971,2.067-5.488-1.09-4.502c-0.233,0.069-0.524,0.168-0.82,0.26c-0.429-0.143-0.927-0.199-1.521-0.012
		c-1.052,0.335-1.938,0.816-2.729,1.38c-7.565,2.352-19.593,5.49-21.202,0.575c-1.326-4.066,3.422-7.479,6.149-10.072
		c1.558-1.477,2.811-2.997,3.93-4.638c0.214-0.054,0.436-0.106,0.646-0.16c2.9-0.763,2.261-4.522-0.296-4.568
		c-1.159-0.521-2.765-0.364-3.63,0.802c-7.837,1.99-17.304,3.773-23.622-1.699c-10.734-9.296,4.813-19.021,14.047-21.341
		c3.207-0.802,2.141-5.313-1.091-4.501c-11.668,2.926-26.35,12.156-20.191,24.697c4.666,9.514,16.176,10.038,26.427,8.396
		c-5.145,5.313-11.759,11.122-5.799,17.64c2.583,2.831,6.716,3.019,10.49,2.574c3.586-0.429,7.164-1.172,10.699-2.066
		c-0.35,3.046,1.099,6.287,4.492,8.203c8.915,5.047,18.322-1.508,24.436-6.945C209.954,102.171,206.464,98.753,204.094,100.862z"/>
</g>
</svg>